<svg id="Layer_1" data-name="Layer 1" xmlns="http://www.w3.org/2000/svg" viewBox="0 0 300 300"><defs><style>.cls-1{fill:none}.cls-4{fill:#8f90a0}.cls-5{fill:#6d9feb}.cls-8{fill:#444560}.cls-9{fill:#fff}.cls-10{fill:#ffebd0}.cls-11{fill:#ffb54d}.cls-13{fill:#ffefd9}.cls-14{fill:#ffbf64}.cls-15{fill:#5c5d75}.cls-19{fill:#68697f}.cls-20{fill:#b2b2bf}.cls-21{fill:#111236}.cls-24{fill:#f1f2f8}.cls-25{fill:#97806b}.cls-27{fill:#49495f}.cls-28{fill:#ff7b59}.cls-29{fill:#d1435b}.cls-32{fill:#bd9e80}.cls-35{fill:#00a698}.cls-39{fill:#008580}.cls-40{fill:#c7c8d4}.cls-44{fill:#866d58}.cls-45{fill:#8a5941}.cls-46{fill:#814d41}.cls-48{fill:#755a45}.cls-49{fill:#6c5549}.cls-50{fill:#8a7362}</style><clipPath id="clip-path"><path class="cls-1" d="M190.55 213.04h-70.36v-46.85h70.36v46.85"/></clipPath><clipPath id="clip-path-2"><path class="cls-1" d="M89.09 124.1a13.61 13.61 0 0 1 0 4v-.1a29.41 29.41 0 0 1-1.09 5 .58.58 0 0 0 0 .1c1.82-5.9 1.17-9 1.17-9"/></clipPath></defs><path d="M34.46 114.91c-5.05 16.54 6.16 30.34 21.39 36.93 7 3 7.8 13 10.36 20.1L90 238.07c1.42 4 3 8.14 6.41 10.64 7.2 5.31 17.1.25 25.8-2 26.09-6.58 51.1 15.05 78 16.35 25.63 1.24 50.47-19.08 54.07-44.22 4.32-30.21-18.55-59.4-14.33-89.63 2-14.17 9.74-26.82 14.19-40.43s4.75-30.43-5.82-40.18c-12.84-11.85-33.64-6.77-49.4.88S166.05 67 149.13 62.36C137.2 59.08 127.8 49 115.56 47.08c-17-2.62-34.84 5.17-41.72 21.65-7.34 17.58-28.68 23.38-36.91 40a40.93 40.93 0 0 0-2.47 6.15" fill="#f8f9fb"/><path d="M204.38 89.18a51.94 51.94 0 0 0-103.87 0v124.19h103.88V89.18" fill="#9dc0f2"/><path class="cls-4" d="M204.38 89.18h.37a52.31 52.31 0 0 0-104.61 0h.37v-.37h-.37v124.93h104.62V88.81h-.38v.74-.37H204V213H100.88V89.18h-.37v.37h.37v-.37a51.57 51.57 0 0 1 103.13 0v.37h.37v-.37"/><path class="cls-5" d="M125.86 145.7a207.44 207.44 0 0 0 24.41 1.13 54.88 54.88 0 0 0 11.21-1.35c3.7-.87 7 .43 10.77-.16a148 148 0 0 1 34.12-1.32l-.27-56.85c-.41-29.28-23.88-52.89-52.79-52.89s-52.38 23.61-52.79 52.89V144c8.48.12 16.9 1 25.34 1.7z"/><path class="cls-4" d="M125.86 145.7v.38c7 .62 13.94 1.18 21 1.18h3.51a54.94 54.94 0 0 0 11.27-1.36 11.93 11.93 0 0 1 2.82-.3c1.86 0 3.71.31 5.69.31a14.41 14.41 0 0 0 2.24-.16 149.67 149.67 0 0 1 23-1.78c3.74 0 7.45.15 11.07.45h.41l-.28-57.64h-.38v.38h.38c-.41-29.48-24.05-53.26-53.17-53.26s-52.76 23.78-53.16 53.26h.37v-.38h-.38v57.58h.37c8.45.15 16.89 1 25.33 1.73v-.76c-8.44-.75-16.89-1.58-25.39-1.73v.4h.37V87.14h-.37v.38h.38v-.38c.41-29.07 23.72-52.51 52.41-52.51s52 23.44 52.41 52.51v.38L206 144h.38v-.38c-3.64-.3-7.37-.45-11.13-.45a151.23 151.23 0 0 0-23.06 1.83 13.92 13.92 0 0 1-2.12.15c-1.9 0-3.75-.31-5.69-.31a13 13 0 0 0-3 .32 54.71 54.71 0 0 1-11.13 1.34c-1.16 0-2.32.05-3.48.05-7 0-13.93-.56-20.88-1.18z"/><path class="cls-5" d="M125.86 145.7a207.44 207.44 0 0 0 24.41 1.13 54.88 54.88 0 0 0 11.21-1.35c3.7-.87 7 .43 10.77-.16a148 148 0 0 1 34.12-1.32l-.27-56.85c-.41-29.28-23.88-52.89-52.79-52.89s-52.38 23.61-52.79 52.89V144c8.48.12 16.9 1 25.34 1.7z"/><path class="cls-5" d="M111.52 70.38c3.46 2.88 5.78 6.86 7.87 10.79 2.28 4.31 4.39 8.77 7.56 12.51a33.94 33.94 0 0 0 11.84 9c9.09 4.17 19.24 4.08 28.56 7.33a31.94 31.94 0 0 1 10.75 6.54c4.1 3.65 7.39 8.09 11.63 11.6a34.58 34.58 0 0 0 16.6 7.38l-.23-48.35c-.41-29.28-23.88-52.89-52.79-52.89a52.8 52.8 0 0 0-48.46 32.33 22.83 22.83 0 0 1 6.67 3.76z"/><path d="M206.35 138.38a40.66 40.66 0 0 1-20.15-9c-7.34-6.16-12.27-14.6-22-17.35s-19.86-3.18-29.05-7.81c-5.09-2.56-8.77-8.21-13.72-11.48-5.71-3.74-12.8-5.2-19.43-6.74l-1.47-.32v56.42c8.47.15 16.91 1 25.35 1.73a207.44 207.44 0 0 0 24.39 1.17 54.88 54.88 0 0 0 11.21-1.35c3.7-.87 7 .43 10.77-.16a148 148 0 0 1 34.12-1.33z" fill="#89b1ef"/><path d="M188.6 149.25a105.51 105.51 0 0 0-20.43 2.45c-3.62.88-7.21 1.87-10.9 2.39a82 82 0 0 1-11.83.63c-15-.07-29.92-2.55-44.93-2.82v61.47h103.88l2-64.82c-5.25-.43-12.54.49-17.78.7" fill="#8cd7d0"/><path class="cls-8" d="M101 119.62l-.52 2.67v-9.68l11.62-.65.37 8 4.19 4.2.12-4.41s.75-6.1 4.74-5.3c0 0 3.74-.24 3.56 6.21l-.17 5.77 8.63-.44.11 6.12 6.33-.5.11-3.74 4.17-5.31 4.87.14.45 4.42 2.87.08.11-4.07 2.58.41-.14 4.06 5.16.14-.09 3.4 3.44.09.14-5.09 6 .17.4 6.13 5.16.14.93-2.35 3.72.11-.13 4.75 2.87.08.06 2.42 4.58.47-.21 2.67 6.32-.16 12.06.48.58 5.07-10.78-.07-14.73 3.35-12-1.05-14.66.61-20.68.43-8.64 1.29-25.36-1.74z"/><path class="cls-9" d="M205.73 146.29l-14.41-.06H184l-10.76.86-11.62 3-25 .43-14.62 2.6 3.07 16.53 14.63 5.16 6.67-2.15c5.82 1.13 14.75-3.15 19.63-6.53l1.46-1a21.56 21.56 0 0 1 10.85-3.8l5.24-.37a5.87 5.87 0 0 0 3.66-1.54 5.09 5.09 0 0 0 .57-.64 3.14 3.14 0 0 0-1.81-4.89c-3.52-.89-9.29-2.71-4-4.12a10.83 10.83 0 0 1 2.27-.34l22.1-.87z"/><path class="cls-10" d="M184.85 156.63a1.75 1.75 0 0 0-.17-2.1 2 2 0 0 1-.13-.25 3.17 3.17 0 0 0-1.41-.58 1.43 1.43 0 0 1-.56-.19c-3.68-1-8-3.79-1.06-4.86l24.7-.64-.27-1.83-16.46-.12h-7.32l-10.76.69-11.62 2.42-25 .35-19.21 3.13 7.32 12.91 17.45-1 5.45 1.29c5.82.91 13.47-1.15 18.35-3.86l1.46-.81a25.21 25.21 0 0 1 10.85-3.05l5.24-.29a7.38 7.38 0 0 0 2.75-.69c.16-.15.28-.31.4-.52z"/><path class="cls-11" d="M174.63 151.13q.56-.33 1.05-.69a5.52 5.52 0 0 0 1.42-1.19c.05-.1.35-1 .21-.88.73-.79 2.25-1 3.64-1l24.46-.29v-1.2l-17.75-.22-6.06.54-10.76.31-11.62 1.09-25 .16-29.17.77-.22 7.74 18.75 3.73 6.46 2.58c4.81-.45 9.84-1.34 13.38-4.63a9.75 9.75 0 0 1 6.8-2.68h.11a68.79 68.79 0 0 0 13.28-1.8l1.46-.36c2.46-.62 5.06-.47 7.52-1.07a7.65 7.65 0 0 0 2.04-.91z"/><path d="M207.67 152.72a7.59 7.59 0 0 1-.5-1.32c-1.89 0-3.78.09-5.66.22s-3.85.3-5.78.54c-6.65 2.38-.41 5.41 3.17 7.18 4.39 2.16 5 6.54 1.14 9.87-2.6 2.23-5.52 2.14-8.79 2.51-15.73 1.81 7.81 27-37.81 21l1.29-9.54-6.83 1.22 4.1 25.68 13.23-4.2 18.19 10.51 24.25-.64z" fill="#40bcb2"/><path class="cls-13" d="M135.63 212.74a5.48 5.48 0 0 1-.22.72l1.08 3.74-.25-4.46z"/><path class="cls-13" d="M98.8 141.31h13.31l.93 13.23 20.56.93.93 14.61 21.75 3.72 5.28 4.98 1.55 8.38-25.33 26.38-30.28.96-9.63-.62.93-72.57"/><path class="cls-14" d="M98.33 159.2h19.8l2.57 2.33.23 13.52 30.29 2.79.23 12.54-4.19 3.15-11.65 2.72-.23 8.86-2.41 2.25.15 1.55-.5-.53.04-7.86-.04-11.15-10.99-4.69-9.38-.04-.25-8.04-7.14-6.21h-5.45l-1.08-11.19z"/><path class="cls-14" d="M99.26 176.96l6.14-.11.21 8.07 11.82 5.04-.02 16.7-12.25-4.89-.47-8.24-6.05-.46.62-16.11"/><path class="cls-15" d="M98.64 177.84h2.33v3.42h-2.33zM100.97 187.63h-2.33v-3.42h2.33v3.42"/><path class="cls-14" d="M120.93 197.18h1.7v3.42h-1.7zM127.22 197.03h1.7v3.42h-1.7zM121.16 191.44h1.7v3.42h-1.7zM127.46 191.28h1.7v3.42h-1.7z"/><path class="cls-14" d="M116.84 194.62l16.02-.78.48 1.4-17.46.47.96-1.09zM116.35 200.21v1.4l16.63-.23-.08-1.4-16.55.23z"/><path d="M117.41 206.49v.15h.15l-.15-.1m-11.27-4.33l-4.92 7.59v3.14l16.17-6.24-11.25-4.49" fill="#ffd7a0"/><path class="cls-14" d="M108.69 200.35a1.91 1.91 0 0 1-1.9 1.66 1.79 1.79 0 0 1-.51-.07l-.14.22 11.25 4.49v-.15l-8.72-6.14"/><path class="cls-13" d="M183.46 204.12l-17.86-7.75V183c0-12.05-5.81-8.71-5.81-8.71l-4.09 4.91-.7 10.43h-1.44l-18 4.79.69 18.29 47.65-.23z"/><path class="cls-11" d="M145.32 66.14a7.11 7.11 0 1 1-7.1-7.1 7.1 7.1 0 0 1 7.1 7.1z"/><g clip-path="url(#clip-path)"><path class="cls-13" d="M135.38 192.98l17.61-1.73 32.84 2.97.43 42.99-16.76 1.12-34.12-45.35z"/><path fill="#ffd394" d="M135.34 192.94l.05 11.54-3.98.91.11 5.52 3.24.93v15.25l34.74 11.24-.25-19.99-3.5 1v-5l3-1.25.25-13.49-33.66-6.66z"/><path class="cls-11" d="M131.41 205.42l34.21 9.05v5l-34.13-8.59-.08-5.46zM168.75 212.47l-33.37-8.02v-11.47l33.49 6.62-.12 12.87z"/><path class="cls-11" d="M134.76 211.84l31.49 7.5 3-1v12l-34.74-10.37.25-8.13z"/><path class="cls-19" d="M140 204.72l3.62.86s.62-6.3-1.87-6.72c.01 0-2.37-1.01-1.75 5.86zM148.75 206.89l3.63.84s.62-6.2-1.88-6.63c0 0-2.37-.98-1.75 5.79zM157.75 208.74l3.62.86s.63-6.32-1.87-6.75c0 0-2.38-1-1.75 5.89zM134.82 210.09l-.87-.2v-2.24l.87.2v2.24zM137.97 211.09l-.87-.21v-2.24l.87.2v2.25zM141.34 211.92l-.87-.21v-2.24l.87.2v2.25zM144.57 212.8l-.88-.21v-2.24l.88.2v2.25zM147.91 213.85l-.88-.2v-2.24l.88.2v2.24zM151.17 214.64l-.88-.2v-2.25l.88.21v2.24zM154.43 215.27l-.87-.21v-2.24l.87.2v2.25zM135.51 212.69c2.54.29 5 .72 7.54 1.21s5 1 7.44 1.62 4.93 1.23 7.37 1.94 4.87 1.45 7.26 2.35c-2.54-.29-5.05-.72-7.54-1.21s-5-1-7.44-1.62-4.93-1.23-7.37-1.94-4.87-1.46-7.26-2.35z"/></g><path class="cls-20" d="M214.63 228.98H94.69v-7.76h119.94v7.76"/><path class="cls-9" d="M177.54 168.61s.86-3 8.18-3c0 0 4.3-.86 4.73-2.15l-.43 1.29s-.75 2.58-6.88 2a15.53 15.53 0 0 0-5.6 1.86zM172.81 168.83s0-1.94 2.69-3.23l1.83-.11s-3.66 1.29-4.52 3.34z"/><path class="cls-21" d="M204.09 107.82c-.18.26-1.05 3.63-1.35 4.06s1.47.94 1.47.94a17.68 17.68 0 0 0-1.85 2 39.25 39.25 0 0 0 .1 5.31l1.16 1-1.15.75 1.73 5.12s4.08-5 4-5.25a5.56 5.56 0 0 0-.56-.94s1.22-.48 1.39-1.17 1.42-3.76 1.42-3.76l.29-2.23"/><path class="cls-19" d="M208.88 86.38s-6.89-6.51-13.65-9.45-10.37-2.82-10.37-2.82-1.77 2.16-2.93 2.26.56-1-1.09-1.43-6.49 2.79-8.31 4.35-5.94 7.49-5.68 8 5-1.39 6.43-1.91 5.32-4.12 5.85-3.29-.73 2.32.37 2.36 5.18.57 5.18.57 5.31-2.21 5.37-1.2c0 .63-.55 1-.56 1.36a.49.49 0 0 0 .16.37c.64 1.32 3 5.92 6.37 7.53a15.8 15.8 0 0 0 4.39 1.37 45.62 45.62 0 0 0 6.4 5.17z"/><path class="cls-8" d="M204.35 82.57a45.14 45.14 0 0 1-5.45-1.82c-2.23-1-12.17-4.31-12.49-3.9s1.85 1.92.22 1.56a33.88 33.88 0 0 0-9 .2c-1.4.33-5.85 3.09-8.32 4.54l-.61.85c-1.11 1.61-2 3-1.83 3.25.25.46 5-1.39 6.43-1.91s5.32-4.12 5.85-3.29-.73 2.32.37 2.36 5.18.57 5.18.57 5.31-2.21 5.37-1.2c0 .63-.55 1-.56 1.36a.49.49 0 0 0 .16.37c.64 1.32 3 5.92 6.37 7.53a15.8 15.8 0 0 0 4.39 1.37 45.62 45.62 0 0 0 6.4 5.17l2.07-13.2s-1.85-1.73-4.55-3.81z"/><path class="cls-21" d="M212.69 94.26c-.33-.06-.68-.11-1-.15a26.5 26.5 0 0 1-9.86-3.21 27 27 0 0 0-.81 6.27c.1 2.69 2.57 6 2.57 6l-3.45-.78s2.21 7.77 6.91 11.17a9 9 0 0 0 6.07 1.54c-1.95-6.53-1.33-13.91-.43-20.84z"/><path class="cls-8" d="M197.28 91.22s-8.88 4.47-11.2 8.81a46.43 46.43 0 0 0-3.58 9.3s1.69.54 1.53 1.17-2.18 2.45-2.13 3.65 1.08 8.77 1.22 9.21.47 2.48 1 2.51.16.46.35 1 4.56 8 5.48 8 2.07-9.56 2.64-10.62-1.1-3.08-.56-3.11 3.64-1.65 3.63-2.92-.48-1.72.41-3.77 5.66-10.12 6.58-12.43 4.53-5.43 4.46-7.76-6.25-3.51-9.83-3.04z"/><path class="cls-19" d="M199.39 92.59c-1 .14-8.67-2.73-14-1.87s-8.7 1.94-8.48 3.18-2 1.7-2.72 1.2-5.26 4.2-6.12 5.75-4 11.44-4.1 11.91 7.91-6.1 8.25-6.41a26.27 26.27 0 0 0 1.61-3.29l2.75 1.24s5.89-3.63 8-4 9 .52 9 .52"/><path class="cls-8" d="M185.36 90.72c-1 .16-1.93.33-2.78.5a28.75 28.75 0 0 1 2.93.61c.8.25-2.62 1.4-2.62 1.4l4.06.52s-7 1.63-11.2 4a29.23 29.23 0 0 0-7.25 6l-2.3 2c-1.08 3.19-2.2 6.76-2.26 7-.09.46 7.91-6.1 8.25-6.41a26.27 26.27 0 0 0 1.61-3.29l2.75 1.24s5.89-3.63 8-4 9 .52 9 .52l5.88-8.27c-1.06.19-8.71-2.68-14.07-1.82z"/><path class="cls-8" d="M213.34 89.49l-9.06-4.67s-4.66 3.06-4.84 5.63-.74 8.62 4.58 9.31a32.25 32.25 0 0 0 8.06 0c.3-3.5.81-6.98 1.26-10.27z"/><path class="cls-19" d="M186.53 119s.75-8.16 1.62-10.87 2.72-6.59 2.72-6.59-1.65 5.92-2 7.2-2.34 10.26-2.34 10.26z"/><path class="cls-5" d="M201 109.3s-4.3 2.18-4.15 2.62 3.25-.23 3.25-.23"/><path class="cls-5" d="M200.81 109s-1 .53-2.09 1.12c-.53.3-1.05.61-1.46.89q-.3.21-.51.39l-.18.2a.56.56 0 0 0-.12.33v.16a.53.53 0 0 0 .22.26.81.81 0 0 0 .35.12 2.06 2.06 0 0 0 .36 0 12.29 12.29 0 0 0 1.75-.19c.56-.1 1-.2 1-.2l-.17-.74-1 .19a11.6 11.6 0 0 1-1.62.18h-.29v.11l.08-.09v.11l.08-.09-.17.2.24-.09-.07-.11-.17.2.24-.09-.29.1h.31v-.1l-.29.1H197l.23.1v-.1H197l.23.1h-.11l.1.07h-.11l.1.07a1.31 1.31 0 0 1 .23-.21 18.92 18.92 0 0 1 2.23-1.36l1.06-.57.45-.23-.34-.68zM180.58 103.41c0-.4.35-3.3.92-3.63s1.68 2.11 1.68 2.11"/><path class="cls-5" d="M181 103.45c0-.2.11-1 .26-1.81a8 8 0 0 1 .26-1.09 3.3 3.3 0 0 1 .15-.35l.06-.08v.1l-.07-.13v.14h.07l-.07-.13v.1-.2.1a1 1 0 0 1 .32.31 7 7 0 0 1 .63 1c.09.17.16.32.21.42l.08.17.69-.31a10.46 10.46 0 0 0-.57-1.11 5.81 5.81 0 0 0-.55-.79 1.87 1.87 0 0 0-.33-.3.72.72 0 0 0-.45-.16.63.63 0 0 0-.3.07 1.05 1.05 0 0 0-.35.38 3.93 3.93 0 0 0-.33.9 25.05 25.05 0 0 0-.44 2.63l.76.09zM189.09 87.72c.37 0 3.57-.55 4.26 0S190.93 90 190.93 90"/><path class="cls-5" d="M189 88.09h.1c.25 0 .66-.06 1.2-.11a15.25 15.25 0 0 1 1.66-.11 4.08 4.08 0 0 1 .75.05.83.83 0 0 1 .35.12l.06-.06h-.08l.06-.06h-.08.11-.12.11-.12l-.08.12a5.42 5.42 0 0 1-1.28 1l-.67.39-.28.15.34.68s.65-.33 1.3-.76a7.18 7.18 0 0 0 .91-.68 2.44 2.44 0 0 0 .34-.39.93.93 0 0 0 .18-.49.65.65 0 0 0-.23-.49 1.44 1.44 0 0 0-.72-.3 6 6 0 0 0-.88-.06c-.58 0-1.21.06-1.74.11s-1 .11-1.12.11l-.09.75z"/><path class="cls-19" d="M189.67 99.42a27.37 27.37 0 0 1 5.89-3.42s-3.31 5.24-3.38 5.54 4.47-4.87 5.73-5.19 2.6-1.13 4.68-.82c1.31.19 3.46 1.52 4.89 2.48a4.9 4.9 0 0 0 .38-2.21c-.29-2.8-6.86-4.8-10.58-4.58 0 0-8.84 4.57-10.84 9.62a41.42 41.42 0 0 0-1.19 3.51 36.53 36.53 0 0 1 4.42-4.93zM189.1 77.14s3.81 2.82 6 4.69 5.59 5.6 5.59 5.6-5.76-7.72-9.31-10"/><path d="M205.37 213H101.22V87a52.07 52.07 0 0 1 104.13 0v126M214 86.87a60.68 60.68 0 0 0-121.34 0v134.75H214V86.87" fill="#cdcdd7"/><path class="cls-13" d="M168.96 199.21v14.55l23.15.3-.06-19.3-9.5.36-13.59 4.09z"/><path class="cls-14" d="M168.86 212.47l23.14-5.61v2.37l-23.85 5.14.71-1.9z"/><path class="cls-14" d="M174.85 212.71h-2.72v-5.55l2.72-.63v6.18zM182.02 210.54h-2.71V205l2.71-.7v6.24zM188.81 209.07h-2.71v-5.55l2.71-.5v6.05zM101.3 141.31h3.63v20.37h-3.63z"/><path fill="#f9fafc" d="M101.3 141.31l9.15 1.44.87 13.34 20.65 1.07.65 13.78 24.32 4.73-.66-1.87-21.75-3.72-.93-14.61-20.56-.93-.93-13.23H101.3z"/><path class="cls-19" d="M113.9 164.05h2.58v4.73h-2.58zM113.9 171.8h2.58v4.73h-2.58zM107.01 164.05h2.58v4.73h-2.58z"/><path class="cls-24" d="M226.96 133.27h26.02v12.38h-26.02zM213.62 199.58h26.02v12.38h-26.02zM66.31 90.93h26.02v12.38H66.31z"/><path class="cls-24" d="M213.9 120.98h13.78v12.38H213.9z"/><path class="cls-13" d="M135.34 192.97l19.31-3.74 37.42 5.49-23.14 4.89-33.59-6.64z"/><path class="cls-9" d="M138.05 193.64l18.19-3.71-1.29-.97-19.57 4.02 2.67.66z"/><path class="cls-11" d="M159.57 194.48s-3.87.56-5.38-1.86l1.22-11.62s-.43-6.7 4.38-6.82z"/><path class="cls-9" d="M159.79 174.21s4 .55 4 5.5l.38 12.15 25.26 4.14 2.69-1.25-26.31-4.25-.43-11.31s-.86-7.13-5.59-4.98z"/><path class="cls-11" d="M155.43 182.12s4.63 1.25 8.5-.33v2.15s-3 1.62-8.85-.25z"/><path class="cls-11" d="M155.84 183.96l-1.54-.23v-2.01l1.54.23v2.01z"/><path class="cls-9" d="M167 183.41l-1.51.27v-2.01l1.45-.31.06 2.05z"/><path class="cls-10" d="M161.29 172.86a1.67 1.67 0 1 1-1.66-1.67 1.66 1.66 0 0 1 1.66 1.67z"/><path class="cls-10" d="M159.63 174.53a1.67 1.67 0 1 1 1.66-1.67 1.67 1.67 0 0 1-1.66 1.67z"/><path class="cls-11" d="M159.47 172.82a1.66 1.66 0 0 1 .8-1.42 1.67 1.67 0 1 0 0 2.84 1.66 1.66 0 0 1-.8-1.42z"/><path class="cls-9" d="M92.61 221.62l8.61-8.61h104.15l8.61 8.61H92.61"/><path class="cls-19" d="M93.88 203.66h1.05v2.7h-1.05z"/><path class="cls-25" d="M83.37 164.2l-7.5-.84L78 155.6c-.14-.11-3.21-.91-3.32-1.09-.95-1.66-2.84-1-3.63-2.73a1.45 1.45 0 0 1 1.23-2.15c3.83-.28 8.21-.92 11.2-3.55 2.23-1.94 1.47-4 1.68-6.6.16-2.09 1.47-3.83 1.79-5.89a1.34 1.34 0 0 1 .11-.37l-14.16 1-2.16 4.07-2.63.75c-5.41-1.05-5.41 2.26-5.41 2.26a3.51 3.51 0 0 0 2.3 4.38l.15 2.26c.63 7.55-6.06 12.69-6.06 12.69l-2.13 2.06L67 181.06l13.76 6.77 9-5.12 2.47-3.46-8.86-15.05"/><path class="cls-25" d="M83.37 164.2l-7.73-1.74.4 1.2a1 1 0 0 1-1-.69c-.33-1.14-.75-3.23-1.12-3.33-2.28-.63-3.52-2.49-4.93-4.25a13.74 13.74 0 0 0-4.17-3.73 16.16 16.16 0 0 1-5.79 9l-2.13 2.06L67 181.06l13.76 6.77 9-5.12 2.47-3.46-8.86-15.05M85.88 130.52l-10.95-8.25-9.3 15.6 1.21 2.64a6.39 6.39 0 0 0-3.89.84 27.32 27.32 0 0 0 1.55 3.94 1.62 1.62 0 0 1 .16.45 15.47 15.47 0 0 0 2-.29l-1.26 4.27v.89a19.76 19.76 0 0 1 5.46 2.5c1.5 1.05 2.81 3 4.6 3.68l-.21-.31c5.15 1.75 7.53-.27 7.53-.27l2.91-3.54c8.64-8.44.16-22.18.16-22.18"/><path class="cls-19" d="M102.25 244.38L96.87 188l-10.31-16.68c-1.81 4.64-6.27 5.09-11.48 5.09-5.55 0-10.25-2.4-11.81-5.69l-.26-.08-19.08 60.43-.74 7.05a18.39 18.39 0 0 1-.57 3c-.51 1.82-1.24 4.53-1.62 5.44-1.57 3.82 21.63 9.3 39.18 3.3 2.5-.86 6.14-.62 9.78-.39s7.42.47 10-.44c2.16-.76 2.7-2.2 2.31-4.68"/><path class="cls-9" d="M102.25 244.38l1.29-.12-5.41-56.69-11.83-19.14-.94 2.42a6.07 6.07 0 0 1-1.5 2.27 7.29 7.29 0 0 1-3.59 1.63 28.17 28.17 0 0 1-5.19.36 15.63 15.63 0 0 1-6.83-1.48 7.93 7.93 0 0 1-3.81-3.47l-.25-.52-.55-.17-.26-.07-1.22-.4-19.51 61.8-.75 7.2a17.76 17.76 0 0 1-.53 2.82c-.26.92-.57 2-.86 3.06-.14.5-.28 1-.41 1.36a9.2 9.2 0 0 1-.3.88 2.32 2.32 0 0 0-.17.87 2.36 2.36 0 0 0 .24 1 3.91 3.91 0 0 0 1.13 1.39 13 13 0 0 0 3.39 1.76 41.51 41.51 0 0 0 7.9 1.93 66.46 66.46 0 0 0 10.26.78 56.44 56.44 0 0 0 18-2.73 14.2 14.2 0 0 1 4.43-.54c3 0 6.61.43 9.88.43a16.68 16.68 0 0 0 5.46-.72 5 5 0 0 0 2.49-1.74 4.08 4.08 0 0 0 .62-1.34 5.61 5.61 0 0 0 .18-1.48 10.57 10.57 0 0 0-.13-1.55l-1.28.2 1.29-.12-1.29.12-1.29.2a7.6 7.6 0 0 1 .11 1.15 3.49 3.49 0 0 1-.09.81 1.57 1.57 0 0 1-.41.71 3 3 0 0 1-1.06.59 14.31 14.31 0 0 1-4.6.58c-3 0-6.63-.43-9.88-.43a16.7 16.7 0 0 0-5.27.67 54 54 0 0 1-17.17 2.6 59 59 0 0 1-14.87-1.8 20.21 20.21 0 0 1-4.41-1.67 4.22 4.22 0 0 1-1-.73.52.52 0 0 1-.12-.16l-.14.1h.22v-.08L42 247h-.08l.28.11V247h-.3l.28.11c.12-.29.24-.65.38-1.08.4-1.27.91-3.14 1.29-4.5a19.81 19.81 0 0 0 .61-3.25l.72-6.92 19-60.3-1.18-.42-.36 1.25.25.07.37-1.24-1.18.55a10.46 10.46 0 0 0 5 4.69 18.18 18.18 0 0 0 8 1.74 23 23 0 0 0 7.44-.87 8.82 8.82 0 0 0 3.1-1.8 8.56 8.56 0 0 0 2.15-3.24l-1.21-.47-1.1.68 10.14 16.42 5.4 56.12 1.29-.2"/><path d="M67 172.48l.24.59.1.06-.34-.65" fill="#695950"/><path class="cls-27" d="M68.41 176.53a64 64 0 0 1 2.2 10.85 29.74 29.74 0 0 1 1.26 4.25l.51-.08a63.35 63.35 0 0 0-3.48-14.85l-.49-.17"/><path class="cls-20" d="M67.24 173.07c.41 1.07.8 2.22 1.17 3.46l.49.17c-.51-1.32-1-2.5-1.56-3.57l-.1-.06"/><path class="cls-27" d="M72.81 209.21a6.74 6.74 0 0 1-2.78 2.3l-2.86 21.24s.21 2.37-4.27 2.37h-1.35l-16.82.79-.25 2.38a19.81 19.81 0 0 1-.61 3.25c-.1.36-.21.75-.33 1.16l20-1.53c5.82-.69 5.48-2.4 5.48-2.4l3.84-29.52"/><path class="cls-20" d="M44.73 235.87l-1.28.07-.31 3.53-1 3.3 1.38-.11c.12-.41.23-.8.33-1.16a19.81 19.81 0 0 0 .61-3.25l.25-2.38"/><path class="cls-28" d="M61.2 163c3.79 3.95 10.7 14.61 10 39.44a2.11 2.11 0 0 1 0 .25l-4 30.07s.24 2.74-5.35 2.33a1.22 1.22 0 0 0-.27 0l-19.46.91h-4.3a2.28 2.28 0 0 1-2.26-2.6l5.08-37.19a2.13 2.13 0 0 1 .23-.74l16.64-32a2.29 2.29 0 0 1 3.69-.47"/><path class="cls-29" d="M55.84 181.42l-.48 4.41-6 8.83-1.19 3.71a4.2 4.2 0 0 1-2.11 5.63s1.19 3-1.43 4.41l-.72 9.76 4.77 3.94.72-10.22 2.6-7.71.72-10.92 6-7.66-2 .46-.84-4.64"/><path class="cls-21" d="M45 199.47l19.47 9 5.57-3 3.65 2.09s-2.18 8.17-14.71 2.93l-13.32-2.6-.66-8.42"/><path class="cls-25" d="M27.81 206.5a13.74 13.74 0 0 1 10.19-.4 15.22 15.22 0 0 0 5.87.74l1.4.16-1.27 5.92-8.09 1.35-8.06-7.77"/><path class="cls-28" d="M59.06 160.63l-14.31 5.23s-3.94 1-6.8 9.75l-7.16 21.6s-3.94 0-1.55 3L27.33 203s-2.86 1.39.48 3.48c0 0 5.72-3.95 16.94 2.56 0 0 2.86-1.86.47-3.72 0 0 2.87-2.32 2.87-4.18V197l3.58-4.64s4.53-6 4.77-9.06l2.62-22.65"/><path class="cls-25" d="M106.28 201.94l-5.7 8.81-1.5-7.95 3-6.9 4.2 6.04"/><path class="cls-21" d="M106.28 201.94l-5.7 8.81-1.5-7.95 3-6.9 4.2 6.04"/><path class="cls-29" d="M44 198.14s-14.55.47-12.17 2.56l5.49 1.16s-12.55 0-5.16 3.49l-4.38 1.15s-3.1-2.55-.48-3.48l1.91-2.79s-2.15-2.78 1.55-3l13.24.93"/><path d="M94.32 209s-8.29 30.27-24 41.76a47.59 47.59 0 0 0 9.48-2.13A16.7 16.7 0 0 1 85 248c3.23 0 6.81.43 9.85.43H95a14.2 14.2 0 0 0 4.54-.58 3 3 0 0 0 1.06-.59 1.57 1.57 0 0 0 .41-.71 3.49 3.49 0 0 0 .09-.81 7.6 7.6 0 0 0-.11-1.15l1.29-.2-1.29.2-1.31-13.67-.72-.18a15.29 15.29 0 0 1-2.34.22h-.42a1.29 1.29 0 0 1-1.2-1.32c0-2.76-.09-10.92-.31-19.52l-.37-1.12" fill="#5a5b72"/><path d="M99.65 230.87l1.35 13.67 1.29-.2-1.29.2a7.6 7.6 0 0 1 .11 1.15 3.49 3.49 0 0 1-.09.81 1.57 1.57 0 0 1-.41.71 3 3 0 0 1-1.06.59 14.2 14.2 0 0 1-4.54.58h-.09c-3 0-6.62-.43-9.85-.43a16.7 16.7 0 0 0-5.27.67 47.59 47.59 0 0 1-9.48 2.13 24.25 24.25 0 0 1-2.65 1.7c.84-.22 1.68-.42 2.51-.69a8 8 0 0 1 3.36-.27l9-2.48 15.19.31h.1a4.81 4.81 0 0 0 4.73-5.68l-2.4-12.64-.51-.13" fill="#dddde5"/><path class="cls-28" d="M100.13 205.5a42.9 42.9 0 0 1 .15-5.55c-.19-.72-1.48-1.18-1.52-1.95a8.92 8.92 0 0 1 2.86-6.77l-.56-14.94a14.6 14.6 0 0 0-4.72-11.58c-5-4.58-9.85-2.17-11.46-2.11l-6.65.42s14.22 14.84 15.41 26c1.07 10 1.3 35.33 1.34 40.64a1.29 1.29 0 0 0 1.22 1.26 13.63 13.63 0 0 0 2.73-.21l2.2.55a1 1 0 0 0 .8-1.15l-1.8-24.59"/><path class="cls-29" d="M67.43 210.3l-9 9.15-2.85 2.7-10.5 10.19 1.45 3.37-8.72.22a2.21 2.21 0 0 1-2.25-2.52l1-6.91 21.6-13.2 8.62-5.85z"/><path class="cls-25" d="M65.78 203.1c-.68.37-2.35.76-3.07 1.05 2.19-.13-2.72.91-2.77 1a101 101 0 0 0-18.08 7.75l-14-6.38a76.48 76.48 0 0 0 2.38 16.26s1.19 7.8 11.15 4.48c0 0 15.07-6.07 25.42-19.79l-1.46-2.09c-.72-.75 1.06-1.36.48-2.26"/><path class="cls-21" d="M81.49 123.2l-5.55-2.29-9.3.62c-3.74.42-6 1.76-7.36 3.16v.2a57.21 57.21 0 0 0 .51 8.06 13.73 13.73 0 0 1 .24 2.16l4.31 5.38c8.1 6.82 15.52-12.07 15.52-12.07 6.07 1.12 8.25 7.06 8.25 7.06l-.4-4.39.56-5.12c.14-3.46-6.8-2.77-6.8-2.77"/><path class="cls-21" d="M73.41 136.1a8 8 0 0 1 2.41-2.1c1.13-.41 2.27.35 2.24 1a1.4 1.4 0 0 1-.8 1.06 28.21 28.21 0 0 1-3.64.66c-.24-.01-.21-.62-.21-.62zM87.79 134.46c-.33-.27-.18-.47-1.82-1.2s-2.23-1-2.73-.77-.77 1.51-.24 1.91a10.29 10.29 0 0 0 4 .74c.83-.14.79-.68.79-.68zM78.23 141.76s.3-2.33-1.3-2.86-3 .52-4.32.07a3.71 3.71 0 0 1-1.69-1 2.58 2.58 0 0 0 1.49 1.9c1.25.44-.37 2.06 1.92 2.61"/><path class="cls-9" d="M78.19 141.59a2 2 0 0 0-1.46-1.89c-1.53-.48-3.1-.15-3.22 1.21s.42 1.86 2.73 1.77 1.95-1.09 1.95-1.09z"/><path class="cls-21" d="M83.1 141.8s-.6-2.06.74-2.77 2.77 0 3.86-.57a3.46 3.46 0 0 0 1.36-1.12 2.37 2.37 0 0 1-1 1.94c-1.05.58.62 1.81-1.34 2.64"/><path class="cls-9" d="M83.11 141.64a1.8 1.8 0 0 1 1-1.93c1.29-.65 2.73-.58 3 .63s-.1 1.75-2.17 2-1.83-.7-1.83-.7z"/><path class="cls-21" d="M75.4 142.66a1.33 1.33 0 0 1 0-1.76 1.51 1.51 0 0 1 2.48.15 1.89 1.89 0 0 1 .25 1.2 4.42 4.42 0 0 1-2.73.41zM85.18 142.41a1.2 1.2 0 0 1-.45-1.17c.14-.76.45-1.05 1.3-1.24s1.33 1.1 1.2 1.67a7.06 7.06 0 0 1-2.05.74z"/><path class="cls-9" d="M81.88 151.12s-6.82-3.45-7.15-3.28.45 5.64 7 4.57c-.01 0 .14-.92.15-1.29z"/><path class="cls-32" d="M83.44 143.93c-.58-.22-.17 1.93 0 2.35s2.12-.79 2.12-.79a11.79 11.79 0 0 0-2.12-1.56z"/><path d="M85.52 145.49a14.23 14.23 0 0 1-3.43 1l-2.89.09a4.51 4.51 0 0 0 3.8 1.5c2.3-.27 2.81-2.6 2.52-2.59z" fill="#6d503b"/><path d="M75.35 146.47s-1.34.56-1.58 1.25a3.43 3.43 0 0 0 .37 1.94s.14-1.9.92-2.12c.54-.15.29-1.07.29-1.07z" fill="#57422f"/><path class="cls-32" d="M82.85 156.16a11.24 11.24 0 0 1-5.36.52 19.93 19.93 0 0 1-5.58-1.68 10 10 0 0 0 6 2.93c3.88.53 4.94-1.77 4.94-1.77z"/><path class="cls-35" d="M78.86 126.28s-2.58 4.69-6.62 6.4c0 0-9.91 5.19-7.36 13.58.32 1 .6-.3-.6-.6 0 0-6.22-3.15-5.82-6.7 0 0-3.61-1.79-3.21-4.81 0 0-4.11-16 14.49-20l6.79-.5S88.71 111.58 89 124.1c0 0 .61 3.14-1.21 9 0 0-2.67-5.74-8.91-6.86"/><path class="cls-35" d="M78.89 126.42l.08-.14c6.24 1.12 8.93 6.86 8.93 6.86 1.82-5.9 1.19-9 1.19-9-.27-12.52-12.45-10.43-12.45-10.43h-.14a14.11 14.11 0 0 1 2.39 12.74"/><g clip-path="url(#clip-path-2)"><path fill="#d0eceb" d="M87.92 124.1h1.82v9.02h-1.82z"/></g><path d="M79.52 122.3a13.39 13.39 0 0 1-.1 1.65 7.92 7.92 0 0 0 .1-1.69m-1.11-5.76h-.2a14 14 0 0 1 1.3 5.43c9.82 3.46 8.69 10 8.43 11A29.41 29.41 0 0 0 89 128a7.71 7.71 0 0 0-.09-.94c-.2-9.39-7.09-10.56-10.53-10.56M76.47 113.64l.09.12-.09-.12" fill="#23b2a6"/><path class="cls-39" d="M79.5 122V122.01"/><path class="cls-40" d="M87.91 133.11"/><path d="M87.82 133l.09.15a.91.91 0 0 0-.08-.16m-9-6.7l-.29.47a4.18 4.18 0 0 1-.28.56s5.56.5 8.9 4.8A12.85 12.85 0 0 0 79 126.3l-.07.12a.65.65 0 0 1 0-.13h-.07" fill="#0e0e2e"/><path class="cls-39" d="M79 126.28a12.85 12.85 0 0 1 8.23 5.81c.21.29.42.58.62.9-.49-.94-3.23-5.69-8.85-6.7m.45-2.28a8.93 8.93 0 0 1-.49 1.75 6.68 6.68 0 0 1-.36 1l.29-.47h.07a14.47 14.47 0 0 0 .49-2.29"/><path class="cls-39" d="M79 126.28l-.08.14.07-.12c5.62 1 8.36 5.76 8.85 6.7a.91.91 0 0 1 .08.16c-.16-.34-2.89-5.74-8.94-6.83"/><path d="M87.94 133v.1a.58.58 0 0 1 0-.1" fill="#a7bec6"/><path d="M79.51 122v.33a7.92 7.92 0 0 1-.1 1.69 14.07 14.07 0 0 1-.53 2.42l.08-.14c6 1.09 8.78 6.49 8.94 6.83v-.1c.26-1.07 1.39-7.58-8.43-11" fill="#1c8f8c"/><path class="cls-40" d="M58.46 139v0m-3.41-6l-.06.14.2 1v.23a2 2 0 0 1 0-.23s-.1-.41-.2-1.11m9.56-17.25c-6.41 2.8-8.73 7.47-9.46 11.4.73-3.93 3.05-8.6 9.46-11.4m.08 0h-.08.08m.07 0h-.06.06M72.95 114.24l-3.89.29 3.89-.29"/><path class="cls-39" d="M73.63 113.88l-3.89.29h-.27a26.65 26.65 0 0 0-4.11 1.25h-.57c-6.41 2.8-8.73 7.47-9.46 11.4a18.27 18.27 0 0 0-.1 5.83c.1.7.2 1.11.2 1.11a2 2 0 0 0 0 .23v.05c-.15 2.85 3.22 4.53 3.22 4.53v.33c0 2.09 2.18 4 3.88 5.18a3.11 3.11 0 0 1-.06-1.36v-.39c.57-7.21 4.92-10.06 6.93-11a12.09 12.09 0 0 0 3.21-2.12 11.81 11.81 0 0 0 3.44-5.42 19.82 19.82 0 0 1-7.38 5.29c-3.58 1.28-6.39 4.26-8.09 6.51-2.32-1.24-1.16-3.13-.9-3.81a15.91 15.91 0 0 1 6.1-4.13 9.51 9.51 0 0 0 2.69-1.59 25.09 25.09 0 0 0 2.26-2.23l-3.83 1.87a16.89 16.89 0 0 0-5.57 1.37c.66-.45 1.63-.8 1.37-1.4-2.84-6.49 4.71-9.45 11.15-12.18"/><path class="cls-25" d="M66.76 141s-4.35-1-4.5 2.1c0 0-.67 3 3.07 3.75l1.5-1.2-.07-4.65"/><path class="cls-21" d="M69.13 146.44h.06a2.12 2.12 0 0 0-.07-1.87c-.17-.31-.45-.53-.64-.83-.58-.89 0-1.76.8-2.23l-2.47-.31a5.67 5.67 0 0 0-.28 2 3 3 0 0 0 1.18 2c.4.32 1.45.61 1.42 1.24z"/><path class="cls-29" d="M45.05 165.86s-3.94 1-6.8 9.75l-7.16 21.6a4.11 4.11 0 0 0-1.66.37c.91.09 1.82.21 2.73.33s2 .19 3 .28c.44-.06.88-.14 1.31-.22l4.88-.27 1.26-18.19c2.86-8.71 6.8-9.75 6.8-9.75l12.86-5.84-2.9-3.29-14.31 5.23"/><path class="cls-25" d="M70 191.91l5.85-.88s5.05-.17.92 2.18l-4.64 3.17-2-1.74-.13-2.73"/><path class="cls-44" d="M76.07 191h-.22l-3.47.52-.51.08c.08.39.14.76.2 1.1l1.84-.09a1.05 1.05 0 0 1 .33-.06c.67 0 1 .81 1.22 1.52l1.31-.89c1.2-.68 1.63-1.15 1.63-1.48 0-.64-1.71-.7-2.33-.7"/><path class="cls-8" d="M48.41 164.7c1.54.7 5 3.06 7.94 10.71 0 0 10.74 20 14.62 22.15l1.18-.63s.9-3.53-1.89-10.45l-9-16.4s-5.26-9.81-9.08-8.75l-3.8 2.6a.45.45 0 0 0 .07.77"/><path class="cls-25" d="M102.06 187l-5.3 1s-4.4 1.39-.12 2.15l5 1.32 1.15-2.09-.68-2.41"/><path class="cls-44" d="M99.73 187.46l-3 .57s-2 .63-2 1.27c0 .32.47.63 1.87.88l1.39.37c-.06-.77 0-1.73.88-1.73l1.39-.41-.58-.95"/><path class="cls-8" d="M104.52 191.35v-.06A2.71 2.71 0 0 1 105 189c-1.66-3.51-11.23-19.52-11.23-19.52s-5.85-10.92-10.27-8.5l-2.91.48c-.29 0-.34.66-.07.81 2 1.14 4.51 1.89 10.31 11.11 0 0 9.17 14 12.26 19.77a10 10 0 0 1 1.44-1.83"/><path class="cls-25" d="M65.03 202.42l-16.04 6.83 5.7 9.67 8.73-5.82 6.13-4.28-4.52-6.4"/><path class="cls-29" d="M30.24 204c-.72.06 1.43-1.42.73-1.58a6.13 6.13 0 0 1-2.16-1.13L27.63 203s-2.86 1.39.48 3.48c0 0 2.06-1.23 12.85.57l-7.07-2.94c-.29-.36-1.34-.25-2.24-.14s-1.4.2-1.41 0"/><path class="cls-45" d="M64.58 202.6l-6.8 2.79.13.06 6.67-2.84v-.01"/><path class="cls-46" d="M50 208.73l-.87.46 1.01-.43-.14-.03"/><path fill="#5b443a" d="M57.78 205.39l-6.47 2.66-1.31.68.14.03 7.77-3.31-.13-.06"/><path class="cls-46" d="M49 209.26l-.64.33.66-.3"/><path class="cls-48" d="M49 209.29l-.66.3-3.94 2.06-2.17 6.15 3.15-4.65L50 211l-1-1.7M64.58 202.61l-6.67 2.84-7.77 3.31-1 .43-.13.07 1 1.7 3.25-1.52 11-4.43a4.83 4.83 0 0 1 .1-1.56l.21-.87"/><path class="cls-25" d="M71.71 192.75l-4.13.6-2.39 1.55s-1.53.43-.26 3.31l.28 1.72-.84 3.55a4.73 4.73 0 0 0 .28 3c.9 2 2.92 4.91 6.48 2.4l5.59-4.31s3.25-1.56 0-3l1.13-.5s2.22-2.21-.86-3.06c0 0 1.28-2.66-1.38-2.84 0 0-.25-3.08-1.74-2.55l-2.2.11"/><path class="cls-49" d="M75.49 194.21a8.44 8.44 0 0 1 .16.94l-.19-.94"/><path class="cls-48" d="M75.49 194.22l-5.36 1.27s-4 .9-1.69 1.26l3.13-.64 4.08-1a8.44 8.44 0 0 0-.16-.94"/><path class="cls-49" d="M77.4 197.31h-.14a3.59 3.59 0 0 1-.19.6l.33-.62"/><path class="cls-48" d="M77.26 197.33l-2 .34-5.91 2.33s-2.91 1.48-1.25 1.76l4.19-1.7 4.7-2 .08-.15a3.59 3.59 0 0 0 .19-.6"/><path class="cls-49" d="M77 201.68l.31.16h.1a1.59 1.59 0 0 0-.41-.15"/><path class="cls-48" d="M76 201.58a8.35 8.35 0 0 0-3.29.78l-2.49 1.56v.91l2.78-1.08 3-1.67 1.27-.24-.31-.16a4.32 4.32 0 0 0-1-.1"/><path class="cls-25" d="M109.53 195.48l.07-.22c.07-.23.21-.76.21-.79a2.27 2.27 0 0 0-.55-1.29l-.64-.74-.29-1.56c.22-2.86-1.23-2.77-1.23-2.77l-2.52-.6-3.73.74-1.93.57c-1.44 0-.72 2.73-.72 2.73-2.24 1-.32 2.85-.32 2.85-2.39 1.67.19 2.9.19 2.9l1.12.08c-2.33 2.19.94 2.54.94 2.54l6.12 2a1.91 1.91 0 0 0 2.42-1.64 15.69 15.69 0 0 1 .83-4.82"/><path class="cls-45" d="M98 190.66l.12.86c0-.1-.1-.45-.15-.86"/><path class="cls-48" d="M104.53 190c-.68 0-1.5.09-1.5.09l-5 .54c0 .41.13.76.15.86l3.8-.42 2.88-.41c1-.54.42-.66-.34-.66"/><path class="cls-45" d="M97.46 193.88h-.12l.47.43a5.23 5.23 0 0 1-.35-.45"/><path class="cls-48" d="M99.31 193.55l-1.85.33a5.23 5.23 0 0 0 .35.45l.11.1 4.65.28 4.12.18c1.34-.74-1.61-1.13-1.61-1.13l-5.77-.21"/><path class="cls-50" d="M99.05 197.53a1.4 1.4 0 0 0-.3.23h.08l.22-.23"/><path class="cls-45" d="M98.75 197.76"/><path class="cls-48" d="M102.19 196.79a5.5 5.5 0 0 0-3.14.74l-.22.23 1.17-.19 3 .54h2.79l-.32-.76-2.61-.58h-.72"/><path class="cls-50" d="M29.48 219.79v.11c.55 6.23 3.66 7.59 5.21 7.88a6.49 6.49 0 0 1-4.51-5s-.31-1.06-.71-3M28 209.08v1.07l.18 1.16c-.07-.72-.14-1.46-.2-2.23"/><path class="cls-48" d="M31.45 206.09a17.21 17.21 0 0 0-1.83.09h-.25l-1.45.32 7 3.17c.46-1.68.91-2.95 1.06-3.35a44.4 44.4 0 0 0-4.5-.28M27.92 206.55v2.53c.06.77.13 1.51.2 2.23l1.31 8.48c.4 1.91.71 3 .71 3a6.49 6.49 0 0 0 4.51 5 3.91 3.91 0 0 0 .76.08h.12c-1.19-1.2-.65-3.26-.85-4.62a14.58 14.58 0 0 0-.62-2.69c-1-2.94-.1-7.63.78-10.83l-7-3.17"/><path class="cls-46" d="M31.18 206a8.17 8.17 0 0 0-1.56.15 17.21 17.21 0 0 1 1.83-.09 44.4 44.4 0 0 1 4.5.28v-.13l-4.11-.18h-.71"/><path class="cls-50" d="M61.52 158.17l-.73.83c.23-.25.48-.53.73-.83"/><path d="M65 151.22a10.68 10.68 0 0 1-.33 1.14c-.21.59-.41 1.18-.6 1.71a20 20 0 0 0 .83-2.41c0-.15.07-.3.1-.45" fill="#897261"/><path class="cls-48" d="M62.13 157.45a2.69 2.69 0 0 1-.27.32l-.34.4c-.25.3-.5.58-.73.83l-.65.74a15.12 15.12 0 0 0 2-2.29m2.95-10.64l.07.55a11.13 11.13 0 0 1-.2 3.86c0 .15-.06.3-.1.45a11.43 11.43 0 0 1 2.54 1.89 18.56 18.56 0 0 0 .06-2.21c-.66-.26-1.34-.49-2-.71v-.89l.78-2.65-.82-.25-.25-.05"/><path class="cls-48" d="M64.85 151.66a20 20 0 0 1-.83 2.41 11.36 11.36 0 0 1-1.88 3.34 15.12 15.12 0 0 1-2 2.29l-.78.89 3 3.18 2.36-3.15a13.07 13.07 0 0 0 2.66-7.1 11.43 11.43 0 0 0-2.54-1.89M66.17 147.1l-.78 2.65v.89c.68.22 1.36.45 2 .71a18.88 18.88 0 0 0-.55-4l-.73-.22M65.08 146.77l.25.05-.27-.08"/><path class="cls-11" d="M64.85 145.75a3.94 3.94 0 1 1-4.47 3.9 4.24 4.24 0 0 1 2.54-3.73l-.35-.83a5.11 5.11 0 0 0-3.09 4.56 4.84 4.84 0 1 0 5.52-4.79l-.12.89z"/><path d="M76.59 113.81a15.47 15.47 0 0 1 1.62 2.73 15.47 15.47 0 0 0-1.62-2.73m0 0" fill="#47bfb5"/><path d="M78.55 113.54c3.44 0 10.34 1.17 10.54 10.56A13.56 13.56 0 0 1 89 128v.05a13.61 13.61 0 0 0 0-4c-.2-9.39-7.1-10.56-10.54-10.56" fill="#d8f0ef"/><path d="M78.55 113.54a11.86 11.86 0 0 0-1.86.13h-.19l.09.12a15.47 15.47 0 0 1 1.62 2.73h.2c3.44 0 10.33 1.17 10.53 10.56a7.71 7.71 0 0 1 .06.92 13.56 13.56 0 0 0 .06-3.94c-.2-9.39-7.1-10.56-10.54-10.56" fill="#5fc7be"/></svg>