<svg id="Layer_1" data-name="Layer 1" xmlns="http://www.w3.org/2000/svg" viewBox="0 0 300 300"><defs><style>.cls-1{fill:none}.cls-3{fill:#8f90a0}.cls-4{fill:#68697f}.cls-7{fill:#fff}.cls-8{fill:#cddff8}.cls-9{fill:#9dc0f2}.cls-10{fill:#6d9feb}.cls-13{fill:#e18b96}.cls-14{fill:#d1435b}.cls-17{fill:#84acec}.cls-18{fill:#c6d9f6}.cls-20{fill:#be7d92}.cls-22{fill:#eaeaee}.cls-23{fill:#737486}.cls-24{fill:#cdcdd6}.cls-25{fill:#adb8d1}.cls-26{fill:#8ba1cc}.cls-27{fill:#6a8ac6}.cls-29{fill:#99657b}.cls-34{fill:#f1f2f8}.cls-38{fill:#cdcdd7}.cls-45{fill:#1d1e40}.cls-48{fill:#444560}.cls-49{fill:#060614}.cls-51{fill:#575870}.cls-55{fill:#752639}.cls-56{fill:#141536}.cls-57{fill:#0c0c25}.cls-58{fill:#343553}.cls-59{fill:#17183b}.cls-67{fill:#b4e4e1}.cls-68{fill:#a5b4d0}.cls-71{fill:#a8364d}.cls-73{fill:#798cb5}.cls-74{fill:#922f44}.cls-77{fill:#6e86b5}.cls-78{fill:#4c6fb0}.cls-82{fill:#9d6170}.cls-86{fill:#26273c}.cls-89{fill:#3e4c72}.cls-95{fill:#583746}.cls-101{fill:#5c394b}.cls-102{fill:#c2c3d1}.cls-105{fill:#6797e5}.cls-111{fill:#f1dfca}.cls-112{fill:#ffebd0}.cls-122{fill:#c2c3d0}.cls-124{fill:#a5a5b5}.cls-130{fill:#ffc8ba}.cls-131{fill:#ff7b59}.cls-135{fill:#bebbcd}</style><clipPath id="clip-path"><path class="cls-1" d="M239.58 150.32l-39.5-8.5a1.33 1.33 0 0 1-1-1.59l1.66-7.75a1.36 1.36 0 0 1 1.6-1l39.5 8.5a1.35 1.35 0 0 1 1 1.6l-1.67 7.75a1.34 1.34 0 0 1-1.59 1"/></clipPath><clipPath id="clip-path-2"><path class="cls-1" d="M168.93 166a16.82 16.82 0 1 1-16.82-16.82A16.82 16.82 0 0 1 168.93 166"/></clipPath></defs><path d="M265 137.86A111.79 111.79 0 1 1 153.21 26.08 111.79 111.79 0 0 1 265 137.86" fill="#d0d0d7"/><path class="cls-3" d="M260.7 137.86A107.49 107.49 0 1 1 153.21 30.38 107.48 107.48 0 0 1 260.7 137.86"/><path class="cls-4" d="M46.5 97.76l-.2.37c-.12.34-.25.68-.38 1l1 3.92c.18-.55.36-1.1.55-1.65l-1-3.66"/><path d="M47.5 101.42c-.19.55-.37 1.1-.55 1.65l2.12 8.08c.17-.67.35-1.35.54-2l-2.11-7.71" fill="#55566b"/><path d="M49.61 109.13c-.19.67-.37 1.35-.54 2l25.82 98.33 7.11-1.85c0-.23.12-.59.23-1.05l-5.61 1.54-27-99" fill="#3a3b50"/><path class="cls-7" d="M180.09 179.83L76.65 208.09 42.44 82.88l103.44-28.26 34.21 125.21"/><path class="cls-8" d="M175.61 176.65l-96.66 26.4L46.87 85.64l96.66-26.4 32.08 117.41"/><path class="cls-9" d="M47.31 85.8l32 116.53 31-8.49a7.1 7.1 0 0 0 .42-1.08 11.55 11.55 0 0 0 .29-3.74c-.18-4.78-.52-9.66-2.69-13.91a14.84 14.84 0 0 0-12-8.21 8.16 8.16 0 0 1-.6-7.23 16.68 16.68 0 0 0 10.5 2.58 14.17 14.17 0 0 0 9.8-5.1c3.19-4.25 2.24-9.65 0-13.94a32.74 32.74 0 0 0-16.87-14.87A3.94 3.94 0 0 1 97 127c-.66-1.18.42-2.62 1.37-3.77 3-3.66 5.53-8.48 3.26-12.14-.83-1.34-2.2-2.34-3.11-3.63-1.65-2.35-1.58-5.37-1.45-8.23s.25-5.87-1.32-8.25-5.51-3.74-8.33-2c-1.31.8-2.32 2.17-3.86 2.36s-2.6-.84-3.66-1.86-2.34-2.32-3.9-1.82c-1.82.56-2.66 3-4.53 3a2.83 2.83 0 0 1-1.92-1c-2.77-2.72-4.73-6.56-8.92-7.37l.08-.15-13.4 3.66"/><path class="cls-10" d="M64.81 110.63l5.14-8.64 7.96 4.76 2.46-4.72 4.6 3.07-20.16 5.53z"/><path class="cls-8" d="M71.34 133.4l4.76-7.95 4.82 3.88 1.83-2.81 4.18 2.61-15.59 4.27z"/><path class="cls-10" d="M91.64 150.67l3.55-7.05 6.05 4.13-9.6 2.92"/><path class="cls-8" d="M70.1 111.49l3-4.87 4.8 2.73-7.8 2.14z"/><path class="cls-9" d="M149.72 82.48l-2.28-8.29a14.85 14.85 0 0 1-2.21 7.62 15.06 15.06 0 0 1-11 6.9 6.24 6.24 0 0 0-3 .71 4.47 4.47 0 0 0-1.47 2.28 15.91 15.91 0 0 0 .24 11.07 2.84 2.84 0 0 1 .32 1.7 2.05 2.05 0 0 1-1.18 1.22c-2.92 1.43-6.35-.4-8.94-2.38s-5.41-4.31-8.65-3.93c-3.54.43-5.94 4.26-5.83 7.83s2.13 6.81 4.46 9.51c1.28 1.48 2.78 3.38 2 5.18-.48 1.1-1.67 1.69-2.35 2.68l7.71 8.55a15.6 15.6 0 0 1 4.63 8.67q2.84 10.8 5.65 21.59c.12.45.29 1 .72 1.11a1.35 1.35 0 0 0 1-.17 14.2 14.2 0 0 0 8-12.18c0-.91.2-2.14 1.11-2.24a1.77 1.77 0 0 1 1.18.44c4.38 3.15 7.52 7.85 12.12 10.66 3.69 2.24 8 3.09 12.26 3.9 2.68.52 5.74.94 8-.39l-21.43-78.16a31.4 31.4 0 0 1-1.06-3.88"/><path d="M99 122.42c-.2.26-.41.52-.62.77-1 1.15-2 2.59-1.37 3.77a3.94 3.94 0 0 0 2.08 1.38l1.43.62a24 24 0 0 0-1.52-6.54m-.19-14.62c.69.85 1.55 1.6 2.25 2.44l.49-.16.9-.23-.1-.11a1.73 1.73 0 0 1-.43-1h-.07a1.51 1.51 0 0 1-1-.35 1.85 1.85 0 0 1-.48.07 2.64 2.64 0 0 1-1.61-.62m5.44-2.38l-2.8.7a2 2 0 0 1 .31.76 1.45 1.45 0 0 1 .65.5l.13.21.14-.07a1.85 1.85 0 0 1 .74-.15 2.67 2.67 0 0 1 1.4.43l-.58-2.4" fill="#ebf2fc"/><path d="M79.11 175.05a22 22 0 0 0 1.39 5.09 9.69 9.69 0 0 0 3.55 4.57 6.24 6.24 0 0 0 3.35 1 4.31 4.31 0 0 0 .77-.06h.64a4.14 4.14 0 0 1 1.71.33 4.76 4.76 0 0 1 1.92 1.69 7.63 7.63 0 0 1 3.62-1.5 9.54 9.54 0 0 0-2.62-2.95 7.86 7.86 0 0 0-4.59-1.44 11.26 11.26 0 0 0-1.15.07h-.26a2.13 2.13 0 0 1-.74-.14 4 4 0 0 1-1.89-1.7 12.11 12.11 0 0 1-1.5-3.78l-.52.73a.26.26 0 0 1-.23.09 5.52 5.52 0 0 1-2.34-1.05l-.09-.06a7.84 7.84 0 0 1-1-.82m11-8a1.53 1.53 0 0 1-.48.11h-.12L88 169.28l1.61-.44.17-.06a1.86 1.86 0 0 1-.14-.54 1.46 1.46 0 0 1 .45-1.19m3.26-5.4l-2.39 3.41a1.66 1.66 0 0 1 .11.49 1.54 1.54 0 0 1-.46 1.17 1.53 1.53 0 0 1 .48-.11h.11a1.4 1.4 0 0 1 1 .41 5.13 5.13 0 0 0 .68-1.1 6.33 6.33 0 0 0 .57-2.71 8.74 8.74 0 0 0-.15-1.56M98.22 107.21a12.11 12.11 0 0 0-1.43.8 8.78 8.78 0 0 0-3.17 3.53 8.66 8.66 0 0 0-.84 3.8 11.3 11.3 0 0 0 .58 3.52 10.82 10.82 0 0 0 .57 1.45c2.2 5 2.68 7.89 2.68 9.26a3.07 3.07 0 0 1-.13 1l-.06.08a8.9 8.9 0 0 1-3.33 2.35 29.54 29.54 0 0 1-7.09 2c-1.08.17-2 .28-2.67.34l-.77.06h-.46l-.2.06a11.35 11.35 0 0 0-2.64 1.05 6.38 6.38 0 0 0-2.42 2.32 5.1 5.1 0 0 0-.66 2.52 5.51 5.51 0 0 0 .37 2l.8 3.92a10.14 10.14 0 0 0 .71 2.18 5.86 5.86 0 0 0 1 1.46 4.56 4.56 0 0 0 1.16.88 5.44 5.44 0 0 0 2.06.57c.93.08 1.7 0 2.34.1a3.45 3.45 0 0 1 1.63.52 3.55 3.55 0 0 1 1.12 1.27 8.7 8.7 0 0 1 .73 1.75l2.69-3.56c-.16-.28-.33-.56-.52-.83a7 7 0 0 0-1.9-1.86A7.27 7.27 0 0 0 85 148.6c-.75-.07-1.39-.06-1.88-.08a4.83 4.83 0 0 1-.84-.08 1.11 1.11 0 0 1-.27-.1 1 1 0 0 1-.34-.38 5.42 5.42 0 0 1-.52-1.51l-.88-4.35-.11-.2a1.92 1.92 0 0 1-.1-.56 1.16 1.16 0 0 1 .07-.4 1.65 1.65 0 0 1 .57-.75 6 6 0 0 1 2-1 45 45 0 0 0 6.42-.93 29.34 29.34 0 0 0 5.54-1.76 12.93 12.93 0 0 0 4.7-3.33 3.32 3.32 0 0 0 .65-1 6.33 6.33 0 0 0 .48-2.63v-.61l-1.43-.62A3.94 3.94 0 0 1 97 127c-.66-1.18.42-2.62 1.37-3.77.21-.25.42-.51.62-.77-.4-1.11-.89-2.34-1.48-3.7v-.06a8.36 8.36 0 0 1-.75-3.26 5.3 5.3 0 0 1 .19-1.43 4.34 4.34 0 0 1 1.26-2 8 8 0 0 1 2.9-1.65c-.7-.84-1.56-1.59-2.25-2.44a2.66 2.66 0 0 1-.52-.59" fill="#d8e6fa"/><path class="cls-13" d="M136.82 86.49a1.59 1.59 0 0 0 1.1 1.85.89.89 0 0 0 .69.77.83.83 0 0 0-.2.42.91.91 0 0 0 .12.63 1.52 1.52 0 0 0-.26.67 1.62 1.62 0 0 0 1.39 1.82 1.32 1.32 0 0 0 .49 0 1.49 1.49 0 0 0-.55 1.17 1.81 1.81 0 0 0 .48 1.14 1.63 1.63 0 0 0 1.09.48 1.27 1.27 0 0 0 0 .7 1.63 1.63 0 0 0 1.81 1.36 1.54 1.54 0 0 0 .06.73 1.62 1.62 0 0 0 2 1.07.89.89 0 0 0 .78.3 1.48 1.48 0 0 0 .17 1 1.63 1.63 0 0 0 2.13.67 1.63 1.63 0 0 0 1.84 1.27 1.41 1.41 0 0 0 1-.62 1 1 0 0 0 .32.62 1.13 1.13 0 0 0 1.61 0 1.09 1.09 0 0 0 .35.49 1.13 1.13 0 0 0 1.6-.22 1.1 1.1 0 0 0-.28-1.5 1.06 1.06 0 0 0-1.47.2 1.25 1.25 0 0 0-.3-.49 1.09 1.09 0 0 0-1.49 0l-.09.09a1.46 1.46 0 0 0 0-.36 1.52 1.52 0 0 0-1.67-1.25 2.06 2.06 0 0 0-.62.21 1.59 1.59 0 0 0-.22-.62 1.5 1.5 0 0 0-2-.55l-.13.07-.06-.19a.9.9 0 0 0-.43-.43 1.58 1.58 0 0 0-.09-.68 1.41 1.41 0 0 0-.69-.8 1.49 1.49 0 0 0-1.07-.15 1.72 1.72 0 0 0 0-.68 1.51 1.51 0 0 0-1.58-1.21 1.59 1.59 0 0 0 .11-.65 1.51 1.51 0 0 0-1.5-1.44 1.6 1.6 0 0 0-.49 0 1.64 1.64 0 0 0 .62-1.09 1.53 1.53 0 0 0-1.2-1.67.91.91 0 0 0-.7-.74.85.85 0 0 0 .21-.41.88.88 0 0 0-.11-.62 1.56 1.56 0 0 0-.87-2.5 1.54 1.54 0 0 0-1.83 1.18"/><path class="cls-13" d="M121 81.12a1.49 1.49 0 0 0 1-1.71.86.86 0 0 0 .44-.89.88.88 0 0 0 .45.08.93.93 0 0 0 .55-.27 1.51 1.51 0 0 0 2.13-1.33 1.6 1.6 0 0 0 0-.49 1.66 1.66 0 0 0 1.06.66 1.47 1.47 0 0 0 1.67-1 1.79 1.79 0 0 0 .51.37c.66.3 1.09.11 1.64-.44a2 2 0 0 0 .24.58 1.35 1.35 0 0 0 1.73.46.83.83 0 0 0 .67.32 1.64 1.64 0 0 0-.11.9 1.45 1.45 0 0 0 1.49 1.24 1.51 1.51 0 0 0 .54 1.91 1.69 1.69 0 0 0 1.11.24 1.09 1.09 0 0 0 .61 1.83 1.08 1.08 0 0 0-.27.52 1.11 1.11 0 0 0 .85 1.28 1.07 1.07 0 0 0 1.28-.84 1.12 1.12 0 0 0-.87-1.31 1.07 1.07 0 0 0 .25-.55 1.11 1.11 0 0 0-.97-1.28h-.13a1.35 1.35 0 0 0 .25-.28 1.62 1.62 0 0 0-.54-2.26 1.4 1.4 0 0 0-.67-.22 1.47 1.47 0 0 0 .08-.7 1.66 1.66 0 0 0-1.9-1.43h-.15v-.21a1 1 0 0 0-.45-.52 1.39 1.39 0 0 0-.19-.74 1.74 1.74 0 0 0-2.42-.63 1.32 1.32 0 0 0-.54-.59 1.86 1.86 0 0 0-1.45-.19 1.5 1.5 0 0 0-1 .81 1.34 1.34 0 0 0-.66-.3 1.64 1.64 0 0 0-1.93 1.31 1.15 1.15 0 0 0 0 .49 1.45 1.45 0 0 0-1.15-.58 1.63 1.63 0 0 0-1.66 1.55.9.9 0 0 0-.56.9.82.82 0 0 0-.47 0 1 1 0 0 0-.57.35 1.39 1.39 0 0 0-.73 0 1.64 1.64 0 0 0-1.15 2 1.59 1.59 0 0 0 2 .92"/><path class="cls-13" d="M121.57 104.51a1.58 1.58 0 0 0-1.07-1.86.87.87 0 0 0-.66-.78 1 1 0 0 0 .22-.41.91.91 0 0 0-.09-.63 1.44 1.44 0 0 0 .31-.63 1.56 1.56 0 0 0-1.14-1.88 1.36 1.36 0 0 0-.49 0 1.56 1.56 0 0 0-.19-2.84 1.63 1.63 0 0 0 .33-.59 1.54 1.54 0 0 0-.88-1.88 1.69 1.69 0 0 0 .39-.58 1.52 1.52 0 0 0-.71-1.92.92.92 0 0 0-.25-.74 1.53 1.53 0 0 0 .69-.62 1.48 1.48 0 0 0-.32-1.94 1.46 1.46 0 0 0 .84-1.75 1.6 1.6 0 0 0-.42-.72 1.43 1.43 0 0 0-.23-.2 1.2 1.2 0 0 0 .63-.22 1.07 1.07 0 0 0 .25-1.45 1.24 1.24 0 0 0 .56-.13 1.06 1.06 0 0 0 .46-1.39 1 1 0 0 0-1.42-.55 1.14 1.14 0 0 0-.52 1.55 1.11 1.11 0 0 0-.59.19 1.29 1.29 0 0 0-.48.77 1.14 1.14 0 0 0 .21.84l.09.09a1.56 1.56 0 0 0-.31 0h-.07a1.53 1.53 0 0 0-1 .77 1.7 1.7 0 0 0-.13 1.31 1.49 1.49 0 0 0 .37.61 1.4 1.4 0 0 0-.52.48 1.64 1.64 0 0 0 .48 2.29l.14.07-.12.17a.92.92 0 0 0-.06.65 1.53 1.53 0 0 0-.43.59 1.62 1.62 0 0 0 .77 2.08 1.58 1.58 0 0 0-.38.62 1.62 1.62 0 0 0 .91 2 1.55 1.55 0 0 0-.32.61 1.58 1.58 0 0 0 1.12 1.93 1.37 1.37 0 0 0 .49 0 1.48 1.48 0 0 0-.77 1 1.58 1.58 0 0 0 1.07 1.86.87.87 0 0 0 .66.78 1 1 0 0 0-.22.41.86.86 0 0 0 .09.63 1.57 1.57 0 0 0-.32.63 1.59 1.59 0 0 0 1.15 1.89 1.53 1.53 0 0 0 1.85-1.15M88.62 104.27a2.51 2.51 0 0 0 0-1.14 3.13 3.13 0 0 0-.42-.93 1.49 1.49 0 0 0 .31-1 1.78 1.78 0 0 0 .48.08 1.36 1.36 0 0 0 .63-.15 2.62 2.62 0 0 0 .6.37 2.44 2.44 0 0 0 2.28-.13 1.78 1.78 0 0 0 .4-.31 2 2 0 0 0 .21 1.34 2.55 2.55 0 0 0 2.19 1.39 1.83 1.83 0 0 0 .13.81 2.53 2.53 0 0 0 2.43 1.65 1.8 1.8 0 0 0 .27.84 2.55 2.55 0 0 0 2.68 1.25 1.48 1.48 0 0 0 1 .35 1.73 1.73 0 0 0 .43 1 2.57 2.57 0 0 0 2.72.86 2.56 2.56 0 0 0 2.32 1.58 1.65 1.65 0 0 0 1.25-.42 1.29 1.29 0 0 0 .34.72 1.78 1.78 0 0 0 2 .48 1.27 1.27 0 0 0 .33.61 1.76 1.76 0 0 0 2 .48.94.94 0 0 0 .13-1.56 1.76 1.76 0 0 0-2-.48 1.27 1.27 0 0 0-.33-.61 1.78 1.78 0 0 0-2-.48v.13a1.72 1.72 0 0 0 0-.39 2.51 2.51 0 0 0-2.34-1.7 1.85 1.85 0 0 0-.8.13 1.78 1.78 0 0 0-.4-.7 2.52 2.52 0 0 0-2.73-.79l-.14.07-.13-.21a1.45 1.45 0 0 0-.65-.5 2 2 0 0 0-.31-.76A2.56 2.56 0 0 0 99 105a2 2 0 0 0-.18-.79 2.61 2.61 0 0 0-2.21-1.57 1.79 1.79 0 0 0-.15-.82 2.52 2.52 0 0 0-2.75-1.52 1.18 1.18 0 0 0-.45.27 1.39 1.39 0 0 0-.66-1.39 2.65 2.65 0 0 0-1.9-.47 2 2 0 0 0-1.48.84 1.3 1.3 0 0 0-1.15 1 1 1 0 0 0-.62.1 1.59 1.59 0 0 0-.7.83 1.61 1.61 0 0 0-.77.73 2.65 2.65 0 0 0-.21 2.08 1.91 1.91 0 0 0 1 1.24c.89.37 1.63-.32 1.85-1.23M69.82 133.75a1.36 1.36 0 0 0-.57-1.83.85.85 0 0 0-.39-.89.8.8 0 0 0 .34-.26.67.67 0 0 0 .14-.54 1.34 1.34 0 0 0 .27-2.37 2 2 0 0 0-.41-.35 1.39 1.39 0 0 0 1.14-.21 1.5 1.5 0 0 0 .15-2 1.41 1.41 0 0 0 .61-.11 1.39 1.39 0 0 0 .75-1.74 2 2 0 0 0 .73.09 1.19 1.19 0 0 0 1.26-1.29.65.65 0 0 0 .53-.43 2.31 2.31 0 0 0 .92.44 1.17 1.17 0 0 0 1.53-.9 1.36 1.36 0 0 0 1.94 0 1.47 1.47 0 0 0 .44-1.06 1.1 1.1 0 0 0 .57.36 1.05 1.05 0 0 0 1.27-.83 1.07 1.07 0 0 0 .52.26 1 1 0 0 0 1.22-.91 1.1 1.1 0 0 0-.91-1.22 1 1 0 0 0-1.17.87 1.1 1.1 0 0 0-.51-.27 1 1 0 0 0-1.22.8v.12a1.54 1.54 0 0 0-.23-.29 1.48 1.48 0 0 0-1-.46 1.77 1.77 0 0 0-1.17.45 1.23 1.23 0 0 0-.34.56 1.78 1.78 0 0 0-.69-.29 1.42 1.42 0 0 0-1.83 1.15v.14h-.22a.9.9 0 0 0-.64.16 1.66 1.66 0 0 0-.77-.16 1.39 1.39 0 0 0-1.47 1.53 1.56 1.56 0 0 0-.74 0 1.46 1.46 0 0 0-.85 2 1.21 1.21 0 0 0-.61.23 1.69 1.69 0 0 0-.14 2.35 1.43 1.43 0 0 0 .38.36 1.13 1.13 0 0 0-1.11.37 1.69 1.69 0 0 0 .16 2.27.93.93 0 0 0 .34 1 .85.85 0 0 0-.34.29.88.88 0 0 0-.11.63 1.46 1.46 0 0 0-.48.53 1.67 1.67 0 0 0-.09 1.26 1.48 1.48 0 0 0 .8.88 1.62 1.62 0 0 0 2-.69zM76.91 156.54c.15-.86-.1-1.45-.77-1.49a.55.55 0 0 0-.5-.65 1.5 1.5 0 0 0 .26-.44.75.75 0 0 0 0-.59 2 2 0 0 0 .35-.62 1.12 1.12 0 0 0-.09-1 1.44 1.44 0 0 0-1-.71 1.61 1.61 0 0 0-.49 0 1.55 1.55 0 0 0 .75-1 1.51 1.51 0 0 0-1.14-1.75 1.49 1.49 0 0 0-1-2.3 1.51 1.51 0 0 0 .25-.66 1.47 1.47 0 0 0-1.26-1.63.79.79 0 0 0-.49-.59 1.48 1.48 0 0 0 .41-.84 1.45 1.45 0 0 0-1.15-1.63 1.42 1.42 0 0 0-.22-1.95 1.53 1.53 0 0 0-1.06-.37 1.1 1.1 0 0 0 .37-.55 1 1 0 0 0-.73-1.26 1 1 0 0 0 .32-.47 1 1 0 0 0-.62-1.29 1.06 1.06 0 0 0-1.4.59 1 1 0 0 0 .66 1.38 1.08 1.08 0 0 0-.32.5 1.07 1.07 0 0 0 .77 1.32h.12a1.05 1.05 0 0 0-.28.24 1.49 1.49 0 0 0 .15 2.16 1.42 1.42 0 0 0 .6.3 1.46 1.46 0 0 0-.24.63 1.47 1.47 0 0 0 1.31 1.69h.14v.19a.8.8 0 0 0 .15.59 1.48 1.48 0 0 0 1 2.28 1.46 1.46 0 0 0-.24.65 1.44 1.44 0 0 0 1.16 1.62 1.57 1.57 0 0 0-.25.61 1.43 1.43 0 0 0 1.18 1.68 1.69 1.69 0 0 0 .5 0 1.59 1.59 0 0 0-.78 1 1.61 1.61 0 0 0 .13 1.17 1.22 1.22 0 0 0 .82.73c0 .39.21.72.55.75a1.38 1.38 0 0 0-.25.48 1.08 1.08 0 0 0 0 .67 2.39 2.39 0 0 0-.35.78c-.26 1 .28 1.84 1.1 1.72s1.42-1 1.55-1.89"/><path class="cls-13" d="M95.12 170.7a1.25 1.25 0 0 0-1.63-.82.68.68 0 0 0-.82-.33 1 1 0 0 0 0-.48.79.79 0 0 0-.26-.52 1.89 1.89 0 0 0 .1-.7 1.28 1.28 0 0 0-1.48-1.24 1.53 1.53 0 0 0-.48.11 1.54 1.54 0 0 0 .46-1.17 1.52 1.52 0 0 0-1.55-1.42 1.44 1.44 0 0 0 0-.69 1.56 1.56 0 0 0-1.85-1.24 1.35 1.35 0 0 0-.12-.73 1.62 1.62 0 0 0-2.22-.73.88.88 0 0 0-.83-.07 1.56 1.56 0 0 0-.42-.85c-.52-.56-1.25-.47-1.94.07-.14-.69-.73-1-1.55-.76a2.77 2.77 0 0 0-1.15.66.74.74 0 0 0-.08-.57.77.77 0 0 0-.62-.34 1.51 1.51 0 0 0-.9.15.9.9 0 0 0 0-.56.88.88 0 0 0-.47-.56 1 1 0 0 0-.79-.09 1.3 1.3 0 0 0-.72.49 1.06 1.06 0 0 0-.2.85 1 1 0 0 0 1.41.7.8.8 0 0 0 .09.52 1.21 1.21 0 0 0 1.64.23l.12-.08a1.28 1.28 0 0 0-.06.33c0 .74.88 1.23 1.85 1a2.21 2.21 0 0 0 .71-.33 1.12 1.12 0 0 0 .33.53A1.71 1.71 0 0 0 84 162l.1-.11.1.16a.78.78 0 0 0 .47.28 2.54 2.54 0 0 0 .19.61 1.19 1.19 0 0 0 .67.59 1.72 1.72 0 0 0 1 0 1.78 1.78 0 0 0 0 .65 1.2 1.2 0 0 0 .53.8 1.41 1.41 0 0 0 1 .25 1.45 1.45 0 0 0 1.47 2 1.53 1.53 0 0 0 .48-.11 1.46 1.46 0 0 0-.45 1.19 1.54 1.54 0 0 0 1.6 1.48.74.74 0 0 0 .86.46.94.94 0 0 0 0 .5.9.9 0 0 0 .36.55 1.85 1.85 0 0 0 .07.77 1.66 1.66 0 0 0 .85 1 1.28 1.28 0 0 0 1.16-.06 1.88 1.88 0 0 0 .62-2.2"/><path class="cls-13" d="M118.06 167.86a1.46 1.46 0 0 0-1.82 1 .83.83 0 0 0-.77.61.88.88 0 0 0-.38-.24.85.85 0 0 0-.61.05 1.51 1.51 0 0 0-.6-.35 1.47 1.47 0 0 0-1.84 1 1.65 1.65 0 0 0-.06.49 1.54 1.54 0 0 0-.94-.82 1.47 1.47 0 0 0-1.81.92 1.51 1.51 0 0 0-.58-.33 1.46 1.46 0 0 0-1.81.95 1.55 1.55 0 0 0-.61-.35 1.47 1.47 0 0 0-1.82 1 .8.8 0 0 0-.65.37 1.54 1.54 0 0 0-.68-.56 1.4 1.4 0 0 0-1.74.79 1.22 1.22 0 0 0-1.76-.32 2.23 2.23 0 0 0-.8.92.94.94 0 0 0-.3-.55 1.05 1.05 0 0 0-1.45.16 1.09 1.09 0 0 0-.21-.54 1 1 0 0 0-1.39-.17 1.13 1.13 0 0 0-.32 1.55 1 1 0 0 0 1.56.18 1 1 0 0 0 .27.51 1.14 1.14 0 0 0 1.6-.18l.07-.11a1.5 1.5 0 0 0 .09.35 1.43 1.43 0 0 0 2.13.48 1.88 1.88 0 0 0 .53-.52 1.32 1.32 0 0 0 .53.38 1.68 1.68 0 0 0 2.09-1v-.14l.18.08a.87.87 0 0 0 .62-.06 1.51 1.51 0 0 0 .6.35 1.47 1.47 0 0 0 1.82-.94 1.41 1.41 0 0 0 .59.35 1.46 1.46 0 0 0 1.81-.92 1.51 1.51 0 0 0 .58.33 1.48 1.48 0 0 0 1.85-1 1.63 1.63 0 0 0 0-.49 1.51 1.51 0 0 0 .94.82 1.46 1.46 0 0 0 1.82-1 .84.84 0 0 0 .78-.62.84.84 0 0 0 1 .19 1.41 1.41 0 0 0 .59.35 1.48 1.48 0 0 0 1.85-1 1.56 1.56 0 0 0-1-1.9M114.85 112.71H115.56l.06.11.06.11v.52h.06v.32H117.38l.06-.05H118.65l.08.08.07.1.06.1.06.12v.88l.07-.14.07-.14.08-.13.09-.12.1-.11.1-.1.11-.09h.53l.09.06.09.07.08.07.08.08.08.09.08.1.07.11.08.12V114.58l.05-.09v-.1h.13l-.24.23h1.82v.11l.07-.08h-.1l-.1-.06h-.06v-.05h-.06l-.06-.06-.06-.07-.05-.07-.25.24v-.51l.09-.1.19-.19v-.29h-.64l-.09-.06-.09-.06v-.97l.07-.11.08-.11.09-.1h-.26l-.11-.06-.11-.06-.1-.08-.09-.08-.08-.09-.06-.09V110.78l.06-.11.08-.12.08-.1.1-.1.1-.09.11-.09.12-.07H120.76l-.07-.06-.06-.07V109.07l.06-.08.06-.08.08-.07h-.5l-.07-.06-.06-.07V107.81L120 106l.08-.08.08-.06.09-.06.09-.06H121.5l.08.06.07.06.06.07.06.07V106.83l-.06.08-.06.08-.08.07h.45l.07.06.06.07.06.07V108.01l-.05.08-.06.08-.06.08-.08.07-.09.08h.77l.12.07h.06V110.64H123.43v1.6l-.07.11-.08.12-.09.11-.11.1-.11.09H123.12v.05h.05v.31h.51l.06.05V114.36l-.11.09-.13.07-.13.07-.14.07h-.14.19v.11l.06.13V116.13h-.16l-.1.06-.11.05H122.67h.33-.82l-.1-.06-.1-.06-.08-.07-.07-.07-.07-.07-.05-.06v-.06.07l-.05.07v.12l-.06.06-.07.06H120v-.05h-.05v-1.01V115.52l-.05.06H118.41v-.54.96h-.12v-.36H116.52V114.13l.07-.14.07-.12.09-.12.09-.12.1-.1.1-.09.12-.09.12-.07.12-.06h.26M82.73 117.18l.02-.05.03-.05.03-.05.04-.04.03-.04.04-.04.03-.03.04-.03.04-.03.05-.02.04-.02.05-.02.04-.02.05-.01.05-.01.04-.01h.16l.05.01.1.02.11.03.11.05.11.06.11.07.11.08.03-.03.04-.03.04-.02.05-.01.04-.02h.05l.04-.01.05.01h.05l.05.02.06.01.05.02.05.03.05.03.05.04.05.04V116.9l.01-.05.01-.04.02-.05.01-.04.03-.06.03-.05.04-.05.04-.04.04-.03.05-.03.05-.02.05-.01v-.23l.01-.08.01-.07.01-.07.02-.07.03-.07.04-.11.03-.05.03-.04.03-.05.03-.04.04-.04.04-.03.04-.03.04-.03.04-.03.05-.02.04-.02.05-.01.05-.02.05-.01h.27l.06.01.11.03.12.04.12.06.12.07.12.08.09.07.09.08.08.09.08.09-.06-.15-.04-.14-.04-.15-.02-.15-.01-.14.01-.14v-.07l.01-.07.02-.06.01-.07.02-.05.02-.05.03-.05.02-.05.03-.04.04-.04.03-.03.04-.03.04-.03.04-.03.09-.04.04-.02.05-.01.05-.01.05-.01.11-.01h.11l.11.02.12.02.12.03.12.05.12.05.12.06-.01-.04-.02-.04-.02-.1-.02-.11v-.16l.01-.06.01-.05.02-.05.02-.05.02-.05.03-.04.03-.05.05-.05.05-.04.05-.04h.01l.01-.01-.03.04h.01l.01-.01.04-.01.14-.03.06-.01.06-.01h.1l.04.01h.04l.03.01.03.02.03.01.02.01.02.02.02.02.01.02.01.02.02.04.01.03V113.83l.01-.02v.02l.01.01-.11-.01-.11-.03-.15-.04-.07-.03-.08-.03-.08-.04-.08-.05-.04-.03h-.01v-.01l-.03.04-.01-.02-.03-.02-.02-.03-.02-.03-.02-.03-.01-.04-.01-.03-.01-.07-.01-.07v-.06l.01-.06.01-.05.02-.05.03-.05.02-.05.03-.05.04-.05.08-.09.19-.18-.02-.03-.01-.03-.02-.04-.01-.03-.01-.04v-.03l-.01-.04v-.04l.01-.03v-.04l.01-.04.01-.04.02-.04.02-.03.04-.08h-.11l-.11-.01-.11-.01-.1-.02-.1-.03-.1-.04-.09-.04-.09-.05-.05-.03-.04-.04-.05-.03-.04-.04-.03-.04-.04-.04-.03-.04-.02-.04-.03-.05-.02-.05-.01-.04-.02-.05-.01-.05-.01-.05-.01-.05v-.1l.01-.05.01-.05v-.05l.03-.11.05-.1.05-.11.07-.1.08-.1.09-.09-.13-.03-.13-.03-.11-.04-.11-.05-.09-.06-.09-.06-.04-.04-.04-.03-.03-.04-.03-.04-.03-.04-.03-.05-.02-.04-.02-.05-.02-.04-.01-.05-.01-.05-.01-.05v-.05l-.01-.05.01-.05v-.06l.01-.05.01-.06.02-.05.02-.06.02-.05.03-.06.06-.11.07-.1.09-.1.09-.1.1-.08.11-.08.12-.08h-.16l-.07-.01-.08-.02-.07-.02-.07-.02-.07-.03-.06-.04-.07-.05-.06-.05-.05-.06-.02-.03-.02-.04-.02-.03-.01-.03-.01-.04-.01-.03-.02-.08v-.07l.01-.08.02-.07.03-.08.03-.08.05-.07.05-.08.07-.07.07-.07.02-.02h-.06l-.07-.01-.07-.01-.06-.02-.06-.02-.06-.02-.05-.03-.06-.03-.07-.05-.06-.05-.05-.06-.02-.03-.02-.04-.02-.03-.01-.03-.01-.04-.01-.03-.01-.08-.01-.07.01-.08.02-.08.03-.08.03-.08.05-.07.05-.08.07-.07.08-.07.08-.06.09-.06.09-.05.09-.04.1-.04.1-.03.1-.02.1-.02.1-.01h.1l.1.01.1.01.09.02.08.02.09.04.07.04.07.05.06.05.03.03.02.03.02.03.02.03.02.04.01.03.01.03.01.04.02.07v.08l-.01.07-.02.08-.02.08-.04.07-.05.08-.05.07-.07.08-.07.07-.02.01.07.01.06.01.07.01.06.01.06.02.06.03.05.02.06.03.07.05.06.06.05.06.02.03.02.03.02.04.01.03.01.03.01.04.01.07.01.08-.01.07-.02.08-.03.08-.03.07-.05.08-.05.07-.07.08-.07.07-.1.07.09-.01h.09l.09-.01.09.01.14.01.14.03.13.04.11.04.11.06.05.03.04.03.05.04.04.03.04.04.03.04.04.05.03.04.02.04.03.05.02.05.01.05.02.05.01.05v.06l.01.05-.01.06v.05l-.01.06-.01.06-.02.05-.02.06-.03.07-.03.06-.03.06-.04.06-.04.06-.05.06-.1.11.15.03.07.01.07.03.07.02.06.03.06.03.07.04.05.03.05.04.04.03.04.05.04.04.03.04.03.04.03.05.02.05.02.05.02.05.01.05.01.05.01.05v.16l-.01.05-.01.06-.01.05-.02.06-.02.05-.05.11-.07.11-.08.11-.09.1-.11.1-.11.09.08.03.07.03.06.04.04.04.04.05.03.04.03.05.02.06.01.05v.06l.08.01.08.01.07.02.08.02.06.03.07.03.07.03.06.03.05.08.04.07.03.06.03.07.02.07.01.06.01.06.01.07v.06l-.01.06v.06l-.02.05-.02.06-.02.06-.03.05-.03.05-.03.05-.04.05-.04.05-.05.05-.1.09-.11.08-.12.08-.13.07-.14.07-.14.06.07.01.06.03.05.02.05.03.05.03.04.04.03.04.03.04.02.05.01.05h.01v.01l.01.01.02.03.04.07.07.12.06.14.05.13.04.14.02.14.01.06v.13l-.01.06v.06l-.02.05-.01.05-.02.05-.02.05-.02.04-.06.07-.05.06-.05.06-.06.05-.05.05-.05.04-.06.04-.05.03-.06.02-.05.03-.06.01-.05.02-.06.01h-.05l-.05.01-.06-.01-.1-.01-.1-.01-.09-.03-.09-.03-.08-.04-.08-.03-.13-.07v.07l.01.08V116.12l-.01.07-.01.07-.01.07-.02.07-.02.06-.02.06-.03.05-.03.06-.03.04-.04.05-.03.04-.04.04-.04.04-.05.03-.04.04-.05.02-.05.02-.05.03-.05.01-.06.02-.05.01-.06.01H88.63l-.06-.01-.06-.01-.06-.01-.12-.03-.13-.05-.06-.03-.06-.04-.12-.08-.1-.07-.09-.08-.08-.08-.08-.09.05.14.05.15.03.15.02.15V117.25l-.01.08-.01.07-.01.07-.02.06-.03.07-.02.06-.02.05-.03.05-.03.05-.04.05-.03.04-.04.04-.04.03-.04.04-.05.03-.04.02-.05.03-.05.02-.05.02-.05.01-.05.02-.05.01h-.06l-.05.01h-.06l-.05-.01h-.06l-.12-.03-.11-.04-.12-.05-.12-.06-.11-.08-.04.03-.04.03-.04.03-.04.02-.05.01-.05.01-.05.01h-.05l-.05-.01-.05-.01-.05-.02-.06-.02-.05-.02-.05-.03-.06-.04-.05-.04V118.07l-.01.05-.01.05-.02.04-.02.05-.03.06-.03.05-.04.05-.04.03-.05.04-.05.02-.06.02-.05.02v.08l-.01.07-.01.08-.01.08-.02.07-.02.07-.02.07-.04.07-.03.05-.03.06-.03.05-.04.04-.04.05-.04.04-.04.03-.05.04-.04.03-.05.03-.05.02-.05.02-.05.01-.06.02h-.05l-.06.01H83.94l-.05-.01-.06-.01-.06-.02-.06-.02-.06-.02-.11-.05-.12-.07-.11-.08-.11-.1-.1-.11-.09-.12-.09-.12-.07-.13-.07-.13-.05-.14-.05-.14-.03-.14-.03-.14-.02-.14v-.28l.02-.13.02-.12.04-.13.02-.06.03-.05zM91.31 94a3.76 3.76 0 1 1-4.63-2.64A3.76 3.76 0 0 1 91.31 94z"/><path class="cls-14" d="M89.51 94.46a1.9 1.9 0 1 1-2.33-1.33 1.89 1.89 0 0 1 2.33 1.33z"/><path class="cls-13" d="M85.43 152.08a3.76 3.76 0 1 1-4.63-2.63 3.77 3.77 0 0 1 4.63 2.63z"/><path class="cls-14" d="M83.63 152.58a1.9 1.9 0 1 1-2.33-1.33 1.9 1.9 0 0 1 2.33 1.33z"/><path class="cls-13" d="M112.26 116.11a3.76 3.76 0 1 1-4.62-2.63 3.75 3.75 0 0 1 4.62 2.63"/><path class="cls-14" d="M110.47 116.6a1.9 1.9 0 1 1-2.34-1.33 1.9 1.9 0 0 1 2.34 1.33"/><path d="M160.41 121l.28 1.06H163c-.88-.33-1.75-.68-2.6-1.06m-65-52l.78 3.21 1.16-.31-1.95-2.9m1.53-.87l-.5.13 2.19 3.29.5-.14-2.19-3.28m43.36-11.93l-34.18 9.4 2.2 3.3 29.47-8a45.09 45.09 0 0 1 2.51-4.65" fill="#d7e5f9"/><path d="M115.18 130.54l-3.64 5.18.42 1.7a29.56 29.56 0 0 1 4 5.79c2.06 4 3 8.95.59 13l4.55 18.81v-36-.77a11.71 11.71 0 0 0-.67-1.44 20.81 20.81 0 0 0-2.89-3.73l-2.34-2.59m45.09-9.6l.3 1.12h.12l-.28-1.06-.14-.06M111.86 119a3.73 3.73 0 0 1-2.23 1.69 3.83 3.83 0 0 1-1 .14 3.33 3.33 0 0 1-.7-.07l1.63 6.71 1.31-1.75-1.06-1.18c.68-1 1.87-1.58 2.35-2.68a3.21 3.21 0 0 0-.3-2.86m-6.17-7.5l.63 2.6a3.64 3.64 0 0 1 1.32-.66h.11c-.26-.43-.49-.86-.71-1.3a2.74 2.74 0 0 1-1.35-.61m.23-2.57h-.14.14m11-25l-.44.29a.83.83 0 0 1 .21-.06H117.07l-.09-.09.02-.1m16.76-.71a15.14 15.14 0 0 0-5.32 2.34 5.64 5.64 0 0 0-2 2.61 4.88 4.88 0 0 0-.25 1.48 4.35 4.35 0 0 0 .24 1.46v.23a16.44 16.44 0 0 1 .61 4.25 10.56 10.56 0 0 1-.61 3.7 9.51 9.51 0 0 1-1.66 2.89 10.81 10.81 0 0 1-2.72 2.33 9.91 9.91 0 0 0 4.65 1.61l2.92-3.08.67.51a5.81 5.81 0 0 0-.3-.86 15.91 15.91 0 0 1-.24-11.07 4.47 4.47 0 0 1 1.47-2.28 6.24 6.24 0 0 1 3-.71h.25a45.22 45.22 0 0 1-.74-5.38m-36.4-11.46l-1.16.31 8 33.25L106 105c.69-2.79 2.78-5.26 5.59-5.6h.72c2.27 0 4.35 1.28 6.28 2.71l.19-.08a.89.89 0 0 1-.37-.65 1.58 1.58 0 0 1-1.07-1.86 1.48 1.48 0 0 1 .77-1h-.12a1.18 1.18 0 0 1-.37 0 1.58 1.58 0 0 1-1.12-1.93 1.55 1.55 0 0 1 .32-.61 1.62 1.62 0 0 1-.91-2 1.58 1.58 0 0 1 .38-.62 1.62 1.62 0 0 1-.77-2.08 1.53 1.53 0 0 1 .43-.59.92.92 0 0 1 .06-.65l.12-.17-.14-.07a1.64 1.64 0 0 1-.48-2.29 1.4 1.4 0 0 1 .52-.48 1.49 1.49 0 0 1-.37-.61 1.7 1.7 0 0 1 .13-1.31L111 88.17l-4.46-6.68-.44.29v-.07a2.14 2.14 0 0 1-1 1.68l-.35-.52-7.39-11m1.78-.49l-.5.14 5.33 8a2 2 0 0 1 .68.12l-5.51-8.23m38.66-10.56l-29.47 8 9.08 13.58a1 1 0 0 1 .49-.13 1.14 1.14 0 0 1 .52-1.55 1 1 0 0 1 .46-.11 1.1 1.1 0 0 1 .5 2.05 1.13 1.13 0 0 1-.54.13 1.07 1.07 0 0 1-.25 1.45 1.2 1.2 0 0 1-.63.22 1.43 1.43 0 0 1 .23.2 1.6 1.6 0 0 1 .42.72 1.46 1.46 0 0 1-.84 1.75 1.48 1.48 0 0 1 .32 1.94 1.53 1.53 0 0 1-.69.62.92.92 0 0 1 .25.74 1.52 1.52 0 0 1 .71 1.92 1.69 1.69 0 0 1-.39.58 1.54 1.54 0 0 1 .88 1.88 1.63 1.63 0 0 1-.33.59 1.56 1.56 0 0 1 .19 2.84h.12a1.58 1.58 0 0 1 1.51 1.93 1.44 1.44 0 0 1-.31.63.93.93 0 0 1 .11.44c.23-.15.45-.3.66-.46a6 6 0 0 0 2.05-2.74 7 7 0 0 0 .39-2.4 12 12 0 0 0-.46-3.15 8.43 8.43 0 0 1 .7-7.06 11.25 11.25 0 0 1 4.64-4.15 22.91 22.91 0 0 1 5.52-2 1.34 1.34 0 0 1-.64-1 1.64 1.64 0 0 1 .11-.9.83.83 0 0 1-.67-.32 2.11 2.11 0 0 1-.67.12 1.18 1.18 0 0 1-1.06-.58 2 2 0 0 1-.24-.58 1.56 1.56 0 0 1-1.06.58 1.48 1.48 0 0 1-.58-.14 1.79 1.79 0 0 1-.51-.37 1.49 1.49 0 0 1-1.41 1.06 1.18 1.18 0 0 1-.26 0 1.66 1.66 0 0 1-1.06-.66 1.6 1.6 0 0 1 0 .49 1.51 1.51 0 0 1-2.15 1.31.93.93 0 0 1-.55.27h-.09a.9.9 0 0 1-.36-.08.86.86 0 0 1-.44.89 1.51 1.51 0 0 1-1.5 1.78 1.56 1.56 0 0 1-1.49-1 1.64 1.64 0 0 1 1.15-2 1.31 1.31 0 0 1 .39-.05 1.27 1.27 0 0 1 .34 0 1 1 0 0 1 .57-.35h.14a.88.88 0 0 1 .33.06.9.9 0 0 1 .56-.9 1.63 1.63 0 0 1 1.65-1.55 1.45 1.45 0 0 1 1.15.58 1.15 1.15 0 0 1 0-.49 1.62 1.62 0 0 1 1.62-1.34 1.09 1.09 0 0 1 .31 0 1.34 1.34 0 0 1 .66.3 1.5 1.5 0 0 1 1-.81 1.7 1.7 0 0 1 .51-.07 1.76 1.76 0 0 1 .94.26 1.32 1.32 0 0 1 .54.59 1.36 1.36 0 0 1 .84-.27 1.8 1.8 0 0 1 1.58.9 1.39 1.39 0 0 1 .19.74 1 1 0 0 1 .29.24 44.8 44.8 0 0 1 4-15.24" fill="#adc8f2"/><path class="cls-17" d="M112 137.42l4.55 18.83c2.45-4.09 1.47-9-.59-13a29.56 29.56 0 0 0-4-5.79M122.05 104.59c-.22.14-.45.27-.67.39a1.55 1.55 0 0 1-1.29.72.86.86 0 0 1-.23 0 19.73 19.73 0 0 1-6.14 1.33l-7.8 2a1.77 1.77 0 0 1 .58-.08h.08a2.51 2.51 0 0 1 2.34 1.7 1.72 1.72 0 0 1 0 .39l.11-.07a1.37 1.37 0 0 1 .61-.14 1.94 1.94 0 0 1 1.38.62 1.27 1.27 0 0 1 .33.61 1.3 1.3 0 0 1 .6-.14 1.94 1.94 0 0 1 1.38.62.94.94 0 0 1-.13 1.56 1.36 1.36 0 0 1-.6.14 1.92 1.92 0 0 1-1.38-.62 1.27 1.27 0 0 1-.22-.62 1.36 1.36 0 0 1-.6.14 2 2 0 0 1-1.39-.62 1.29 1.29 0 0 1-.34-.72 1.63 1.63 0 0 1-1.18.42h-.07a1.63 1.63 0 0 1-.31 0c.22.44.45.87.71 1.3a3.94 3.94 0 0 1 .89-.11 3.77 3.77 0 0 1 3.22 5.7 3.21 3.21 0 0 1 .3 2.86c-.48 1.1-1.67 1.69-2.35 2.68l1.06 1.18 6.64-8.8h-.11V116h-.12v-.36H115.58V114.13l.07-.14.07-.12.09-.12.09-.12.1-.1.1-.09.12-.09.12-.07.12-.06H117.43l.06.11.06.11v.52h.06v.32H117h.38l.06-.05H118.65l.08.08.07.1.06.1.09-.11 1.67-2.2v-.86l.07-.11.08-.11.09-.1h-.26l-.11-.06-.11-.06-.1-.08-.09-.08-.08-.09-.06-.09V109.72l.06-.11.08-.12.08-.1.1-.1.1-.09.11-.09.12-.07H120.11l-.07-.06-.06-.07V108.01l.06-.08.06-.08.08-.07h-.5l-.07-.06-.06-.07V106.75l.45-.75.08-.08.08-.06.09-.06.09-.06H121.5l.08.06.07.06.06.07.06.07V106.83l-.06.08-.06.08-.08.07h.45l.07.06.06.07.06.07V108.01l-.05.08-.06.08-.06.08-.08.07-.09.08h.77l.12.07h.06v.47l3.33-3.5a9.91 9.91 0 0 1-4.65-1.61m-9.79-5.25h-.72c-2.81.34-4.9 2.81-5.59 5.6l7.23-1.81h.91a18.16 18.16 0 0 0 1.89-.29 14.81 14.81 0 0 0 2.56-.78c-1.93-1.43-4-2.71-6.28-2.71m22.19-10.66h-.25a6.24 6.24 0 0 0-3 .71 4.47 4.47 0 0 0-1.47 2.28 15.91 15.91 0 0 0 .24 11.07 5.81 5.81 0 0 1 .3.86l.19.13.52-.57.28.19.24.16.48.34-5.42 10.43-.12.18-.1.13-2 3-9.11 13 2.34 2.59a20.81 20.81 0 0 1 2.89 3.73 11.71 11.71 0 0 1 .67 1.44 11.85 11.85 0 0 1 1.71-5.4v-1.62a9.24 9.24 0 0 1 9.22-9.22h28.56l-.3-1.12a45.1 45.1 0 0 1-25.82-32.26"/><path class="cls-18" d="M118.73 102l-.19.08.34.25a.9.9 0 0 1 .14-.2.76.76 0 0 1-.29-.13m14.85-22.61a22.91 22.91 0 0 0-5.52 2 11.25 11.25 0 0 0-4.64 4.15 8.43 8.43 0 0 0-.7 7.06 12 12 0 0 1 .46 3.15 7 7 0 0 1-.39 2.4 6 6 0 0 1-2.05 2.74c-.21.16-.43.31-.66.46a1.23 1.23 0 0 1 0 .19 1 1 0 0 1-.22.41.87.87 0 0 1 .66.78 1.59 1.59 0 0 1 1.1 1.66l.45.28a10.81 10.81 0 0 0 2.72-2.33 9.51 9.51 0 0 0 1.66-2.89 10.56 10.56 0 0 0 .61-3.7 16.44 16.44 0 0 0-.61-4.25v-.23a4.35 4.35 0 0 1-.24-1.46 4.88 4.88 0 0 1 .25-1.48 5.64 5.64 0 0 1 2-2.61 15.14 15.14 0 0 1 5.32-2.34 44.64 44.64 0 0 1-.14-3.49v-.45M106 105l-1.74.44.58 2.4a2.61 2.61 0 0 1 .59.51 2 2 0 0 1 .4.68h.14a10.32 10.32 0 0 1-.21-1.76A8 8 0 0 1 106 105"/><path d="M121.6 104.31v.2a1.78 1.78 0 0 1-.19.47c.22-.12.45-.25.67-.39l-.45-.28m-3.06-2.26a14.81 14.81 0 0 1-2.56.78 18.16 18.16 0 0 1-1.89.29h-.91L106 105a8 8 0 0 0-.24 2.23 10.32 10.32 0 0 0 .21 1.76l7.8-2a19.73 19.73 0 0 0 6.14-1.33h-.14a1.59 1.59 0 0 1-1.15-1.89 1.57 1.57 0 0 1 .32-.63.86.86 0 0 1-.09-.63.9.9 0 0 1 .08-.21l-.34-.25" fill="#b6cff4"/><path class="cls-20" d="M129.34 73.59a1.7 1.7 0 0 0-.51.07 1.5 1.5 0 0 0-1 .81 1.34 1.34 0 0 0-.66-.3 1.09 1.09 0 0 0-.31 0 1.62 1.62 0 0 0-1.62 1.34 1.15 1.15 0 0 0 0 .49 1.45 1.45 0 0 0-1.15-.58 1.63 1.63 0 0 0-1.65 1.55.9.9 0 0 0-.56.9.88.88 0 0 0-.33-.06h-.14a1 1 0 0 0-.57.35 1.27 1.27 0 0 0-.34 0 1.31 1.31 0 0 0-.39.05 1.64 1.64 0 0 0-1.15 2 1.56 1.56 0 0 0 1.49 1 1.51 1.51 0 0 0 1.5-1.78.86.86 0 0 0 .44-.89.9.9 0 0 0 .36.08h.09a.93.93 0 0 0 .55-.27 1.51 1.51 0 0 0 2.18-1.35 1.6 1.6 0 0 0 0-.49 1.66 1.66 0 0 0 1.06.66 1.18 1.18 0 0 0 .26 0 1.49 1.49 0 0 0 1.41-1.06 1.79 1.79 0 0 0 .51.37 1.48 1.48 0 0 0 .58.14 1.56 1.56 0 0 0 1.06-.58 2 2 0 0 0 .24.58 1.18 1.18 0 0 0 1.06.58 2.11 2.11 0 0 0 .67-.12.83.83 0 0 0 .67.32 1.64 1.64 0 0 0-.11.9 1.34 1.34 0 0 0 .64 1c0-1.1.06-2.2.15-3.28a1 1 0 0 0-.29-.24 1.39 1.39 0 0 0-.19-.74 1.8 1.8 0 0 0-1.58-.9 1.36 1.36 0 0 0-.84.27 1.32 1.32 0 0 0-.54-.59 1.76 1.76 0 0 0-.94-.26"/><path class="cls-20" d="M118.83 80.63a1 1 0 0 0-.46.11 1.14 1.14 0 0 0-.52 1.55 1 1 0 0 0-.49.13l.6.88-.96.7.06.1.09.09h-.45a.83.83 0 0 0-.21.06l-.44.3.09.12-.42.28a1.7 1.7 0 0 0-.13 1.31 1.49 1.49 0 0 0 .37.61 1.4 1.4 0 0 0-.52.48 1.64 1.64 0 0 0 .48 2.29l.14.07-.12.17a.92.92 0 0 0-.06.65 1.53 1.53 0 0 0-.43.59 1.62 1.62 0 0 0 .77 2.08 1.58 1.58 0 0 0-.38.62 1.62 1.62 0 0 0 .91 2 1.55 1.55 0 0 0-.32.61 1.58 1.58 0 0 0 1.12 1.93 1.18 1.18 0 0 0 .37 0h.12a1.48 1.48 0 0 0-.77 1 1.58 1.58 0 0 0 1.07 1.86.89.89 0 0 0 .37.65.76.76 0 0 0 .29.13 1 1 0 0 0-.22.41.86.86 0 0 0 .09.63 1.57 1.57 0 0 0-.32.63 1.59 1.59 0 0 0 1.15 1.89h.14a.86.86 0 0 0 .23 0 1.55 1.55 0 0 0 1.29-.72 1.78 1.78 0 0 0 .19-.47v-.2a1.59 1.59 0 0 0-1.1-1.66.87.87 0 0 0-.66-.78 1 1 0 0 0 .22-.41 1.23 1.23 0 0 0 0-.19.93.93 0 0 0-.11-.44 1.44 1.44 0 0 0 .31-.63 1.58 1.58 0 0 0-1.51-1.93h-.12a1.56 1.56 0 0 0-.19-2.84 1.63 1.63 0 0 0 .33-.59 1.54 1.54 0 0 0-.88-1.88 1.69 1.69 0 0 0 .39-.58 1.52 1.52 0 0 0-.71-1.92.92.92 0 0 0-.25-.74 1.53 1.53 0 0 0 .69-.62 1.48 1.48 0 0 0-.32-1.94 1.46 1.46 0 0 0 .84-1.75 1.6 1.6 0 0 0-.42-.72 1.43 1.43 0 0 0-.23-.2 1.2 1.2 0 0 0 .63-.22 1.07 1.07 0 0 0 .25-1.45 1.13 1.13 0 0 0 .54-.13 1.1 1.1 0 0 0-.5-2.05M104.79 107.82l.9 3.72a2.74 2.74 0 0 0 1.35.61 1.63 1.63 0 0 0 .31 0h.07a1.63 1.63 0 0 0 1.18-.42 1.29 1.29 0 0 0 .34.72 2 2 0 0 0 1.39.62 1.36 1.36 0 0 0 .6-.14 1.27 1.27 0 0 0 .33.61 1.92 1.92 0 0 0 1.38.62 1.36 1.36 0 0 0 .6-.14.94.94 0 0 0 .13-1.56 1.94 1.94 0 0 0-1.38-.62 1.3 1.3 0 0 0-.6.14 1.27 1.27 0 0 0-.33-.61 1.94 1.94 0 0 0-1.38-.62 1.37 1.37 0 0 0-.61.14l-.07.11a1.72 1.72 0 0 0 0-.39 2.51 2.51 0 0 0-2.34-1.7h-.08a1.77 1.77 0 0 0-.58.08h-.14a2 2 0 0 0-.4-.68 2.61 2.61 0 0 0-.59-.51M115.05 112.69h-.46l-.12.06-.12.07-.12.09-.1.09-.1.1-.09.12-.09.12-.07.12-.07.14v1.51H116v.36h.12V116.15h.11l1.73-2.3-.06-.1-.07-.1-.08-.08H116.54l-.06.05h-.38.9v-.32h-.06v-.52l-.06-.11-.06-.11h-.51m5.92-7.13h-.6l-.09.06-.09.06-.08.06-1.37.39-.06.08V106.98l.06.07.07.06h.5l-.08.07-.06.08-.06.08V108.24l.06.07.07.06H121.09l-.12.07-.11.09-.1.09-.1.1-.08.1-.08.12-.06.11V109.89l.06.09.08.09.09.08.1.08.11.06.11.06h.26l-.09.1-.08.11-.07.11V111.53l.4-.52.13-.17 1.83-1.92v-.47h-.06l-.12-.07h-.77l.09-.08.08-.07.06-.08.06-.08.05-.08V107.24l-.06-.07-.06-.07-.07-.06h-.45l.08-.07.06-.08.06-.08V105.98l-.06-.07-.06-.07-.07-.06-.08-.06H121M108.64 113.34a3.94 3.94 0 0 0-.89.11h-.11a3.64 3.64 0 0 0-1.32.66l.55 2.27a1.92 1.92 0 0 1 1.26-1.14 2.22 2.22 0 0 1 .51-.06 1.89 1.89 0 0 1 .5 3.72 1.77 1.77 0 0 1-.5.07 1.93 1.93 0 0 1-1.26-.47l.55 2.27a3.33 3.33 0 0 0 .7.07 3.83 3.83 0 0 0 1-.14 3.76 3.76 0 0 0-1-7.39"/><path d="M108.64 115.21a2.22 2.22 0 0 0-.51.06 1.92 1.92 0 0 0-1.26 1.14l.51 2.12a1.93 1.93 0 0 0 1.26.47 1.77 1.77 0 0 0 .5-.07 1.89 1.89 0 0 0-.5-3.72" fill="#b03c59"/><path class="cls-22" d="M230.94 77.34a45 45 0 1 1-45-45 45 45 0 0 1 45 45"/><path class="cls-23" d="M167.93 36.06a45.11 45.11 0 0 0-27.64 20.08l5.59-1.52.38 1.41a45.23 45.23 0 0 1 21.67-20"/><path class="cls-24" d="M145.88 54.62l-5.59 1.52-.01.02 5.6-1.54"/><path class="cls-23" d="M162.61 115.86l1.69 6.2h2.37a14.67 14.67 0 0 1 8.37 2.63c1.17.09 2.36.14 3.55.14a45 45 0 0 0 18-3.74 45.17 45.17 0 0 1-34-5.23"/><path class="cls-25" d="M158.16 112.78l2.25 8.22c.85.38 1.72.73 2.6 1.06h1.29l-1.69-6.2a45.71 45.71 0 0 1-4.45-3.08m-12.28-58.16l-5.6 1.54a45.09 45.09 0 0 0-2.51 4.65l5.76-1.57.46 1.68a44.35 44.35 0 0 1 2.27-4.92l-.38-1.41"/><path class="cls-26" d="M158 112.65l2.28 8.29.14.06-2.25-8.22-.17-.13m-22.2-29.93a13 13 0 0 1-1.31.39l-.78.19a45.22 45.22 0 0 0 .74 5.38 14.16 14.16 0 0 0 2.88-.66 1.61 1.61 0 0 1-.51-1.53 1.58 1.58 0 0 1 1-1.15 1 1 0 0 1-.33.06h-.23a1.11 1.11 0 0 1-.85-1.28 1.08 1.08 0 0 1 .27-.52 1.09 1.09 0 0 1-.89-.84M141 80l-.25.19a20 20 0 0 1-3 1.71 1.11 1.11 0 0 1 .16.76 1.07 1.07 0 0 1-.25.55 1.12 1.12 0 0 1 .87 1.31 1.07 1.07 0 0 1-.72.81 1.69 1.69 0 0 1 .45-.07 2 2 0 0 1 .34 0 1.58 1.58 0 0 1 1.21 1.58 15.37 15.37 0 0 0 1.82-1.19A46.3 46.3 0 0 1 141 80M143.55 59.23l-5.76 1.57a44.8 44.8 0 0 0-4 15.24 1 1 0 0 1 .16.28v.21h.15a1 1 0 0 1 .3 0A1.7 1.7 0 0 1 136 78a1.52 1.52 0 0 1 0 .57 7.15 7.15 0 0 0 .74-.36 13.38 13.38 0 0 0 4.3-3.4 45 45 0 0 1 3-13.82l-.46-1.68"/><path class="cls-27" d="M137.33 88a14.16 14.16 0 0 1-2.88.66 45.1 45.1 0 0 0 25.82 32.26l-2.27-8.27a45.33 45.33 0 0 1-10.18-11.34 1.52 1.52 0 0 1-.42.06 1.69 1.69 0 0 1-1.45-.84 1.48 1.48 0 0 1-.17-1h-.12a.9.9 0 0 1-.66-.31 1.41 1.41 0 0 1-.45.07 1.65 1.65 0 0 1-1.55-1.1 1.54 1.54 0 0 1-.06-.73h-.23a1.67 1.67 0 0 1-1.58-1.38 1.27 1.27 0 0 1 0-.7 1.63 1.63 0 0 1-1.09-.48 1.81 1.81 0 0 1-.48-1.14 1.49 1.49 0 0 1 .55-1.17 1.36 1.36 0 0 1-.36 0h-.13a1.62 1.62 0 0 1-1.39-1.82 1.52 1.52 0 0 1 .26-.67.91.91 0 0 1-.12-.63.83.83 0 0 1 .2-.42.89.89 0 0 1-.69-.77 1.77 1.77 0 0 1-.59-.32m4.35-2.32a15.37 15.37 0 0 1-1.82 1.19 1.27 1.27 0 0 1 0 .28 1.59 1.59 0 0 1-.31.64.88.88 0 0 1 .11.62.85.85 0 0 1-.21.41.91.91 0 0 1 .7.74 1.53 1.53 0 0 1 1.2 1.67 1.64 1.64 0 0 1-.62 1.09 2 2 0 0 1 .42 0h.07a1.51 1.51 0 0 1 1.5 1.44 1.59 1.59 0 0 1-.11.65h.06a1.5 1.5 0 0 1 1.52 1.21 1.72 1.72 0 0 1 0 .68 1.37 1.37 0 0 1 .34 0 1.52 1.52 0 0 1 .62.13 44.81 44.81 0 0 1-3.43-10.67"/><path d="M133.61 79.35v.45c0 1.18.05 2.34.14 3.49l.78-.19a13 13 0 0 0 1.31-.39 1.2 1.2 0 0 1 0-.38 1.09 1.09 0 0 1 .29-.61h-.21a1.74 1.74 0 0 1-.9-.26 1.51 1.51 0 0 1-.54-1.91 1.67 1.67 0 0 1-.82-.23m7.34-4.58a13.38 13.38 0 0 1-4.3 3.4 7.15 7.15 0 0 1-.74.36v.13a1.4 1.4 0 0 1 .67.22 1.62 1.62 0 0 1 .54 2.26 1.35 1.35 0 0 1-.25.28h.08a1.09 1.09 0 0 1 .78.51 20 20 0 0 0 3-1.71L141 80c0-.88-.08-1.77-.08-2.67 0-.87 0-1.74.08-2.6" fill="#a0afcf"/><path class="cls-29" d="M138.31 85.27a1.69 1.69 0 0 0-.45.07 1.58 1.58 0 0 0-1 1.15 1.61 1.61 0 0 0 .51 1.53 1.77 1.77 0 0 0 .59.32.89.89 0 0 0 .69.77.83.83 0 0 0-.2.42.91.91 0 0 0 .12.63 1.52 1.52 0 0 0-.26.67 1.62 1.62 0 0 0 1.39 1.82h.13a1.36 1.36 0 0 0 .36 0 1.49 1.49 0 0 0-.55 1.17 1.81 1.81 0 0 0 .48 1.14 1.63 1.63 0 0 0 1.09.48 1.27 1.27 0 0 0 0 .7 1.67 1.67 0 0 0 1.58 1.38h.23a1.54 1.54 0 0 0 .06.73 1.65 1.65 0 0 0 1.55 1.14 1.41 1.41 0 0 0 .45-.07.9.9 0 0 0 .66.31h.12a1.48 1.48 0 0 0 .17 1 1.69 1.69 0 0 0 1.45.84 1.52 1.52 0 0 0 .42-.06 44.46 44.46 0 0 1-2.7-4.94 1.52 1.52 0 0 0-.62-.13 1.37 1.37 0 0 0-.34 0 1.72 1.72 0 0 0 0-.68 1.5 1.5 0 0 0-1.52-1.21h-.06a1.59 1.59 0 0 0 .11-.65 1.51 1.51 0 0 0-1.5-1.44h-.07a2 2 0 0 0-.42 0 1.64 1.64 0 0 0 .62-1.09 1.53 1.53 0 0 0-1.2-1.67.91.91 0 0 0-.7-.74.85.85 0 0 0 .21-.41.88.88 0 0 0-.11-.62 1.59 1.59 0 0 0 .31-.64 1.27 1.27 0 0 0 0-.28 1.58 1.58 0 0 0-1.21-1.58 2 2 0 0 0-.34 0M133.73 76.05c-.09 1.08-.14 2.18-.15 3.28a1.67 1.67 0 0 0 .82.23 1.51 1.51 0 0 0 .54 1.91 1.74 1.74 0 0 0 .9.26h.21a1.09 1.09 0 0 0-.29.61 1.2 1.2 0 0 0 0 .38 1.09 1.09 0 0 0 .89.84 1.08 1.08 0 0 0-.27.52 1.11 1.11 0 0 0 .85 1.28h.23a1 1 0 0 0 .33-.06 1.07 1.07 0 0 0 .72-.81 1.12 1.12 0 0 0-.87-1.31 1.07 1.07 0 0 0 .25-.55 1.11 1.11 0 0 0-.16-.76 1.09 1.09 0 0 0-.78-.51h-.13a1.35 1.35 0 0 0 .25-.28 1.62 1.62 0 0 0-.54-2.26 1.4 1.4 0 0 0-.67-.22v-.13a1.52 1.52 0 0 0 0-.57 1.7 1.7 0 0 0-1.6-1.47 1 1 0 0 0-.3 0h-.15v-.21a1 1 0 0 0-.16-.28"/><path class="cls-7" d="M230.94 77.34a45 45 0 1 1-45-45 45 45 0 0 1 45 45"/><path class="cls-22" d="M229 77.15A43.13 43.13 0 1 1 185.82 34 43.13 43.13 0 0 1 229 77.15"/><path d="M176.21 48.34a30.89 30.89 0 1 0 15.43 59 29.91 29.91 0 0 1-5.72.54 30.58 30.58 0 0 1-9.71-59.58" fill="#bcbcc9"/><path class="cls-3" d="M147.61 51.37c1.36-8.56 7.55-15 12.9-14.11s8.58 8.48 7.22 17-6.8 14.81-12.15 14-9.33-8.33-7.97-16.89z"/><path class="cls-3" d="M155.58 68.26c-5.35-.85-9.33-8.33-8-16.89s7.55-15 12.9-14.11"/><path class="cls-4" d="M149.94 51.26c1.1-6.9 5.48-11.93 9.79-11.25s6.91 6.84 5.82 13.73-5.48 11.93-9.79 11.26-6.92-6.84-5.82-13.74z"/><path class="cls-3" d="M157.87 67.31l-.67-2.16h-2.09l-1.33 1.67s-3.37 21.6-8.87 41.64c0 0-2.31 9.27 3.1 10.2h.06c5.43.79 6.11-8.73 6.11-8.73-.11-19.93 3.69-42.62 3.69-42.62z"/><path d="M230.93 78.55c0 .62-.05 1.22-.09 1.83h.16v-1.82" fill="#6d6e80"/><path d="M230.82 75.44l-1.9.25v1.46c0 1.17 0 2.32-.14 3.46l2-.23c0-.61.07-1.21.09-1.83 0-1.22-.07-2.58-.07-2.58v-.53" fill="#c1c1cc"/><path d="M228.92 75.69l-10.25 1.36h.05l-2.22.29a30.16 30.16 0 0 1-.36 4.68l12.67-1.46c.09-1.14.14-2.29.14-3.46v-1.46" fill="#b1b1be"/><path class="cls-34" d="M236.55 71c-.3-5.29-5.89-4.41-5.89-4.41l-15.27 2a40.31 40.31 0 0 1 1.24 8.41v.36l14.62-1.93c5.89-.89 5.3-4.42 5.3-4.42"/><path d="M217.58 68.25l-2.34.36a32.1 32.1 0 0 1 1 4.54h.06a39 39 0 0 0-.89-4.53l2.15-.29a.28.28 0 0 0 0-.07" fill="#a3a3b2"/><path d="M216.28 73.14h-.06a32.17 32.17 0 0 1 .28 4.19l2.22-.29h-.05l-2 .27v-.36c-.06-1.27-.17-2.55-.35-3.82" fill="#7c7c8e"/><path d="M217.54 68.32l-2.15.29a39 39 0 0 1 .89 4.53c.18 1.27.29 2.55.35 3.82v.36l2-.27c-3.73-3.51-1.46-8.1-1.13-8.73" fill="#a8a9ba"/><path class="cls-7" d="M216.5 77.34a30.58 30.58 0 1 1-30.58-30.58 30.58 30.58 0 0 1 30.58 30.58"/><path class="cls-38" d="M213.48 77.34a27.56 27.56 0 1 1-27.56-27.56 27.56 27.56 0 0 1 27.56 27.56"/><path d="M211.16 77.34a25.24 25.24 0 1 1-25.24-25.24 25.24 25.24 0 0 1 25.24 25.24" fill="#443022"/><path d="M210.14 70.22a25.24 25.24 0 0 0-48.37-.22v.11a26.14 26.14 0 0 0 18.46 5c5.46-.65 10.49-2.89 15.82-4.11a42.84 42.84 0 0 1 14.1-.8" fill="#7a5743"/><path fill="#37271d" d="M185.87 102.58"/><path d="M186.8 52.11a25.25 25.25 0 0 1 23.34 18.11 43.08 43.08 0 0 0-4.69-.25h-1.84a25.26 25.26 0 0 1-20.92 32.36 25.6 25.6 0 0 0 3.18.21 25.24 25.24 0 0 0 .88-50.47m-.2 0" fill="#120905"/><path d="M185.92 52.1a26.55 26.55 0 0 0-3.23.21A25.29 25.29 0 0 1 203.61 70h1.84a43.08 43.08 0 0 1 4.69.25 25.25 25.25 0 0 0-23.34-18.14h-.88" fill="#211009"/><path d="M166.55 84.07a22.53 22.53 0 0 1-1.06-6.86 22.3 22.3 0 0 1 1.21-7.29 26.79 26.79 0 0 1 6-10.79 22.56 22.56 0 0 0-.19 36 27 27 0 0 1-5.96-11.06z" fill="#c9a793"/><path class="cls-45" d="M221.24 203.53l-26.7-5.74a12.1 12.1 0 0 1-9.25-14.32l10.77-50.05a12.09 12.09 0 0 1 14.32-9.25l26.69 5.74a12.08 12.08 0 0 1 9.25 14.32l-10.76 50.05a12.1 12.1 0 0 1-14.32 9.25"/><path d="M186 190.62a6.59 6.59 0 0 0 2.34 3.63 12.14 12.14 0 0 1-2.34-3.63m12.39-65.1a12.06 12.06 0 0 0-8.18 9l-8.8 40.87V194a12.07 12.07 0 0 0 7.28 4.81l26.69 5.74a12.16 12.16 0 0 0 2.53.27 12 12 0 0 0 4.82-1l-1.39-.3h-.06l-26.7-5.74-5.39-1.16a6.54 6.54 0 0 1-5-7.74l9.1-42.32 2.83-13.14 1.16-5.4a.29.29 0 0 0 0-.09v-.22a6.39 6.39 0 0 1 1-2.18M202 125a12.14 12.14 0 0 0-2.34.23 6.29 6.29 0 0 0-.61 1.67l-.25 1.15a12.26 12.26 0 0 1 4.08-3h-.9" fill="#737487"/><path d="M194.53 197.78l26.7 5.74h.06l-26.77-5.76m39.25-21.59a3.47 3.47 0 0 1-.57.37l.31.07h.16l.1-.46m-22.37 12.6v-.16a1.89 1.89 0 0 1 1.53-1.45 1.92 1.92 0 0 0-.49.91 3.51 3.51 0 0 1 2.06-.68 3 3 0 0 1 .73.08l1.93.41a3.48 3.48 0 0 1 2.66 4.12l-.42 1.93a3.46 3.46 0 0 1-1.91 2.41l.35.07a1.55 1.55 0 0 0 .37 0 1.66 1.66 0 0 0 .32 0 1.86 1.86 0 0 1-1.34.58 2.58 2.58 0 0 1-.39 0h-.16a3.44 3.44 0 0 1-2 .62 3.68 3.68 0 0 1-.73-.07l-1.92-.42a3.48 3.48 0 0 1-2.67-4.12l.42-1.93a3.46 3.46 0 0 1 1.61-2.24m-10.83-2.22l.06-.26a1.86 1.86 0 0 1 1.53-1.45 1.92 1.92 0 0 0-.49.88 3.52 3.52 0 0 1 2-.65 3 3 0 0 1 .73.08l1.93.41a3.48 3.48 0 0 1 2.72 4.1l-.42 1.93a3.48 3.48 0 0 1-1.91 2.41l.38.08a2.45 2.45 0 0 0 .38 0 1.73 1.73 0 0 0 .32 0 1.87 1.87 0 0 1-1.35.57 1.72 1.72 0 0 1-.39 0H206a3.42 3.42 0 0 1-2.81.62l-1.93-.41a3.48 3.48 0 0 1-2.66-4.12l.41-1.93a3.44 3.44 0 0 1 1.61-2.24m-10.84-2.34l.06-.25a1.88 1.88 0 0 1 1.53-1.46 1.9 1.9 0 0 0-.49.89 3.55 3.55 0 0 1 2.75-.58l1.93.42a3.48 3.48 0 0 1 2.66 4.12l-.41 1.93a3.48 3.48 0 0 1-1.92 2.4l.38.09a2.58 2.58 0 0 0 .38 0 1.73 1.73 0 0 0 .32 0 1.87 1.87 0 0 1-1.35.57 1.72 1.72 0 0 1-.39 0h-.07a3.42 3.42 0 0 1-2.81.62l-1.93-.42a3.48 3.48 0 0 1-2.66-4.12l.41-1.92a3.49 3.49 0 0 1 1.61-2.25m24.06-6.57v-.16a1.86 1.86 0 0 1 1.53-1.45 1.77 1.77 0 0 0-.49.9v.11a3.46 3.46 0 0 1 2.07-.69 3.53 3.53 0 0 1 .72.08l1.93.42a3.46 3.46 0 0 1 2.66 4.12l-.41 1.92a3.51 3.51 0 0 1-1.79 2.35l.24.05a1.64 1.64 0 0 0 .38 0 1.73 1.73 0 0 0 .32 0 1.88 1.88 0 0 1-1.35.58 1.74 1.74 0 0 1-.39-.05h-.16a3.44 3.44 0 0 1-2 .62 2.94 2.94 0 0 1-.72-.08l-1.93-.41a3.48 3.48 0 0 1-2.66-4.12l.41-1.93a3.49 3.49 0 0 1 1.61-2.24M203 175.38v-.09a1.88 1.88 0 0 1 1.53-1.46 1.87 1.87 0 0 0-.48.87 3.44 3.44 0 0 1 2-.66 3.71 3.71 0 0 1 .73.08l1.92.41a3.49 3.49 0 0 1 2.67 4.12l-.42 1.93A3.5 3.5 0 0 1 209 183l.41.08a1.69 1.69 0 0 0 .38 0h.32a1.87 1.87 0 0 1-1.35.57 1.72 1.72 0 0 1-.39 0h-.22a3.5 3.5 0 0 1-1.9.57 3.71 3.71 0 0 1-.73-.08l-1.92-.41a3.48 3.48 0 0 1-2.67-4.12l.42-1.93a3.46 3.46 0 0 1 1.61-2.24m-10.84-2.33v-.1a1.86 1.86 0 0 1 1.53-1.45 1.88 1.88 0 0 0-.48.86 3.5 3.5 0 0 1 2-.65 3.71 3.71 0 0 1 .73.08l1.93.41a3.48 3.48 0 0 1 2.66 4.12l-.42 1.93a3.47 3.47 0 0 1-1.95 2.42l.41.09a1.69 1.69 0 0 0 .38 0h.32a1.91 1.91 0 0 1-1.35.57 1.72 1.72 0 0 1-.39 0l-.22-.05a3.5 3.5 0 0 1-1.9.57 3.71 3.71 0 0 1-.73-.08l-1.92-.41a3.47 3.47 0 0 1-2.66-4.12l.41-1.93a3.43 3.43 0 0 1 1.61-2.24m24-6.41v-.16a1.86 1.86 0 0 1 1.53-1.45 1.77 1.77 0 0 0-.49.9v.08a3.51 3.51 0 0 1 2.06-.68 3.61 3.61 0 0 1 .73.07l1.93.42a3.48 3.48 0 0 1 2.66 4.12l-.41 1.93a3.48 3.48 0 0 1-1.83 2.36l.27.06a2.45 2.45 0 0 0 .38 0 1.73 1.73 0 0 0 .32 0 1.87 1.87 0 0 1-1.35.57 1.72 1.72 0 0 1-.39 0h-.16a3.51 3.51 0 0 1-2 .62 3 3 0 0 1-.73-.08l-1.93-.41a3.48 3.48 0 0 1-2.66-4.12l.41-1.93a3.49 3.49 0 0 1 1.61-2.24m-10.8-2.33v-.15a1.89 1.89 0 0 1 1.53-1.46 2 2 0 0 0-.49.91 3.46 3.46 0 0 1 2-.65 3.51 3.51 0 0 1 .72.07l1.93.42a3.48 3.48 0 0 1 2.66 4.12l-.41 1.93a3.48 3.48 0 0 1-1.83 2.36l.31.06a1.55 1.55 0 0 0 .37 0h.32a1.89 1.89 0 0 1-1.34.57 1.72 1.72 0 0 1-.39 0h-.16a3.45 3.45 0 0 1-2 .63 3.71 3.71 0 0 1-.73-.08l-1.72-.58a3.48 3.48 0 0 1-2.67-4.12l.42-1.92a3.45 3.45 0 0 1 1.61-2.25M194.53 162v-.16a1.89 1.89 0 0 1 1.54-1.45 1.85 1.85 0 0 0-.5.91 3.47 3.47 0 0 1 2-.66 3.53 3.53 0 0 1 .72.08l1.93.42a3.47 3.47 0 0 1 2.66 4.12l-.41 1.92a3.5 3.5 0 0 1-1.83 2.37l.31.06a1.58 1.58 0 0 0 .38 0h.32a1.9 1.9 0 0 1-1.35.58 1.72 1.72 0 0 1-.39 0h-.16a3.45 3.45 0 0 1-2 .63 3.71 3.71 0 0 1-.73-.08l-1.92-.42a3.48 3.48 0 0 1-2.67-4.12l.42-1.93a3.46 3.46 0 0 1 1.61-2.24m13.24-8.85a1.89 1.89 0 0 1 1.54-1.45 1.85 1.85 0 0 0-.5.91 3.5 3.5 0 0 1 2-.65 3.08 3.08 0 0 1 .73.08l1.93.41a3.48 3.48 0 0 1 2.66 4.12l-.42 1.93a3.48 3.48 0 0 1-1.86 2.38l.34.07a1.64 1.64 0 0 0 .38 0h.32a1.9 1.9 0 0 1-1.35.58 2.58 2.58 0 0 1-.39 0l-.33-.07a3.52 3.52 0 0 1-1.77.49 3.63 3.63 0 0 1-.73-.08l-1.93-.41a3.49 3.49 0 0 1-2.66-4.12l.42-1.93a3.42 3.42 0 0 1 1.6-2.24m-10.83-2.34a1.85 1.85 0 0 1 1.53-1.44 1.85 1.85 0 0 0-.5.91 3.52 3.52 0 0 1 2-.65 3.61 3.61 0 0 1 .73.07l1.93.42a3.48 3.48 0 0 1 2.66 4.12l-.42 1.93a3.48 3.48 0 0 1-1.86 2.38l.34.07a1.64 1.64 0 0 0 .38 0h.32a1.9 1.9 0 0 1-1.35.58 1.74 1.74 0 0 1-.39 0l-.33-.07a3.4 3.4 0 0 1-1.77.5 3.63 3.63 0 0 1-.73-.08l-1.93-.42a3.48 3.48 0 0 1-2.66-4.12l.42-1.92a3.45 3.45 0 0 1 1.61-2.25m-1.64-6.68l-9.38 43.61a6.44 6.44 0 0 0 0 2.9 12.14 12.14 0 0 0 2.34 3.63 6.52 6.52 0 0 0 2.62 1.22l33.77 7.26a12.24 12.24 0 0 0 2.83-2.69 2 2 0 0 1-.71.14 1.9 1.9 0 0 1-.4-.05l-5-1.08a1.89 1.89 0 0 1-1.44-2.23l3.45-16a1.87 1.87 0 0 1 1.56-1.46 1.91 1.91 0 0 1 1.28-.84 1.8 1.8 0 0 0-.48.85 3.42 3.42 0 0 1 2.74-.57l1.93.42a3.43 3.43 0 0 1 2.34 1.78l.85-3.92a1.83 1.83 0 0 1-.73.15 1.72 1.72 0 0 1-.39 0h-.16a3.52 3.52 0 0 1-2 .62 2.94 2.94 0 0 1-.72-.08l-1.93-.41a3.47 3.47 0 0 1-2.66-4.12l.41-1.93a3.46 3.46 0 0 1 1.61-2.24v-.16a1.89 1.89 0 0 1 1.54-1.45 1.86 1.86 0 0 0-.5.9 3.4 3.4 0 0 1 2-.65 3 3 0 0 1 .73.08l1.93.41a3.46 3.46 0 0 1 2.34 1.79L236 166a1.83 1.83 0 0 1-.73.15 1.72 1.72 0 0 1-.39 0l-.33-.07a3.42 3.42 0 0 1-2.5.41l-12.76-2.74a3.48 3.48 0 0 1-2.66-4.12l.41-1.93a3.49 3.49 0 0 1 1.61-2.24 1.89 1.89 0 0 1 1.84-1.48 1.72 1.72 0 0 1 .39 0l15.88 3.42a1.83 1.83 0 0 1 1 .56l1-4.56-43.38-9.33m.76-10.7l-2.83 13.14 2.83-13.15m6.8-8.42a12.26 12.26 0 0 0-4.08 3l40.14 8.74a12 12 0 0 0-7.86-5.71l-26.69-5.74a11.66 11.66 0 0 0-1.63-.24" fill="#171836"/><path class="cls-48" d="M244.09 154.61l-50.26-10.81 3.46-16.1 50.27 10.81-3.47 16.1"/><path class="cls-49" d="M196.94 150.79a3.45 3.45 0 0 0-1.61 2.25l-.42 1.92a3.48 3.48 0 0 0 2.66 4.12l1.93.42a3.63 3.63 0 0 0 .73.08 3.4 3.4 0 0 0 1.77-.5l-1.18-.25-1.92-.42-1.53-.33a1.88 1.88 0 0 1-1.44-2.23l1.08-5"/><path d="M239.58 150.32l-39.5-8.5a1.33 1.33 0 0 1-1-1.59l1.66-7.75a1.36 1.36 0 0 1 1.6-1l39.5 8.5a1.35 1.35 0 0 1 1 1.6l-1.67 7.75a1.34 1.34 0 0 1-1.59 1" fill="#73cec6"/><path class="cls-51" d="M200.77 158.82l-1.92-.42a3.48 3.48 0 0 1-2.67-4.12l.42-1.92a3.48 3.48 0 0 1 4.12-2.67l1.93.42a3.48 3.48 0 0 1 2.66 4.12l-.42 1.93a3.48 3.48 0 0 1-4.12 2.66"/><path class="cls-49" d="M207.77 153.13a3.42 3.42 0 0 0-1.6 2.24l-.42 1.93a3.49 3.49 0 0 0 2.66 4.12l1.93.41a3.63 3.63 0 0 0 .73.08 3.52 3.52 0 0 0 1.77-.49l-2.19-.48-1-.2-1.55-.33a1.88 1.88 0 0 1-1.44-2.23l.33-1.53.18-.81.57-2.68M194.53 162a3.46 3.46 0 0 0-1.61 2.24l-.42 1.93a3.48 3.48 0 0 0 2.67 4.12l1.92.42a3.71 3.71 0 0 0 .73.08 3.45 3.45 0 0 0 2-.63l-1-.21-.4-.06-1.93-.42a2.5 2.5 0 0 1-.39-.11l-1.16-.25a1.88 1.88 0 0 1-1.44-2.23l1.05-4.88M205.37 164.31a3.45 3.45 0 0 0-1.61 2.25l-.42 1.92a3.48 3.48 0 0 0 2.66 4.12l1.92.42a3.71 3.71 0 0 0 .73.08 3.45 3.45 0 0 0 2-.63l-1-.21a2.76 2.76 0 0 1-.4-.06l-1.93-.42a2.62 2.62 0 0 1-.4-.11l-1.15-.25a1.88 1.88 0 0 1-1.44-2.23l1.05-4.88M192.15 173.05a3.43 3.43 0 0 0-1.61 2.24l-.41 1.93a3.47 3.47 0 0 0 2.66 4.12l1.92.41a3.71 3.71 0 0 0 .73.08 3.5 3.5 0 0 0 1.9-.57l-4.82-1a1.89 1.89 0 0 1-1.44-2.23l1.07-4.94M203 175.38a3.46 3.46 0 0 0-1.61 2.24l-.42 1.93a3.48 3.48 0 0 0 2.67 4.12l1.92.41a3.71 3.71 0 0 0 .73.08 3.5 3.5 0 0 0 1.9-.57l-4.82-1a1.89 1.89 0 0 1-1.44-2.23l1.07-5M189.74 184.23a3.49 3.49 0 0 0-1.61 2.25l-.41 1.92a3.48 3.48 0 0 0 2.66 4.12l1.93.42a3.42 3.42 0 0 0 2.81-.62l-5-1.07a1.89 1.89 0 0 1-1.44-2.23l1-4.79M200.58 186.57a3.44 3.44 0 0 0-1.61 2.24l-.41 1.93a3.48 3.48 0 0 0 2.66 4.12l1.93.41a3.42 3.42 0 0 0 2.81-.62l-5-1.07a1.89 1.89 0 0 1-1.44-2.23l1-4.78"/><path class="cls-51" d="M211.61 161.15l-1.93-.41a3.48 3.48 0 0 1-2.66-4.12l.42-1.93a3.47 3.47 0 0 1 4.12-2.66l1.93.41a3.48 3.48 0 0 1 2.66 4.12l-.42 1.93a3.48 3.48 0 0 1-4.12 2.66M198.4 169.87l-1.93-.42a3.48 3.48 0 0 1-2.66-4.12l.41-1.93a3.48 3.48 0 0 1 4.12-2.66l1.93.42a3.47 3.47 0 0 1 2.66 4.12l-.41 1.92a3.48 3.48 0 0 1-4.12 2.67M209.24 172.2l-1.93-.42a3.47 3.47 0 0 1-2.66-4.12l.41-1.93a3.48 3.48 0 0 1 4.12-2.66l1.93.42a3.48 3.48 0 0 1 2.66 4.12l-.41 1.93a3.48 3.48 0 0 1-4.12 2.66"/><path class="cls-49" d="M216.17 166.64a3.49 3.49 0 0 0-1.61 2.24l-.41 1.93a3.48 3.48 0 0 0 2.66 4.12l1.93.41a3 3 0 0 0 .73.08 3.51 3.51 0 0 0 2-.62l-1-.21a2.76 2.76 0 0 1-.4-.06l-1.93-.42a1.82 1.82 0 0 1-.4-.11l-1.19-.25a1.89 1.89 0 0 1-1.44-2.23l1-4.88"/><path class="cls-51" d="M220.08 174.53l-1.93-.42a3.46 3.46 0 0 1-2.66-4.12l.41-1.92a3.48 3.48 0 0 1 4.1-2.67l1.93.42a3.48 3.48 0 0 1 2.66 4.12l-.41 1.93a3.49 3.49 0 0 1-4.12 2.66"/><path class="cls-49" d="M227.05 169a3.46 3.46 0 0 0-1.61 2.24l-.41 1.93a3.47 3.47 0 0 0 2.66 4.12l1.93.41a2.94 2.94 0 0 0 .72.08 3.52 3.52 0 0 0 2-.62l-1-.22a2.9 2.9 0 0 1-.41-.06l-1.92-.41-.4-.11-1.15-.25a1.88 1.88 0 0 1-1.44-2.23l.29-1.37v-.16l.42-1.93a.94.94 0 0 1 0-.16L227 169"/><path class="cls-51" d="M230.91 176.86l-1.92-.41a3.49 3.49 0 0 1-2.67-4.12l.42-1.93a3.46 3.46 0 0 1 4.12-2.66l1.93.41a3.48 3.48 0 0 1 2.66 4.12l-.45 1.93a3.48 3.48 0 0 1-4.12 2.66M196 180.91l-1.93-.41a3.48 3.48 0 0 1-2.66-4.12l.42-1.93a3.47 3.47 0 0 1 4.12-2.66l1.93.41a3.48 3.48 0 0 1 2.66 4.12l-.42 1.93a3.47 3.47 0 0 1-4.12 2.66"/><path class="cls-49" d="M213.8 177.66a3.49 3.49 0 0 0-1.61 2.24l-.41 1.93a3.48 3.48 0 0 0 2.66 4.12l1.93.41a2.94 2.94 0 0 0 .72.08 3.44 3.44 0 0 0 2-.62l-.79-.17a4 4 0 0 1-.58-.07l-1.93-.42a3.62 3.62 0 0 1-.56-.17l-1-.22a1.89 1.89 0 0 1-1.44-2.23l1.05-4.88M211.41 188.79a3.46 3.46 0 0 0-1.61 2.21l-.42 1.93a3.48 3.48 0 0 0 2.67 4.12l1.92.42a3.68 3.68 0 0 0 .73.07 3.44 3.44 0 0 0 2-.62l-4.88-1a1.88 1.88 0 0 1-1.44-2.23l1-4.88"/><path class="cls-51" d="M206.86 183.24l-1.93-.41a3.48 3.48 0 0 1-2.66-4.12l.42-1.93a3.48 3.48 0 0 1 4.12-2.66l1.92.41a3.49 3.49 0 0 1 2.67 4.12l-.42 1.93a3.47 3.47 0 0 1-4.12 2.66M217.7 185.58l-1.93-.42a3.48 3.48 0 0 1-2.66-4.12l.42-1.93a3.47 3.47 0 0 1 4.11-2.66l1.93.42a3.46 3.46 0 0 1 2.66 4.12l-.41 1.92a3.48 3.48 0 0 1-4.12 2.67"/><path d="M228.39 199.31H228c-.16.24-.32.48-.49.71a1.93 1.93 0 0 0 .87-.73m.29-.78l-.26.14.22.05v-.16" fill="#080818"/><path class="cls-49" d="M224.94 179.34a1.87 1.87 0 0 0-1.56 1.46l-3.45 16a1.89 1.89 0 0 0 1.44 2.23l5 1.08a1.9 1.9 0 0 0 .4.05 2 2 0 0 0 .71-.14c.17-.23.33-.47.49-.71h-.29l-5-1.08a1.88 1.88 0 0 1-1.44-2.23l.3-1.41v-.15l.42-1.93v-.15l.49-2.24a1 1 0 0 1 0-.17l1.82-8.49a.94.94 0 0 0 0-.16l.29-1.33a1.83 1.83 0 0 1 .25-.61"/><path class="cls-51" d="M227.13 194.47l-1.93-.42a3.47 3.47 0 0 1-2.66-4.12l1.82-8.49a3.48 3.48 0 0 1 4.12-2.66l1.93.42a3.47 3.47 0 0 1 2.66 4.12l-1.82 8.49a3.48 3.48 0 0 1-4.12 2.66M193.65 192l-1.93-.42a3.47 3.47 0 0 1-2.66-4.12l.41-1.92a3.48 3.48 0 0 1 4.12-2.67l1.93.42a3.48 3.48 0 0 1 2.66 4.12l-.41 1.93a3.48 3.48 0 0 1-4.12 2.66M204.49 194.29l-1.93-.41a3.47 3.47 0 0 1-2.66-4.12l.41-1.93a3.47 3.47 0 0 1 4.12-2.66l1.93.41a3.48 3.48 0 0 1 2.64 4.12l-.42 1.93a3.47 3.47 0 0 1-4.11 2.66M215.32 196.62l-1.92-.41a3.48 3.48 0 0 1-2.67-4.12l.42-1.93a3.47 3.47 0 0 1 4.12-2.66l1.93.41a3.48 3.48 0 0 1 2.66 4.12l-.42 1.93a3.48 3.48 0 0 1-4.12 2.66"/><path class="cls-51" d="M226.16 199l-1.93-.41a3.48 3.48 0 0 1-2.66-4.12l.42-1.93a3.47 3.47 0 0 1 4.12-2.66l1.93.41a3.48 3.48 0 0 1 2.66 4.12l-.42 1.93a3.47 3.47 0 0 1-4.12 2.66"/><path class="cls-49" d="M218.61 155.46a3.49 3.49 0 0 0-1.61 2.24l-.41 1.93a3.48 3.48 0 0 0 2.66 4.12l12.75 2.74a3.42 3.42 0 0 0 2.5-.41l-15.5-3.35a1.88 1.88 0 0 1-1.44-2.23l1.08-5"/><path class="cls-14" d="M236.72 157.44L220.84 154a1.89 1.89 0 0 0-2.23 1.44l-1.08 5a1.88 1.88 0 0 0 1.44 2.23l15.88 3.42a1.88 1.88 0 0 0 2.23-1.44l1.08-5a1.88 1.88 0 0 0-1.44-2.23"/><path class="cls-7" d="M194.4 188.6l.09-.41-1.58-.34.25-1.16 1.17.25-.34 1.57.41.09.09-.41-.09.41.41.09.51-2.39-2.8-.6-.6 2.8 2.8.6.09-.41-.41-.09zM205.27 190.94l.09-.41-1.58-.34.25-1.16 1.18.25-.34 1.57.4.09.09-.41-.09.41.41.09.51-2.39-2.79-.6-.61 2.8 2.8.6.09-.41-.41-.09zM216.07 193.26l.09-.4-1.57-.34.25-1.17 1.17.25-.34 1.58.4.08.09-.4-.09.4.41.09.52-2.39-2.8-.6-.6 2.8 2.79.6.09-.41-.41-.09zM196.75 177.65l.09-.4-1.58-.34.25-1.17 1.17.25-.34 1.57.41.09.09-.4-.09.4.41.09.51-2.39-2.79-.6-.61 2.8 2.8.6.09-.41-.41-.09zM207.63 179.99l.09-.4-1.58-.34.25-1.17 1.17.25-.34 1.58.41.08.09-.4-.09.4.41.09.51-2.39-2.8-.6-.6 2.79 2.8.61.09-.41-.41-.09zM218.43 182.31l.09-.4-1.58-.34.25-1.17 1.17.25-.34 1.58.41.08.09-.4-.09.4.41.09.51-2.39-2.8-.6-.6 2.8 2.8.6.09-.41-.41-.09zM228.17 189.77l.08-.41-1.57-.33.25-1.18 1.17.26-.34 1.57.41.09.08-.41-.08.41.4.09.52-2.39-2.8-.6-.6 2.79 2.8.61.08-.41-.4-.09zM199.13 166.58l.09-.41-1.57-.34.25-1.17 1.17.25-.34 1.58.4.09.09-.41-.09.41.41.09.52-2.39-2.8-.61-.6 2.8 2.8.6.08-.4-.41-.09zM201.51 155.52l.09-.41-1.57-.34.25-1.17 1.16.25-.33 1.58.4.09.09-.41-.09.41.41.08.52-2.39-2.8-.6-.61 2.8 2.8.6.09-.41-.41-.08zM210.01 168.92l.09-.41-1.58-.34.25-1.17 1.17.25-.34 1.58.41.09.09-.41-.09.41.41.08.51-2.39-2.8-.6-.6 2.8 2.8.6.09-.41-.41-.08zM220.81 171.24l.09-.41-1.58-.34.25-1.17 1.17.26-.33 1.57.4.09.09-.41-.09.41.41.09.51-2.39-2.79-.6-.61 2.79 2.8.61.09-.41-.41-.09zM231.65 173.57l.09-.41-1.58-.33.25-1.17 1.17.25-.34 1.58.41.08.09-.41-.09.41.41.09.51-2.39-2.8-.6-.6 2.8 2.8.6.09-.41-.41-.09zM210.35 156.84l2.21.48.17-.82-2.2-.47"/><path d="M234.51 166.08l.33.07-.34-.07" fill="#0d0e22"/><path fill="#03030d" d="M218.97 162.73l15.54 3.35-15.54-3.35"/><path class="cls-55" d="M220.15 154a1.89 1.89 0 0 0-1.54 1.45l-1.08 5a1.88 1.88 0 0 0 1.44 2.23l15.54 3.35.34.07a1.64 1.64 0 0 0 .38 0 1.88 1.88 0 0 0 1.34-.58 1.66 1.66 0 0 1-.32 0 1.55 1.55 0 0 1-.37 0L220 162.19a1.88 1.88 0 0 1-1.44-2.23l1.08-5a1.85 1.85 0 0 1 .5-.91"/><path class="cls-56" d="M213.87 160.87a3.54 3.54 0 0 1-.57.22 3.83 3.83 0 0 1-.46.33l.33.07a2.58 2.58 0 0 0 .39 0 1.9 1.9 0 0 0 1.35-.58h-.32a1.64 1.64 0 0 1-.38 0l-.34-.07m-4.56-9.19a1.89 1.89 0 0 0-1.54 1.45 3.21 3.21 0 0 1 .83-.36l.21-.17a1.85 1.85 0 0 1 .5-.91"/><path class="cls-57" d="M210.65 160.94l2.19.48a3.83 3.83 0 0 0 .46-.33 3.43 3.43 0 0 1-1 .14 3.71 3.71 0 0 1-.73-.08l-1-.21m-3.63-4.3l-.33 1.53a1.88 1.88 0 0 0 1.44 2.23l1.55.33a3.47 3.47 0 0 1-2.66-4.09m1.58-3.87a3.21 3.21 0 0 0-.83.36l-.57 2.68.24-1.12a3.43 3.43 0 0 1 1.16-1.92"/><path class="cls-58" d="M208.81 152.6l-.21.17a3.43 3.43 0 0 0-1.16 1.92l-.24 1.12-.18.83a3.47 3.47 0 0 0 2.66 4.09l1 .21 1 .21a3.71 3.71 0 0 0 .73.08 3.43 3.43 0 0 0 1-.14 3.54 3.54 0 0 0 .57-.22l-4.7-1a1.88 1.88 0 0 1-1.44-2.23l1.08-5"/><path class="cls-56" d="M211.53 171.9a3 3 0 0 1-.41.18 3.56 3.56 0 0 1-.48.39h.16a1.72 1.72 0 0 0 .39 0 1.89 1.89 0 0 0 1.34-.57h-.32a1.55 1.55 0 0 1-.37 0l-.31-.06m-4.6-9.2a1.89 1.89 0 0 0-1.53 1.46v.15a2.27 2.27 0 0 0 1.06-.66 2 2 0 0 1 .49-.91"/><path class="cls-57" d="M211.12 172.08a3.48 3.48 0 0 1-1.16.19h-.32l1 .21a3.56 3.56 0 0 0 .48-.39M206 164a3 3 0 0 0-.63.29l-1.05 4.88a1.88 1.88 0 0 0 1.44 2.23l1.15.25a3.48 3.48 0 0 1-2.26-4l.41-1.93A3.43 3.43 0 0 1 206 164"/><path class="cls-58" d="M206.43 163.65a3 3 0 0 0-.43.37 3.43 3.43 0 0 0-.94 1.71l-.41 1.93a3.48 3.48 0 0 0 2.26 4l2.73.59h.36a3.48 3.48 0 0 0 1.16-.19 3 3 0 0 0 .41-.18l-4.73-1a1.88 1.88 0 0 1-1.44-2.23l1.07-5"/><path class="cls-56" d="M217.74 165a1.86 1.86 0 0 0-1.53 1.45v.16a3.42 3.42 0 0 1 .7-.32 2.67 2.67 0 0 1 .36-.31v-.08a1.77 1.77 0 0 1 .49-.9"/><path class="cls-57" d="M216.87 166.32a3.42 3.42 0 0 0-.7.32l-1 4.88a1.89 1.89 0 0 0 1.44 2.23l1.19.25a3.47 3.47 0 0 1-2.26-4l.41-1.92a3.48 3.48 0 0 1 1-1.75"/><path class="cls-56" d="M222.37 174.23a3.45 3.45 0 0 1-.48.2 4 4 0 0 1-.45.37h.16a1.72 1.72 0 0 0 .39 0 1.87 1.87 0 0 0 1.35-.57 1.73 1.73 0 0 1-.32 0 2.45 2.45 0 0 1-.38 0l-.27-.06"/><path class="cls-57" d="M221.89 174.43a3.56 3.56 0 0 1-1.09.18h-.32l1 .21a4 4 0 0 0 .45-.37"/><path class="cls-58" d="M217.23 166a2.67 2.67 0 0 0-.36.31 3.48 3.48 0 0 0-1 1.75l-.41 1.92a3.47 3.47 0 0 0 2.26 4l2.73.59h.32a3.56 3.56 0 0 0 1.09-.18 3.45 3.45 0 0 0 .48-.2l-4.77-1a1.88 1.88 0 0 1-1.44-2.23l1.07-5"/><path class="cls-56" d="M228.62 167.37a1.89 1.89 0 0 0-1.54 1.45v.16a3.93 3.93 0 0 1 .62-.3 4 4 0 0 1 .45-.37 1.86 1.86 0 0 1 .5-.9"/><path class="cls-59" d="M234.22 176.64h-.54l-.08.41a1.84 1.84 0 0 0 .62-.42"/><path class="cls-56" d="M233.21 176.56a3 3 0 0 1-.41.18 4.63 4.63 0 0 1-.48.4h.16a1.72 1.72 0 0 0 .39 0 1.83 1.83 0 0 0 .73-.15l.08-.41h-.16l-.31-.07"/><path class="cls-57" d="M232.8 176.74a3.49 3.49 0 0 1-1.16.2h-.32l1 .22a4.63 4.63 0 0 0 .48-.4m-6.51-4.25l-.29 1.37a1.88 1.88 0 0 0 1.44 2.23l1.15.25a3.51 3.51 0 0 1-2.3-3.85m1.38-3.81a3.93 3.93 0 0 0-.62.3l-.27 1.26a3.42 3.42 0 0 1 .89-1.56"/><path class="cls-58" d="M228.12 168.31a4 4 0 0 0-.45.37 3.42 3.42 0 0 0-.89 1.56l-.49 2.25a3.51 3.51 0 0 0 2.3 3.85l2.73.58h.32a3.49 3.49 0 0 0 1.16-.2 3 3 0 0 0 .41-.18l-4.73-1a1.88 1.88 0 0 1-1.44-2.23l1.08-5"/><path class="cls-59" d="M228.64 198.72a2.06 2.06 0 0 1-.25.59 1.91 1.91 0 0 0 1.07-.55h-.32a1.64 1.64 0 0 1-.38 0h-.12"/><path class="cls-56" d="M226.22 178.5a1.91 1.91 0 0 0-1.28.84 1.27 1.27 0 0 1 .28 0 1.72 1.72 0 0 1 .39 0v.08l.11-.09a1.8 1.8 0 0 1 .48-.85"/><path d="M228.42 198.67c-.12.22-.25.44-.39.65h.38a2.06 2.06 0 0 0 .25-.59l-.22-.05" fill="#0d0d27"/><path class="cls-57" d="M221.54 194.57l-.3 1.41a1.88 1.88 0 0 0 1.44 2.23l5 1.08h.29c.14-.21.27-.43.39-.65a3.38 3.38 0 0 1-1.51.35 3.08 3.08 0 0 1-.73-.08l-1.93-.41a3.49 3.49 0 0 1-2.69-4m1-4.47l-.49 2.24a3.6 3.6 0 0 1 .49-1.07 3.53 3.53 0 0 1 0-1.17m2.71-10.78a1.27 1.27 0 0 0-.28 0 1.83 1.83 0 0 0-.25.61l-.29 1.33a3.44 3.44 0 0 1 1.23-1.84v-.08a1.72 1.72 0 0 0-.39 0"/><path class="cls-58" d="M225.74 179.35l-.11.09a3.44 3.44 0 0 0-1.23 1.84l-1.89 8.82a3.53 3.53 0 0 0 0 1.17 3.7 3.7 0 0 1 .85-.87l2.37-11v-.06"/><path class="cls-58" d="M223.36 190.4a3.7 3.7 0 0 0-.85.87 3.6 3.6 0 0 0-.49 1.07l-.48 2.23a3.49 3.49 0 0 0 2.69 4l1.93.41a3.08 3.08 0 0 0 .73.08 3.38 3.38 0 0 0 1.51-.35l-4.7-1a1.88 1.88 0 0 1-1.44-2.23l1.08-5"/><path class="cls-56" d="M220 185.26a4.53 4.53 0 0 1-.55.23 2.69 2.69 0 0 1-.41.33h.16a1.74 1.74 0 0 0 .39.05 1.88 1.88 0 0 0 1.35-.58 1.73 1.73 0 0 1-.32 0 1.64 1.64 0 0 1-.38 0l-.24-.05m-4.66-9.21a1.86 1.86 0 0 0-1.53 1.45v.16a3.2 3.2 0 0 1 .73-.33 2.69 2.69 0 0 1 .32-.27v-.11a1.77 1.77 0 0 1 .49-.9"/><path class="cls-57" d="M219.48 185.49a3.66 3.66 0 0 1-1 .16h-.15l.79.17a2.69 2.69 0 0 0 .41-.33m-4.95-8.16a3.2 3.2 0 0 0-.73.33l-1.05 4.88a1.89 1.89 0 0 0 1.44 2.23l1 .22a3.48 3.48 0 0 1-2.1-4l.42-1.93a3.43 3.43 0 0 1 1-1.78"/><path class="cls-58" d="M214.85 177.06a2.69 2.69 0 0 0-.32.27 3.43 3.43 0 0 0-1 1.78l-.42 1.93a3.48 3.48 0 0 0 2.1 4l3.07.66h.15a3.66 3.66 0 0 0 1-.16 4.53 4.53 0 0 0 .55-.23l-4.8-1a1.88 1.88 0 0 1-1.44-2.22l1.06-4.94"/><path class="cls-56" d="M217.53 196.37l-.32.13a3.24 3.24 0 0 1-.53.45h.16a2.58 2.58 0 0 0 .39 0 1.86 1.86 0 0 0 1.34-.58 1.66 1.66 0 0 1-.32 0 1.55 1.55 0 0 1-.37 0l-.35-.07m-4.53-9.12a1.89 1.89 0 0 0-1.53 1.45v.16a3.92 3.92 0 0 1 .62-.29 3.39 3.39 0 0 1 .45-.4 1.92 1.92 0 0 1 .49-.91"/><path class="cls-57" d="M212 188.5a3.92 3.92 0 0 0-.62.29l-1 4.88a1.88 1.88 0 0 0 1.44 2.23l4.88 1a3.24 3.24 0 0 0 .53-.45 3.49 3.49 0 0 1-1.16.2 3.71 3.71 0 0 1-.73-.08l-1.92-.41a3.48 3.48 0 0 1-2.67-4.12l.42-1.93a3.43 3.43 0 0 1 .88-1.66"/><path class="cls-58" d="M212.48 188.1a3.39 3.39 0 0 0-.45.4 3.43 3.43 0 0 0-.88 1.66l-.42 1.93a3.48 3.48 0 0 0 2.67 4.12l1.92.41a3.71 3.71 0 0 0 .73.08 3.49 3.49 0 0 0 1.16-.2l.32-.13-4.69-1a1.88 1.88 0 0 1-1.44-2.23l1.08-5"/><path class="cls-56" d="M203 158.54a3.54 3.54 0 0 1-.57.22 2.91 2.91 0 0 1-.46.32l.33.07a1.74 1.74 0 0 0 .39 0 1.9 1.9 0 0 0 1.35-.58h-.32a1.64 1.64 0 0 1-.38 0l-.34-.07m-4.56-9.19a1.85 1.85 0 0 0-1.53 1.44 3.78 3.78 0 0 1 .82-.36l.21-.16a1.85 1.85 0 0 1 .5-.91"/><path class="cls-57" d="M202.46 158.76a3.43 3.43 0 0 1-1 .14 3.21 3.21 0 0 1-.68-.07l1.18.25a2.91 2.91 0 0 0 .46-.32m-4.7-8.33a3.78 3.78 0 0 0-.82.36l-1.08 5a1.88 1.88 0 0 0 1.44 2.23l1.53.33a3.5 3.5 0 0 1-2.64-4.12l.42-1.92a3.49 3.49 0 0 1 1.16-1.93"/><path class="cls-58" d="M198 150.27l-.21.16a3.49 3.49 0 0 0-1.16 1.93l-.42 1.92a3.5 3.5 0 0 0 2.64 4.12l2 .43a3.21 3.21 0 0 0 .68.07 3.43 3.43 0 0 0 1-.14 3.54 3.54 0 0 0 .57-.22l-4.7-1a1.89 1.89 0 0 1-1.44-2.23l1.08-5"/><path class="cls-56" d="M200.69 169.57l-.41.17a3.64 3.64 0 0 1-.48.4h.16a1.72 1.72 0 0 0 .39 0 1.9 1.9 0 0 0 1.35-.58h-.32a1.58 1.58 0 0 1-.38 0l-.31-.06m-4.59-9.2a1.89 1.89 0 0 0-1.54 1.45v.16a3.64 3.64 0 0 1 .63-.3 4.82 4.82 0 0 1 .43-.36 1.85 1.85 0 0 1 .5-.91"/><path class="cls-57" d="M200.28 169.74a3.49 3.49 0 0 1-1.16.2h-.32l1 .21a3.64 3.64 0 0 0 .48-.4m-5.12-8.06a3.64 3.64 0 0 0-.63.3l-1.05 4.88a1.88 1.88 0 0 0 1.44 2.23l1.16.25a3.48 3.48 0 0 1-2.27-4l.41-1.93a3.51 3.51 0 0 1 .94-1.72"/><path class="cls-58" d="M195.59 161.32a4.82 4.82 0 0 0-.43.36 3.51 3.51 0 0 0-.94 1.72l-.41 1.93a3.48 3.48 0 0 0 2.27 4l2.72.59h.32a3.49 3.49 0 0 0 1.16-.2l.41-.17-4.73-1a1.88 1.88 0 0 1-1.44-2.23l1.07-5"/><path class="cls-56" d="M209 183l-.27.1a3.79 3.79 0 0 1-.58.48h.22a1.72 1.72 0 0 0 .39 0 1.87 1.87 0 0 0 1.35-.57h-.32a1.69 1.69 0 0 1-.38 0L209 183m-4.49-9.18a1.88 1.88 0 0 0-1.53 1.46v.09a2.84 2.84 0 0 1 .61-.29 2.44 2.44 0 0 1 .46-.39 1.87 1.87 0 0 1 .48-.87"/><path class="cls-57" d="M203.6 175.09a2.84 2.84 0 0 0-.61.29l-1.07 5a1.89 1.89 0 0 0 1.44 2.23l4.82 1a3.79 3.79 0 0 0 .58-.48 3.32 3.32 0 0 1-1.17.21 3 3 0 0 1-.73-.08l-1.93-.41a3.48 3.48 0 0 1-2.66-4.12l.42-1.93a3.37 3.37 0 0 1 .91-1.69"/><path class="cls-58" d="M204.06 174.7a2.44 2.44 0 0 0-.46.39 3.37 3.37 0 0 0-.91 1.69l-.42 1.93a3.48 3.48 0 0 0 2.66 4.12l1.93.41a3 3 0 0 0 .73.08 3.32 3.32 0 0 0 1.17-.21l.27-.1-4.63-1a1.89 1.89 0 0 1-1.44-2.23l1.09-5"/><path class="cls-56" d="M206.69 194l-.15.06a3.35 3.35 0 0 1-.58.55h.04a1.72 1.72 0 0 0 .39 0 1.87 1.87 0 0 0 1.35-.57 1.73 1.73 0 0 1-.32 0 2.45 2.45 0 0 1-.38 0l-.38-.08m-4.52-9.18a1.86 1.86 0 0 0-1.53 1.45l-.06.26a4 4 0 0 1 .46-.24 3.59 3.59 0 0 1 .64-.59 1.92 1.92 0 0 1 .49-.88"/><path class="cls-57" d="M201 186.33a4 4 0 0 0-.46.24l-1 4.78a1.89 1.89 0 0 0 1.44 2.23l5 1.07a3.35 3.35 0 0 0 .58-.55 3.36 3.36 0 0 1-2 .19l-1.93-.41a3.47 3.47 0 0 1-2.66-4.12l.41-1.93a3.46 3.46 0 0 1 .73-1.5"/><path class="cls-58" d="M201.68 185.74a3.59 3.59 0 0 0-.64.59 3.46 3.46 0 0 0-.73 1.5l-.41 1.93a3.47 3.47 0 0 0 2.66 4.12l1.93.41a3.36 3.36 0 0 0 2-.19l.15-.06L202 193a1.88 1.88 0 0 1-1.44-2.23l1.09-5"/><path class="cls-56" d="M198.19 180.67l-.27.11a3.79 3.79 0 0 1-.58.48l.22.05a1.72 1.72 0 0 0 .39 0 1.91 1.91 0 0 0 1.35-.57h-.32a1.69 1.69 0 0 1-.38 0l-.41-.09m-4.49-9.17a1.86 1.86 0 0 0-1.53 1.45v.1a3.45 3.45 0 0 1 .61-.3 4.31 4.31 0 0 1 .46-.39 1.88 1.88 0 0 1 .48-.86"/><path class="cls-57" d="M192.76 172.75a3.45 3.45 0 0 0-.61.3l-1.07 4.95a1.89 1.89 0 0 0 1.44 2.23l4.82 1a3.79 3.79 0 0 0 .58-.48 3.32 3.32 0 0 1-1.17.21 3.71 3.71 0 0 1-.73-.08l-1.93-.41a3.48 3.48 0 0 1-2.66-4.12l.42-1.93a3.52 3.52 0 0 1 .91-1.7"/><path class="cls-58" d="M193.22 172.36a4.31 4.31 0 0 0-.46.39 3.52 3.52 0 0 0-.91 1.7l-.42 1.93a3.48 3.48 0 0 0 2.66 4.12l1.93.41a3.71 3.71 0 0 0 .73.08 3.32 3.32 0 0 0 1.17-.21l.27-.11-4.63-1a1.9 1.9 0 0 1-1.44-2.23l1.09-5"/><path class="cls-56" d="M195.85 191.7l-.15.07a3.78 3.78 0 0 1-.58.55h.07a1.72 1.72 0 0 0 .39 0 1.87 1.87 0 0 0 1.35-.57 1.73 1.73 0 0 1-.32 0 2.58 2.58 0 0 1-.38 0l-.38-.09m-4.52-9.18a1.88 1.88 0 0 0-1.53 1.52l-.06.25.46-.23a4 4 0 0 1 .64-.59 1.9 1.9 0 0 1 .49-.89"/><path class="cls-57" d="M190.2 184l-.46.23-1 4.79a1.89 1.89 0 0 0 1.44 2.23l5 1.07a3.78 3.78 0 0 0 .58-.55 3.36 3.36 0 0 1-2 .19l-1.93-.42a3.47 3.47 0 0 1-2.66-4.12l.41-1.92a3.46 3.46 0 0 1 .73-1.5"/><path class="cls-58" d="M190.84 183.41a4 4 0 0 0-.64.59 3.46 3.46 0 0 0-.73 1.5l-.41 1.92a3.47 3.47 0 0 0 2.66 4.12l1.93.42a3.36 3.36 0 0 0 2-.19l.15-.07-4.66-1a1.89 1.89 0 0 1-1.44-2.23l1.09-5"/><path d="M232.4 203.13a6.48 6.48 0 0 1-2.62.55 6.32 6.32 0 0 1-1.35-.14l-1.19-.26a12 12 0 0 1-3.48.52h-.9l-.17.07 4 .85a6.3 6.3 0 0 0 1.36.15 6.54 6.54 0 0 0 4.39-1.71M201 123.41a6.6 6.6 0 0 0-2.66 2.11c.42-.13.84-.24 1.27-.33a6.69 6.69 0 0 1 1.39-1.78" fill="#0a0a22"/><path d="M224.69 202.73a12.69 12.69 0 0 1-1.83 1h.9a12 12 0 0 0 3.48-.52l-2.55-.55" fill="#02020e"/><path d="M221.3 203.54l1.39.3.17-.07a12 12 0 0 1-1.56-.23m-28.07-57l-9.1 42.32a6.54 6.54 0 0 0 5 7.74l5.39 1.16a11.91 11.91 0 0 1-6.23-3.53 6.59 6.59 0 0 1-2.34-3.63 12 12 0 0 1-.67-7.15l7.94-36.91m4-18.64a.29.29 0 0 1 0 .09l-1.16 5.4v-.1l1.16-5.39m2.38-2.73c-.43.09-.85.2-1.27.33a6.39 6.39 0 0 0-1 2.18l1.46.31.25-1.15a6.29 6.29 0 0 1 .61-1.67" fill="#08081d"/><path d="M188.3 194.25a11.91 11.91 0 0 0 6.23 3.53l26.77 5.76a12 12 0 0 0 1.56.23 12.69 12.69 0 0 0 1.83-1l-33.77-7.26a6.52 6.52 0 0 1-2.62-1.22m7.78-60.94v.1l-2.83 13.15-7.94 36.91a12 12 0 0 0 .67 7.15 6.44 6.44 0 0 1 0-2.9l9.38-43.61-1.47-.31 2.25-10.49" fill="#02020b"/><path d="M197.3 127.7l-.06.22-1.16 5.39-2.25 10.49 1.47.31 3.46-16.1-1.46-.31" fill="#050514"/><g clip-path="url(#clip-path)"><path class="cls-67" d="M202 131.41a1.36 1.36 0 0 0-1.32 1.07l-1.66 7.75a1.27 1.27 0 0 0 0 .28 1.33 1.33 0 0 0 1.06 1.31l7.47 1.61 7.8-9.18-13-2.81a1.33 1.33 0 0 0-.28 0M218.92 135.02l-7.8 9.18 8.42 1.81 7.8-9.18-8.42-1.81"/></g><path class="cls-68" d="M121.06 175.06v3l.75.12-.75-3.11"/><path class="cls-26" d="M121.08 138.3v36.77l.75 3.11a10 10 0 0 1 1 .24v-34.2c-.21-.81-.42-1.61-.64-2.42a28.28 28.28 0 0 0-1.07-3.5"/><path class="cls-27" d="M122.79 132.9a11.85 11.85 0 0 0-1.71 5.4 28.28 28.28 0 0 1 1.07 3.5c.22.81.43 1.61.64 2.42V132.9"/><path class="cls-34" d="M166.67 225.84h-29.18a12 12 0 0 1-12-12v-77.07a12 12 0 0 1 12-12h29.18a12 12 0 0 1 12 12v77.11a12 12 0 0 1-12 12"/><path class="cls-14" d="M166.67 225.84v-2.75h-29.18a9.25 9.25 0 0 1-9.2-9.21v-77.11a9.25 9.25 0 0 1 9.2-9.21h29.18a9.25 9.25 0 0 1 9.2 9.21v77.11a9.25 9.25 0 0 1-9.2 9.21v5.5a14.75 14.75 0 0 0 14.7-14.71v-77.11a14.75 14.75 0 0 0-14.7-14.71h-29.18a14.75 14.75 0 0 0-14.7 14.71v77.11a14.75 14.75 0 0 0 14.7 14.71h29.18v-2.75"/><path d="M152.17 122.06H132a9.24 9.24 0 0 0-9.22 9.22v1.62a11.83 11.83 0 0 1 1-1.38 14.79 14.79 0 0 1 13.73-9.46h14.68" fill="#6a8ac7"/><path d="M123.76 131.52a11.83 11.83 0 0 0-1 1.38v3.87a14.53 14.53 0 0 1 1-5.25" fill="#556fa7"/><path class="cls-71" d="M153.18 224.86h-9.9l-.15.25a35 35 0 0 1-1.9 3.47h12v-3.73m-1-102.8h-14.74a14.71 14.71 0 0 0-14.7 14.71v41.64a17.38 17.38 0 0 1 3.1 1.27l.87-.22v-47.2a6.54 6.54 0 0 1 2.78-5.38 6.74 6.74 0 0 0-.66 2.42 3.06 3.06 0 0 1 .51-.63 3.69 3.69 0 0 1 2.62-1.1h20.16v-5.5"/><path class="cls-38" d="M173.6 222.42H135a6.3 6.3 0 0 1-6.12-6.43V129.8a6.68 6.68 0 0 1 .68-2.93 6.54 6.54 0 0 0-2.78 5.38v86.19a6.3 6.3 0 0 0 6.12 6.42h38.6a6.1 6.1 0 0 0 5.44-3.5 5.82 5.82 0 0 1-3.34 1.06"/><path class="cls-7" d="M175.28 135.94h-45.42v71.39l45.42-71.39"/><path class="cls-45" d="M153.78 130.33a1.42 1.42 0 1 1-1.41-1.41 1.41 1.41 0 0 1 1.41 1.41z"/><path d="M149 218.55a4.81 4.81 0 1 1 6.8 0 4.8 4.8 0 0 1-6.8 0" fill="#e3dfed"/><path class="cls-7" d="M95.37 145.1v.23h.26a24.33 24.33 0 0 1 3.76.55v-.09c-1.34-.19-2.68-.43-4-.7"/><path class="cls-23" d="M95.09 57.07a3 3 0 0 0-.87.4 3.11 3.11 0 0 0-.86 4.3l.57.85a2 2 0 0 0-.51.82c-.37 1.15.11 2.74 1.44 4.72l.22.33 1.28-.35-.46-.68c-1.41-2.11-1.41-3.16-1.29-3.59l.06-.15a5.65 5.65 0 0 1-.1-.88 2.88 2.88 0 0 1 .69-1.92l.17-.18-.26-.39a3.12 3.12 0 0 1 0-3.24"/><path class="cls-24" d="M96.36 68.14l-1.28.35.31.47-.1-.43 1.13-.31-.06-.08"/><path class="cls-25" d="M96.42 68.22l-1.13.31.1.43 1.94 2.9 1.28-.35-2.19-3.29"/><path class="cls-26" d="M98.61 71.51l-1.28.35 7.39 11 .35.52a2.14 2.14 0 0 0 1-1.68l-1.42-2.13a2 2 0 0 0-.68-.12l-5.33-8"/><path class="cls-23" d="M96.91 63a6.39 6.39 0 0 0 1.25 2.8l1.07 1.6.53-.14L96.91 63"/><path class="cls-24" d="M99.76 67.22l-.53.14.05.08.53-.15-.05-.07"/><path class="cls-25" d="M99.81 67.29l-.53.15 2.2 3.28.53-.14-2.2-3.29"/><path class="cls-26" d="M102 70.58l-.53.14 5 7.5a2.2 2.2 0 0 1 1 .81 2.18 2.18 0 0 1 .36 1.19l.16.25-.2.14a2.12 2.12 0 0 1-.89 1.39l-.35-.52 4.45 6.69 4.74-3.17a1.53 1.53 0 0 1 .29-.37l-3.2 2.14L102 70.58"/><path class="cls-29" d="M116.07 84.6a1.53 1.53 0 0 0-.29.37l.42-.28-.09-.12"/><path class="cls-14" d="M96.11 60.34a2.18 2.18 0 0 0-.84.6 2.88 2.88 0 0 0-.69 1.92 7.91 7.91 0 0 0 1.65 4.19l9.86 14.75 1.91-1.29-9.84-14.75a5.85 5.85 0 0 1-1.25-2.9c0-.31.08-.34.09-.37l-.23-.35.14.39H97l-.23-.35.14.39-.81-2.18"/><path class="cls-14" d="M104.51 78.44A2.15 2.15 0 1 1 106.9 82l-2.39-3.57"/><path class="cls-73" d="M106.54 81.5h-.01.01"/><path class="cls-74" d="M95.74 61.21a2.06 2.06 0 0 0-.5.83c-.37 1.15.11 2.74 1.43 4.72l9.86 14.75-2-3a2.12 2.12 0 0 1 1.2-.37l-8-12c-1.42-2.14-1.43-3.24-1.3-3.67a.53.53 0 0 1 0-.15l-.74-1.11"/><path class="cls-74" d="M105.71 78.07a2.12 2.12 0 0 0-1.2.37l2 3 .35.52a2.14 2.14 0 0 0 1-1.79 2.18 2.18 0 0 0-.36-1.17 2.14 2.14 0 0 0-1.75-1"/><path class="cls-14" d="M112.83 86.77l-17.65-26.4a3.1 3.1 0 1 1 5.15-3.44L118 83.32l-5.15 3.45"/><path d="M95.17 60.35" fill="#505164"/><path class="cls-74" d="M95.51 56.52a3.1 3.1 0 0 0-.37 3.79l17.65 26.4 1.62-1.09L96 57.65a3.07 3.07 0 0 1-.46-1.13"/><path class="cls-48" d="M121.2 115a25.86 25.86 0 0 1 3.1 2.58l2.27-3.26 5.43-10.43-1-.7-7.88 8.68-2.15 3 .23.16"/><path class="cls-13" d="M129.72 108.1l2.27-4.21-1-.7-3.16 3.48c.6.58 1.25.89 1.88 1.43"/><path d="M109.56 127.51l-3.51 4.64c.54.37 1.07.76 1.58 1.17l2.49-3.46-.56-2.35" fill="#8f9cba"/><path class="cls-77" d="M106.05 132.15l-9.4 12.46 1.45 1 .6.1 8.93-12.38c-.51-.41-1-.8-1.58-1.17"/><path class="cls-78" d="M96.65 144.61l-.49.65c.65.12 1.29.24 1.94.34l-1.45-1"/><path class="cls-73" d="M110.87 125.76l-1.31 1.75.56 2.35 2-2.74-1.23-1.36m18.75-22.64l-2.92 3.08h.18a5.25 5.25 0 0 0 1.61-.25l1.85-2a2.33 2.33 0 0 0-.05-.28l-.67-.51"/><path d="M119.29 116.21V116.62l-.05.06H117.86l-6.64 8.8 1.23 1.36 6.97-9.84v-.7m1.7-3.87l-1.67 2.2-.09.11v.96l.07-.14.07-.14.08-.13.09-.12.1-.11.1-.1.11-.09h.53l.09.06 1.09-1.51h-.64l-.09-.06-.09-.06v-.05m7.5-6.39a5.25 5.25 0 0 1-1.61.25h-.18l-3.33 3.5V110 110.64H123.86l.85-.93 3.2-3.52.65-.72m1.8-2.32a2.33 2.33 0 0 1 .05.28l.14-.15-.19-.13" fill="#5c78b1"/><path d="M120.54 114.61h-.3l-.11.09-.1.1-.1.11-.09.12-.08.13-.07.14-.07.14v-.96l-1.73 2.3H119.27l.05-.06V116.31 117.01l1.58-2.18-.09-.06h-.23m2.83-4.91l-1.83 1.92-.13.17-.4.52v.05l.09.06.09.06h.64l1-1.33.75-.81h-.61V109.61" fill="#85576d"/><path class="cls-77" d="M84.14 161.87L84 162a1.37 1.37 0 0 1-.82.43l-7.57 10 3.4 2.54a2.06 2.06 0 0 1-.68-1 .15.15 0 0 1 0-.11l.06-.09a1.77 1.77 0 0 1 .19-.29l.14-.19a7.52 7.52 0 0 1 0-.86 6.49 6.49 0 0 1 .46-2.45 5.63 5.63 0 0 1 2-2.46 7.29 7.29 0 0 1 2.27-1l.3-.08 2.07-2.87a1.09 1.09 0 0 1-.26-.05 1.19 1.19 0 0 1-.67-.59 2.54 2.54 0 0 1-.19-.61.78.78 0 0 1-.47-.28l-.1-.16m3.94-5.88l-3.53 4.68a.87.87 0 0 1 .32-.06 1 1 0 0 1 .49.14 1.24 1.24 0 0 1 .71-.21 1.75 1.75 0 0 1 1.41.76l1.39-1.94c-.11-.55-.22-1.11-.34-1.66s-.28-1.17-.45-1.71m8-6.67l-3.89 1.18-1.45 1.93a11.53 11.53 0 0 1 .64 1.39c.18.46.33.92.47 1.38l4.23-5.88m2.06-3.67l.39.27.13-.17-.52-.1"/><path class="cls-78" d="M96.07 145.38l-3.86 5.11 3.89-1.18 2.45-3.4-.39-.27c-.69-.11-1.38-.2-2.09-.26"/><path d="M83.76 166.43l-.3.08a7.29 7.29 0 0 0-2.27 1 5.63 5.63 0 0 0-2 2.46 6.49 6.49 0 0 0-.46 2.45 7.52 7.52 0 0 0 0 .86l5-6.89m7-14L88.07 156c.17.54.32 1.12.45 1.71s.23 1.11.34 1.66l3-4.16c-.14-.46-.29-.92-.47-1.38a11.53 11.53 0 0 0-.64-1.39" fill="#97a1bb"/><path class="cls-82" d="M86.06 160.53a1.24 1.24 0 0 0-.71.21 1 1 0 0 0-.49-.14.87.87 0 0 0-.32.06l-1.32 1.75A1.37 1.37 0 0 0 84 162l.1-.11.1.16a.78.78 0 0 0 .47.28 2.54 2.54 0 0 0 .19.61 1.19 1.19 0 0 0 .67.59 1.09 1.09 0 0 0 .26.05l1.64-2.27a1.75 1.75 0 0 0-1.41-.76"/><path d="M96.16 145.26l-.09.12c.71.06 1.4.15 2.09.26l.52.1-.6-.1c-.65-.1-1.29-.22-1.94-.34" fill="#b2b2bf"/><path d="M127.86 108.81l-3.16 4.45.52.37 2.64-4.82m0-2.14l-3.2 3.52 3.22-3.5" fill="#2f3048"/><path class="cls-82" d="M130.48 103.76l-.14.15-1.85 2-.65.72 2.66-2.9"/><path class="cls-48" d="M122.99 112.04l-44.37 61.69 4.16 2.96 43.67-62.19-3.46-2.46"/><path class="cls-14" d="M79.81 171.91c.2-.28 1.35.18 2.55 1s2 1.78 1.81 2.07-1.34-.18-2.55-1-2-1.79-1.81-2.08"/><path class="cls-14" d="M79.78 171.95l4.37 3.1-1.38 1.94-4.36-3.1 1.37-1.94"/><path class="cls-14" d="M78.41 173.89c.2-.29 1.34.17 2.55 1s2 1.78 1.81 2.07-1.35-.17-2.55-1-2-1.78-1.81-2.07"/><path class="cls-71" d="M78.45 173.85a.15.15 0 0 0 0 .11c0 .36.71 1.13 1.73 1.87l-1.27-1.12c-.41-.45-.48-.66-.38-.9"/><path class="cls-71" d="M80.87 174.86l-.74 1 .09.06a5.52 5.52 0 0 0 2.32 1.12.26.26 0 0 0 .23-.09.2.2 0 0 0 0-.11c0-.37-.76-1.19-1.84-2l-.09-.06"/><path fill="#4a6194" d="M131.28 103.39l.23.16.01-.01-.24-.15"/><path class="cls-86" d="M128.67 107.33l-.81 1.48 1-1.37-.17-.11"/><path d="M131 103.23l-.52.56.07.06-1.92 3.48.17.11 2.38-3.35.29-.54-.23-.17-.24-.15" fill="#7e4e5e"/><path d="M110.12 129.86l-2.49 3.46 2.47-3.44" fill="#505875"/><path class="cls-89" d="M107.63 133.32L98.7 145.7h.08l8.89-12.36"/><path d="M112.1 127.12l-2 2.74 2-2.76" fill="#444f72"/><path d="M119.42 117l-7.32 10.17 7.34-10.17m2.67-3.69l-1.11 1.46 1.06-1.46m2.55-3.07l-.85.93.85-.94" fill="#34446f"/><path d="M121 114.77l-1.58 2.23 1.54-2.13v-.06m2.79-3.65l-.75.81-1 1.33.84-1.17.16-.13.13-.17.67-.74" fill="#4b3144"/><path class="cls-89" d="M78.8 173.32l-.14.19a1.77 1.77 0 0 0-.19.29l.33-.46m7-9.76l-2.07 2.87h.14l2-2.82h-.1m3-4.21l-1.39 1.94v.08l1.36-1.91v-.11m7.35-10.07h-.11l-4.23 5.88v.09l4.32-6m2.47-3.54l-.13.17h.06l.14-.2h-.07"/><path fill="#2b3f6e" d="M98.55 145.91l-2.45 3.4.11-.03 2.4-3.33-.06-.04"/><path d="M83.9 166.39h-.14l-5 6.89 1-1.39a.25.25 0 0 1 .18-.08l3.91-5.44m8-11.2l-3 4.16v.11l3-4.18v-.09" fill="#555b75"/><path class="cls-95" d="M87.47 161.29l-1.64 2.27h.1l1.59-2.2v-.08"/><path d="M98.7 145.7h.07-.07" fill="#646578"/><path d="M122.91 112.15l-.84 1.17-1.07 1.46v.06l1.93-2.7m5-5.46l-3.22 3.5-.85.94-.67.74-.19.14 1.71 1.22 3.16-4.45.81-1.48a6.67 6.67 0 0 1-.81-.64" fill="#1a1b2d"/><path class="cls-95" d="M130.52 103.79l-2.66 2.9a6.67 6.67 0 0 0 .81.64l1.92-3.48-.07-.06"/><path class="cls-86" d="M123 112l-.08.11-1.93 2.7-1.55 2.19-7.31 10.17-2 2.76-2.47 3.44-8.89 12.36-.14.2-2.4 3.33-4.32 6-3 4.18-1.36 1.91-1.59 2.2-2 2.82-3.96 5.46a5.4 5.4 0 0 1 2.24 1.06l42.42-59.63L123 112"/><path class="cls-55" d="M80 171.83a.25.25 0 0 0-.18.08l2.09 1.49.4-.55a5.4 5.4 0 0 0-2.31-1.02M79.78 172l-1 1.39-.33.46a.31.31 0 0 1 .19 0 5.32 5.32 0 0 1 2.23 1.06l1-1.42-2.08-1.49"/><path d="M80.1 175.87" fill="#79829d"/><path d="M78.64 173.8a.31.31 0 0 0-.19 0c-.1.24 0 .45.38.9l1.27 1.12.74-1a5.32 5.32 0 0 0-2.23-1.06" fill="#5e1e30"/><path d="M76 158.18a1.21 1.21 0 0 1-.61.25h-.2l-.11.52a1 1 0 0 1 .67-.38.89.89 0 0 1 .14-.25 1.13 1.13 0 0 1 .1-.13" fill="#404f79"/><path class="cls-101" d="M75.43 157.21l-.27 1.23h.2a1.21 1.21 0 0 0 .61-.25l.23-.86-.77-.11M76 158.2a1.13 1.13 0 0 0-.1.13.89.89 0 0 0-.14.25.23.23 0 0 1 .13 0l.11-.41"/><path class="cls-102" d="M155.91 188.71h-14.2l-1.7 2.66h15.9v-2.66"/><path class="cls-38" d="M141.71 188.71h-3.34l-1.55 2.66h3.19l1.7-2.66"/><path class="cls-102" d="M171.5 188.76h-12.65v2.61h12.65v-2.61M155.91 199.06h-20.79l-1.69 2.66h8.49c1.39-1.25 2.71-2.14 3.72-2.22a6.27 6.27 0 0 1 .65 0 5.59 5.59 0 0 1 2.09.37 2.26 2.26 0 0 1 .58-.15 6.22 6.22 0 0 1 1-.07 3.69 3.69 0 0 1 3.7 2.1h2.28v-2.66"/><path class="cls-38" d="M135.12 199.06h-1.88v2.66h.19l1.69-2.66"/><path class="cls-102" d="M171.5 199.12h-12.65v2.6h12.65v-2.6M143.18 193.8h-4.72l-1.55 2.44h6.27v-2.44"/><path class="cls-38" d="M138.46 193.8h-3.06l-.04.08-1.31 2.36h2.86l1.55-2.44"/><path class="cls-102" d="M160.33 193.56h-15.2v2.54h15.2v-2.54M171.53 193.56h-9.04v2.56h9.04v-2.56"/><g clip-path="url(#clip-path-2)"><path d="M158.13 169.17l-1.13.05c-.22 0-.43 0-.65.06l1.78-.11" fill="#94b6eb"/><path class="cls-105" d="M160.45 159.25l-.8 1.25a25.13 25.13 0 0 0 7.5 2.77 38.46 38.46 0 0 1-6.7-4"/><path class="cls-10" d="M148.38 149.6a16.64 16.64 0 0 0-2.54.79l1.23.33c4.8 1.36 7.24 5.53 10.88 8.58a12.33 12.33 0 0 0 1.7 1.2l.8-1.25c-.28-.2-.53-.4-.75-.59-2.1-1.73-3.73-3.93-5.76-5.74a16 16 0 0 0-5.32-3.24l-.24-.08"/><path class="cls-105" d="M163.83 153.94l-3.38 5.31a38.46 38.46 0 0 0 6.7 4c.55.12 1.09.22 1.6.31a16.73 16.73 0 0 0-4.92-9.64"/><path class="cls-10" d="M152.11 149.18a17 17 0 0 0-3.73.42l.24.08a16 16 0 0 1 5.32 3.24c2 1.81 3.66 4 5.76 5.74.22.19.47.39.75.59l3.38-5.31a16.74 16.74 0 0 0-11.72-4.76"/><path d="M159.65 160.5l-1.91 3 .75.08-.09 1.32 3.12-.08 7.4.63a16.62 16.62 0 0 0-.17-1.88c-.51-.09-1.05-.19-1.6-.31a25.13 25.13 0 0 1-7.5-2.77" fill="#81a8e8"/><path d="M145.84 150.39a16.85 16.85 0 0 0-7.21 5.56h1l.22 2.19h1.42l.06-2 1.27.21-.06 2 2.56.07-.05 1.68a4.47 4.47 0 0 1 1.7-.49l.05-2 3 .09.18 2.72a3.25 3.25 0 0 1 .3.32l2.27.06.46-1.16 1.85.05-.07 2.35h1.42v1.2l1.51.15 1.91-3a12.33 12.33 0 0 1-1.7-1.2c-3.64-3.05-6.08-7.22-10.88-8.58l-1.23-.33" fill="#89b1ef"/><path d="M151.14 178.12s0-1 1.34-1.59l.9-.06s-1.81.64-2.24 1.65m8.74-2.65l.06-.19-.06.18-.21.63s-.31 1.05-2.62 1.05a7.46 7.46 0 0 1-.79 0 7.52 7.52 0 0 0-2.77.91s.42-1.49 4-1.49c0 0 2.11-.43 2.34-1.06m8.81-6.68l-10.56.38-1.78.11-.48.1c-2.63.7.23 1.61 2 2a1.57 1.57 0 0 1 .89 2.43 2.8 2.8 0 0 1-.28.31 2.91 2.91 0 0 1-1.81.77l-2.6.17a10.86 10.86 0 0 0-4.56 1.38l-3.34 5.24a16.86 16.86 0 0 0 6 1.09c.47 0 .92 0 1.38-.06-.26-1.89-.37-3.55 2.42-3.84 1.61-.17 5.22-.52 6.51-1.53 1.92-1.5 2.52-2.94.35-3.92-1.78-.8-4.86-2.16-1.57-3.24 1-.1 1.9-.18 2.86-.24s1.86-.09 2.8-.1h1.61c.09-.36.16-.73.22-1.1" fill="#84ccca"/><path d="M149.49 176.48q-.42.24-.81.51l-.72.5a23.47 23.47 0 0 1-4.44 2.36l-.26.44a17.65 17.65 0 0 0 2.89 1.43l3.34-5.24" fill="#8cd7d0"/><path class="cls-48" d="M146.8 157.69l-.05 2h.11a1.85 1.85 0 0 1 1 .24 2.52 2.52 0 0 1 .6-.07 1.82 1.82 0 0 1 1.14.38 1.68 1.68 0 0 1 .41.28l-.18-2.72-3-.09m-8.2-1.71a16.75 16.75 0 0 0-3.33 10 17.13 17.13 0 0 0 .17 2.39h.77l.52-.68s4.67-5.79 8.29-7.54l.05-1.68-2.56-.07.06-2-1.27-.21-.06 2h-1.42l-.22-2.19h-1"/><path d="M157.74 163.51l-2.61 4.1.82-.06h.67l2-.18h10.2c0-.45.06-.9.06-1.36v-.54l-7.4-.63-3.12.08.09-1.32-.75-.08" fill="#40415d"/><path class="cls-48" d="M153 159.72l-.46 1.16-2.27-.06c.72.87 1.53 2.85.06 7l3.45-.1 1.34-.08 2.61-4.1-1.51-.15v-1.2h-1.42l.07-2.35-1.85-.05"/><path class="cls-34" d="M168.74 168.47l-13.11.37a3.55 3.55 0 0 0-1.61.51l-.22.35c-.05.58 1.22 1.23 2.36 1.54a.62.62 0 0 0 .27.09 1.64 1.64 0 0 1 .7.29l.07.12a.89.89 0 0 1 .08 1l-.18.27a3.45 3.45 0 0 1-1.36.34l-2.59.15a12.65 12.65 0 0 0-2 .25l-1.7 2.68a10.86 10.86 0 0 1 4.56-1.38l2.6-.17a2.91 2.91 0 0 0 1.81-.77 2.8 2.8 0 0 0 .28-.31 1.57 1.57 0 0 0-.89-2.43c-1.75-.43-4.61-1.34-2-2l.48-.1c.22 0 .43-.05.65-.06l1.13-.05 10.56-.38c0-.11 0-.22.05-.32"/><path class="cls-7" d="M151.19 173.8a12.09 12.09 0 0 0-3.42 1.26l-.72.4c-.35.19-.72.38-1.12.55-.35.53-.73 1.07-1.13 1.63l-1.28 2.21a23.47 23.47 0 0 0 4.44-2.36l.72-.5q.39-.27.81-.51l1.7-2.68m2.83-4.45a.51.51 0 0 0-.22.35l.22-.35"/><path class="cls-111" d="M156.62 167.55h-.67l-.82.06-.03.04.57-.01.95-.09"/><path class="cls-112" d="M155.13 167.61l-1.34.08 1.31-.04.03-.04"/><path class="cls-111" d="M153.8 169.7l-2.61 4.1a12.65 12.65 0 0 1 2-.25l2.59-.15a3.45 3.45 0 0 0 1.36-.34l.18-.27a.89.89 0 0 0-.08-1l-.07-.12a1.64 1.64 0 0 0-.7-.29.62.62 0 0 1-.27-.09c-1.14-.31-2.41-1-2.36-1.54m15-1.69l-13.46.21h-.63l-.7 1.1a3.55 3.55 0 0 1 1.61-.51l13.11-.37c0-.15 0-.31.07-.46"/><path class="cls-112" d="M154.72 168.25c-2.73.22-1.51 1.15-2.51 1.8a3 3 0 0 1-1 .44 14.46 14.46 0 0 1-2.18.29 47.6 47.6 0 0 1-3.1 5.23c.4-.17.77-.36 1.12-.55l.72-.4a12.09 12.09 0 0 1 3.42-1.26l2.61-4.1a.51.51 0 0 1 .22-.35l.7-1.1"/><path d="M168.87 167.36h-10.2l-2 .18-1 .09h-.57l-.38.6h.63l13.46-.21.06-.65" fill="#f1ac4b"/><path d="M136.24 168.38h-.77c0 .28.09.55.14.82l.63-.83m18.86-.73h-1.31l-3.45.1a25.17 25.17 0 0 1-1.3 3 14.46 14.46 0 0 0 2.18-.29 3 3 0 0 0 1-.44c1-.65-.22-1.58 2.51-1.8l.38-.6" fill="#ffb54d"/><path d="M167.79 169.88h-.93c-.94 0-1.87 0-2.8.1s-1.91.14-2.86.24c-3.29 1.08-.21 2.44 1.57 3.24 2.17 1 1.57 2.42-.35 3.92-1.29 1-4.9 1.36-6.51 1.53-2.79.29-2.68 2-2.42 3.84a16.81 16.81 0 0 0 15-12.86h-.68" fill="#3cb2ad"/><path class="cls-34" d="M159.88 175.47c-.23.63-2.34 1.06-2.34 1.06-3.63 0-4 1.49-4 1.49a7.52 7.52 0 0 1 2.77-.91 7.46 7.46 0 0 0 .79 0c2.31 0 2.62-1.05 2.62-1.05l.21-.63m.06-.19l-.06.19.06-.18M153.38 176.47l-.9.06c-1.34.63-1.34 1.59-1.34 1.59.43-1 2.24-1.65 2.24-1.65"/></g><path d="M79.42 216a80.89 80.89 0 0 0-.87 4 24.27 24.27 0 0 0 4.4 3c.15-1 .34-2.18.57-3.41q-2.1-1.78-4.1-3.67" fill="#a7a7b5"/><path class="cls-23" d="M86.69 206.39L82 207.61l-.06.29a55.54 55.54 0 0 0-2.52 8.1q2 1.89 4.1 3.67a57.35 57.35 0 0 1 2.24-8.62s.29-2.06.93-4.68"/><path d="M87 205.27l-4.72 1.29c-.11.46-.18.82-.23 1.05l4.66-1.22c.09-.37.19-.74.29-1.12" fill="#2f3043"/><path class="cls-24" d="M88.68 200.39l-5.09 1.4a53.47 53.47 0 0 0-1.33 4.77l4.74-1.29a33.61 33.61 0 0 1 1.7-4.88"/><path class="cls-68" d="M89 199.64l-5.21 1.43-.24.72 5.09-1.4.36-.75M119.93 178a6.6 6.6 0 0 0-6 3.52 12.16 12.16 0 0 0-3.2-.44h-.52c.15.76.26 1.53.35 2.3a10.94 10.94 0 0 1 3.18-.47 12.47 12.47 0 0 1 2.7.3 6.54 6.54 0 0 1 4.64-3.65v-1.49a9.09 9.09 0 0 0-1.13-.08"/><path d="M92.46 187.67a17.62 17.62 0 0 0-5.1 6.77 19.89 19.89 0 0 0-3.53 6.63l5.17-1.43a12.85 12.85 0 0 1 1.46-2.27 19 19 0 0 1 3.55-5.86 12.57 12.57 0 0 0-1.35-3.51l-.2-.31m17.73-6.61c-6.3.3-9.58 6-9.58 6a8.11 8.11 0 0 0-3.69-1 5.73 5.73 0 0 0-.84.06l.23.4a15.94 15.94 0 0 1 1.07 2.54 7 7 0 0 1 2.61-.51 8.34 8.34 0 0 1 3.41.79 13.29 13.29 0 0 1 7.14-6c-.09-.77-.2-1.54-.35-2.3" fill="#7f9acc"/><path d="M96.08 186.17a7.63 7.63 0 0 0-3.62 1.5l.2.31a12.57 12.57 0 0 1 1.39 3.53 9.73 9.73 0 0 1 3.33-2.4 15.94 15.94 0 0 0-1.07-2.54l-.23-.4" fill="#aeb9d2"/><path d="M121.06 178.05v1.49a8.33 8.33 0 0 1 1-.14l-.3-1.23-.75-.12" fill="#8591ae"/><path d="M121.81 178.17l.3 1.23h.68v-1a10 10 0 0 0-1-.24" fill="#7082ab"/><path class="cls-122" d="M129.86 176.79l-1 1.32v2.54l1-.31v-3.55"/><path d="M122.79 178.41v1a12.34 12.34 0 0 1 4 .8v-.72l-.87.22a17.38 17.38 0 0 0-3.1-1.27" fill="#872c41"/><path class="cls-124" d="M128.86 178.11l-.77 1-1.33.34v.72c.49.18 1 .39 1.54.64l.56-.17v-2.54"/><path class="cls-24" d="M135.61 169.21l-5.75 7.58v3.55l.61-.19 5.82-8.46a15.93 15.93 0 0 1-.68-2.48"/><path d="M146.75 159.67a4.47 4.47 0 0 0-1.7.49l1.68.05v-.54" fill="#6f8fc9"/><path d="M146.86 159.67h-.11v.54l-1.68-.05c-3.62 1.75-8.29 7.54-8.29 7.54l-.52.68h2.33s5.58-7.62 9.23-8.43a1.85 1.85 0 0 0-1-.24" fill="#363751"/><path d="M138.57 168.37h-2.33l-.63.83a15.93 15.93 0 0 0 .68 2.48l2.28-3.32" fill="#cd9241"/><path class="cls-122" d="M145.72 201.72h-3.8a68.07 68.07 0 0 0-7.8 9.1l-4.89 7.09a9.22 9.22 0 0 0 1.77 2.47c.05.05.1.11.16.16l1.77-.88 5-8.13s4.14-6.41 7.74-9.81"/><path class="cls-71" d="M129.23 217.91l-.06.09a6.53 6.53 0 0 0 1.66 2.7l.33-.16c-.06 0-.11-.11-.16-.16a9.22 9.22 0 0 1-1.77-2.47"/><path class="cls-124" d="M129.17 218l-.35.51.51 2.93 1.5-.74a6.53 6.53 0 0 1-1.66-2.7"/><path d="M146.29 199.47a6.27 6.27 0 0 0-.65 0c-1 .08-2.33 1-3.72 2.22h3.8a9 9 0 0 1 2.66-1.88 5.59 5.59 0 0 0-2.09-.37" fill="#9c9daf"/><path d="M105.3 266.29l3.82-9.16c2.23-6.31 2.79-6.73 2.79-6.73l15.28-8.57c10.71-5.79 14.62-14.48 14.62-14.48l7.5-12.66c10.55-17-.35-15-.35-15-3.64.45-11 11.84-11 11.84l-5 8.13-3.6 1.78-1.7-9.71 2.52-8.45 5.21-9.4 9.44-16.24c10.56-14.82 4.76-17.42 4.76-17.42-3.2-2.49-11 8.12-11 8.12l-8.12 11.81-2.17.67c-9.24-4.29-11.88 2.37-11.88 2.37-8.83-2-13 6.2-13 6.2-8.69-3.91-12.9 8-12.9 8-3.39 4-4.74 13.7-4.74 13.7a75.92 75.92 0 0 0-3.33 16.32l-1.61 12-5.14 11.9s-3.33 5.51 11.51 9.43c4.68 1.24 12.74 13.34 17.87 5.13l.24.44" fill="#ffa38b"/><path class="cls-130" d="M150.61 165.28l-2.73 4.72a20.41 20.41 0 0 0-5.32 8.05l-3.39 5-6 8.3-4.61 11-3.43 9.05.13 8.37-.11 7.71 5-4.06 2.74-3.79-3.6 1.78-1.7-9.71 2.52-8.45 8.78-15.49 7.28-11.7s4.51-7.06 4.44-10.78zM150.16 209.39l-2.5 5a8.67 8.67 0 0 0-6.77-1.28l4.54 2.37-2.91 2.93-4.52 6.34a46.85 46.85 0 0 1-14.93 10.88l-10.5 7.62s-1.74 2-3.61 4.52l-12.6 17.15v2.34c6 3.84 7.13 2.69 9-1.19l3.79-8.94 2.69-6.63 3.4-2.56 16.33-8.46s7.61-5.91 11.59-14.36l5.18-8.54 3.95-7.87-2.1.68"/><path class="cls-131" d="M130.47 180.15l-3.15 7.39-5.26 7.34s-5.62 7.09-4.79 3.83l2.59-6.24 8.44-11.65zM120.62 180.14l-7.13 9.7-.75 3s-.54 6.71-2.77 4.87l-1.71-1.09-3.19 1.38 2.58-3.76 8.77-11s3.4-4.36 4.2-3.1zM109.5 184.12s-3.56 3.62-4 6.24l-2.75 4.3L98 199.1l-1.92-.42 7.3-9.29s3.41-5.49 6.12-5.27zM98.19 189.22a10.72 10.72 0 0 0-4.19 5.63l-2.15 4.76-2.33-1 3.78-6.32s2.96-3.94 4.89-3.07zM86.8 206.86l-.12 7.26-2.27 8.09s1.19 8.24.6 13.18l-1.18 3.44 7 4.12-6.35 3-1.92.78-4 10.61a7 7 0 0 1-1.9-8.89l2.88-8.73 2.39-13.9"/><path class="cls-14" d="M150.55 161v-.06a3 3 0 0 0-4.57.28l-2.23 3.09a2.21 2.21 0 0 0 .12 2.77 3.65 3.65 0 0 0 4 1l2.74-3.64a2.74 2.74 0 0 0-.06-3.44zM149.92 199.67l-3.65 3.55a3.93 3.93 0 0 0 1.13 4.23 2.8 2.8 0 0 0 4.75-.27s4.11-4.89.92-7c0 .02-2.32-1.98-3.15-.51z"/><path fill="#dfddec" d="M175.41 142.23h-4.13l-.11.17h4.05v2.35h-5.55 5.74v-2.52"/><path d="M130.07 144.75v-2.35H145v2.35h-14.93m15.27 0v-2.35h14.59v2.35h-14.59m25.93-2.52h-41.2v2.52h30.28v-2.35h10.82l.1-.17" fill="#ece9f3"/><path fill="#6abcbd" d="M144.96 142.4h-14.89v2.35h14.89v-2.35"/><path class="cls-135" d="M159.93 142.4h-14.59v2.35h14.59v-2.35"/><path fill="#b3b2c7" d="M175.22 142.4h-4.05l-1.5 2.35h5.55v-2.35"/><path class="cls-135" d="M171.17 142.4h-10.82v2.35h9.32l1.5-2.35"/><path d="M152.48 210.34a4.81 4.81 0 0 1 3.27 8.21 4.76 4.76 0 0 1-3.25 1.4 4.81 4.81 0 0 0 0-9.61" fill="#c4c4d3"/><path d="M152.46 210.34a4.49 4.49 0 0 0-.73.06c0 .09-.09.18-.14.28a4.7 4.7 0 0 1 1.64 1.07 4.8 4.8 0 0 1-2.09 8 4.89 4.89 0 0 0 1.32.18 4.8 4.8 0 0 0 3.25-8.2 4.82 4.82 0 0 0-3.27-1.41" fill="#b8b5ca"/><path d="M151.73 210.4l-.35.06-.06.12.27.1c0-.1.1-.19.14-.28" fill="#cf8476"/><path d="M151.38 210.46l-.24.07.18.05.06-.12" fill="#cfa29e"/></svg>