<svg id="Layer_1" xmlns="http://www.w3.org/2000/svg" xmlns:xlink="http://www.w3.org/1999/xlink" viewBox="0 0 300 300" enable-background="new 0 0 300 300"><style>.st2{fill:#97806b}.st3{fill:#8f90a0}.st4{fill:#00a698}.st5{fill:#043f8e}.st8{fill:#73cec6}.st9{fill:#111236}.st14{fill:#398de9}.st15{fill:#ff9400}.st16{fill:#ffebd0}.st17{fill:#444560}.st18{fill:#121f22}.st19{fill:#386cb1}.st20{fill:#3d4451}.st21{fill:#dc6d31}.st22{fill:#4b482b}.st23{fill:#fdae70}.st24{fill:#9dc0f2}.st25{fill:#b5d4f7}.st26{fill:#e2ecfb}.st27{fill:#f1f2f8}.st28{fill:#dee6f5}.st29{fill:#998ba1}.st32{fill:#bad3f6}.st33{fill:#a6c6f3}.st34{fill:#ffd394}.st35{fill:#ced6e1}.st36{fill:#ffdfb2}.st37{fill:#075d84}.st40{fill:#ffc279}.st41{fill:#9d9f8c}.st42{fill:#ffaf56}.st43{fill:#ceb183}.st44{fill:#ffb967}.st45{fill:#fff}.st46{fill:#ffe1b8}.st47{fill:#fff9f1}.st48{fill:#eaf2fc}.st49{fill:#d4e5fa}.st50{fill:#e4eefb}.st53{fill:#0443b1}.st54{fill:#8c4126}.st55{fill:#43353f}.st56{fill:#604c53}.st60{fill:#68697f}.st62{fill:#5a489b}.st65{fill:#ceb091}.st66{fill:#e18b96}.st67{fill:#ebf2fc}.st71{fill:#ffe7e0}.st72{fill:#d1435b}.st73{fill:#524d31}.st75{fill:#5a4f35}.st80{fill:#584830}.st81{fill:#3b3232}.st94{fill:#4e5363}</style><path d="M160.3 53c-15.1 8.8-28.8 9.3-46.3 10.1-7 .3-14.1 0-21.1-.4-8.7-.4-17.4-.9-26.1 0-20.6 2-42.6 11.5-49.3 31.5-11.2 33.1 14.2 46.1 15.2 69.8 1.1 25.2-15 53-.9 73.9 10.7 15.9 37.9 19.5 56.4 14.8s36.4-17.8 55.5-19.3c13.7-1.1 27.3 2 40.9 5.2 14.9 3.4 29.7 6.9 44.6 4.7 21.9-3.1 41.4-19.1 48.7-39.9 3.9-11.4 4.1-23.7.6-35.2-3.6-12.4-12.1-20.2-17.4-31.6-4.9-10.4-2.7-19.8-.5-30.5 4.1-20.1-7.5-38.6-22.4-50.4-10-8-22.8-13.4-35.9-13.3-14 .2-30.2 3.7-42 10.6" fill="#0770e3"/><defs><path id="SVGID_1_" d="M160.3 53c-15.1 8.8-28.8 9.3-46.3 10.1-7 .3-14.1 0-21.1-.4-8.7-.4-17.4-.9-26.1 0-20.6 2-42.6 11.5-49.3 31.5-11.2 33.1 14.2 46.1 15.2 69.8 1.1 25.2-15 53-.9 73.9 10.7 15.9 37.9 19.5 56.4 14.8s36.4-17.8 55.5-19.3c13.7-1.1 27.3 2 40.9 5.2 14.9 3.4 29.7 6.9 44.6 4.7 21.9-3.1 41.4-19.1 48.7-39.9 3.9-11.4 4.1-23.7.6-35.2-3.6-12.4-12.1-20.2-17.4-31.6-4.9-10.4-2.7-19.8-.5-30.5 4.1-20.1-7.5-38.6-22.4-50.4-10-8-22.8-13.4-35.9-13.3-14 .2-30.2 3.7-42 10.6"/></defs><clipPath id="SVGID_2_"><use xlink:href="#SVGID_1_" overflow="visible"/></clipPath><g clip-path="url(#SVGID_2_)"><path class="st2" d="M280.1 215.2H22.8v-10.1h257.3v10.1"/><path class="st3" d="M280.1 223.2H22.8v-8.5h257.3v8.5"/><path class="st4" d="M276.3 192.5s4.8-2.2 6-5.6l-1.5 6.3-3.3 3 1.5 2.8.4 1.8-4.2-.3c-1.3-1.3-1.7-3.1-1-4.8l.5-1.3 1.6-1.9"/><path class="st5" d="M277.4 196.2l.7 1.3-.7-1.3m3.6-9.6c-1.7 2.7-5.5 4.5-5.5 4.5L274 193l-.5 1.3c-.6 1.5-.3 3.2.7 4.5-.3-1-.3-2.1.1-3.1l.5-1.3 1.5-1.9c1.6-.8 3-1.8 4.3-3l.4-1.5c-.1-.5-.1-.9 0-1.4"/><path d="M280.6 189.5c-1.3 1.2-2.7 2.2-4.3 3l-1.5 1.9-.5 1.3c-.4 1-.4 2.1-.1 3.1l.3.3 4.2.3-.4-1.8-.1-.1-.7-1.3-.8-1.4 3.3-3 .6-2.3" fill="#005e5f"/><path d="M275.5 205.1h-12.8c-1 0-1.8-.8-1.8-1.8v-1c0-1 .8-1.8 1.8-1.8h12.8c1 0 1.8.8 1.8 1.8v1c0 1-.8 1.7-1.8 1.8" fill="#4a4b66"/><path class="st4" d="M266.7 201.3s-6.6-8.5-1.2-15.6.3-22.2.3-22.2 10.9 12.7 9.8 22.3 6.8 18.3 6.8 18.3"/><path class="st8" d="M275.5 188.9s1.4-11.4-2.6-16.4-10.3-16.7-10.3-16.7 1.5 10.9 5.2 18.1 7.7 15 7.7 15zM265.2 192.9s-4.2-4.9-10.3-3.4c0 0 4.8 4.8 7.6 5s2.7-1.6 2.7-1.6zM269.5 186.2s-1.9-7.7-9.6-9.8c0 0 2.7 7.9 5.7 9.9s3.9-.1 3.9-.1z"/><path class="st9" d="M280.9 205.1h-12.8c-1 0-1.8-.8-1.8-1.8v-1c0-1 .8-1.8 1.8-1.8h12.8c1 0 1.8.8 1.8 1.8v1c0 1-.8 1.7-1.8 1.8"/><path d="M49.2 208.3H26.6c-.3 2.2-.5 4.3-.5 6.4h21.5c.6-2.2 1.2-4.2 1.6-5.9v-.5m99.1 0h-32.7l-.1.3s-1.7 3.2-4.9 3.9c-1 .6-2.2 1-3.4 1-.9.1-1.8-.3-2.4-.9l-4.2-4.3H91l-3.3 2.2.3 4.3h45.9l14.4-6.5m53.4 0H166l12.2 6.4h21.3l3.8-3.1-1.6-3.3m74.2 0h-22.4l.1.3c.2.3.2.7.2 1.1l.1.4c0 .1-.1.2-.1.2-.4.9-1.1 1.6-1.9 2l-.1.1c.5.7 1 1.5 1.4 2.2l.1.1h19.2c1.2-2.1 2.4-4.2 3.4-6.4" fill="#695950"/><path d="M47.5 214.7H26v.5h21.3l.2-.5m152.1 0h-21.3l.2.1h-44.8l.2-.1H88v.5h111l.6-.5m72.9 0h-19.2c.1.2.2.3.2.5h18.7c0-.2.2-.3.3-.5" fill="#646578"/><path class="st2" d="M280.1 208.3H22.8v-3.2h257.3v3.2"/><path fill="#084eb2" d="M280.1 257.5H22.8v-34.4h257.3v34.4"/><path d="M198.8 241.5h-.7c1.2.2 2.4.5 3.7.7l-3-.7M44.7 223.1H26.4c.6 5.3 2.5 10.4 5.4 14.8 2 3 4.6 5.6 7.6 7.7-.5-4.9.1-9.8 1.7-13.2l.5-1c.5-1.8 1.1-3.5 1.8-5.1.4-1 .9-2.1 1.3-3.2m145.4 0H88.8l.2 2.4 15 .7c-.5.1-1 .2-1.4.4h1c3.6 0 8.7 1 13.5 2.3 3 .6 5.9 1.4 8.8 2.5l.3.1c.9.2 1.7.6 2.4 1.1l.3.1c.4.3.8.7 1 1.2.3.5.5 1 .6 1.5v.1c-2.2.7-4.4 1.5-6.7 2.3-9.8 3.8-19.4 8.9-29.2 12.3l-.2-.2-.7.6c-2 .7-4.1 1.3-6.2 1.9-.9.2-1.8.4-2.8.6-4.4.9-8.9 1.3-13.4 1.3-10.7 0-21.9-2.3-30.4-7.5 8.6 5.5 20.1 7.9 31 7.9 5.4 0 10.9-.6 16.2-1.9 18.6-4.7 36.4-17.8 55.5-19.3 1.9-.2 3.9-.2 5.8-.2 5.4 0 10.8.5 16.1 1.4 3.7-6.2 17.3-7.7 20.9-8l3.7-3.6m76 0h-10.8c0 4.6-1.6 9.1-4.7 12.6 5.8-3.3 11-7.6 15.5-12.6" fill="#042c70"/><path class="st14" d="M18.2 92.2c-.3.7-.5 1.3-.8 2a50 50 0 0 0-2.7 13.2h.5c4.4 0 7.9-3.6 7.9-8-.1-3.2-2-6.1-4.9-7.2"/><path class="st15" d="M20.2 99.1c0 2.5-2 4.6-4.5 4.6s-4.6-2-4.6-4.5 2-4.6 4.5-4.6c2.5-.1 4.6 2 4.6 4.5z"/><path class="st16" d="M17.3 99.1c0 .9-.8 1.7-1.7 1.7s-1.7-.8-1.7-1.7c0-.9.8-1.7 1.7-1.7 1 0 1.7.8 1.7 1.7z"/><path transform="matrix(1 -.0082 .0082 1 -.753 .13)" class="st17" d="M14.9 90h1.4v3.7h-1.4z"/><path class="st17" d="M14.9 93.5l-2.1 2 5.6-.1-2.2-1.9z"/><path class="st14" d="M38.6 91.7c-4.4 0-7.9 3.5-7.9 7.9s3.5 7.9 7.9 7.9 7.9-3.5 7.9-7.9c0-4.3-3.5-7.9-7.9-7.9"/><path class="st15" d="M43.1 99.8c0 2.5-2 4.6-4.5 4.6s-4.6-2-4.6-4.5 2-4.6 4.5-4.6c2.5-.1 4.6 1.9 4.6 4.5 0-.1 0-.1 0 0z"/><path class="st16" d="M40.2 99.8c0 .9-.8 1.7-1.7 1.7s-1.7-.8-1.7-1.7c0-.9.8-1.7 1.7-1.7 1 0 1.7.7 1.7 1.7z"/><path transform="matrix(1 -.0082 .0082 1 -.75 .32)" class="st17" d="M37.8 88.6h1.6v5.9h-1.6z"/><path class="st17" d="M37.8 94.2l-2.1 2 5.6-.1-2.2-2z"/><path class="st14" d="M63 88.7c-4.4 0-7.9 3.5-7.9 7.9s3.5 7.9 7.9 7.9 7.9-3.5 7.9-7.9c0-4.3-3.5-7.9-7.9-7.9M88.5 82.6c-4.4 0-7.9 3.5-7.9 7.9s3.5 7.9 7.9 7.9 7.9-3.5 7.9-7.9c0-4.3-3.6-7.9-7.9-7.9M112.4 72.2c-4.4 0-7.9 3.5-7.9 7.9s3.5 7.9 7.9 7.9 7.9-3.5 7.9-7.9c0-4.3-3.5-7.9-7.9-7.9"/><path class="st15" d="M67.9 97c0 2.5-2 4.6-4.5 4.6s-4.6-2-4.6-4.5 2-4.6 4.5-4.6c2.5-.1 4.5 2 4.6 4.5z"/><path class="st16" d="M65 97.1c0 .9-.8 1.7-1.7 1.7-.9 0-1.7-.8-1.7-1.7 0-.9.7-1.7 1.7-1.7.9 0 1.7.7 1.7 1.7z"/><path transform="matrix(1 -.00785 .00785 1 -.694 .5)" class="st17" d="M62.5 85.4h1.6v6.3h-1.6z"/><path class="st17" d="M62.5 91.5l-2.1 2 5.6-.1-2.2-2z"/><path class="st15" d="M93.3 90.2c0 2.5-2 4.6-4.5 4.6s-4.6-2-4.6-4.5 2-4.6 4.5-4.6c2.6 0 4.6 2 4.6 4.5z"/><path class="st16" d="M90.5 90.3c0 .9-.8 1.7-1.7 1.7s-1.7-.8-1.7-1.7c0-.9.8-1.7 1.7-1.7.9 0 1.7.7 1.7 1.7z"/><path transform="matrix(1 -.00768 .00768 1 -.625 .683)" class="st17" d="M88 78.5h1.4V85H88z"/><path class="st17" d="M88 84.7l-2.1 2 5.6-.1-2.2-2z"/><path class="st15" d="M116.7 80.5c0 2.5-2 4.6-4.5 4.6s-4.6-2-4.6-4.5 2-4.6 4.5-4.6c2.5-.1 4.6 2 4.6 4.5z"/><path class="st16" d="M113.8 80.5c0 .9-.7 1.7-1.7 1.7s-1.7-.7-1.7-1.7c0-.9.7-1.7 1.7-1.7s1.7.8 1.7 1.7z"/><path transform="matrix(1 -.00838 .00838 1 -.598 .941)" class="st17" d="M111.3 68.6h1.4v6.6h-1.4z"/><path class="st17" d="M111.4 74.9l-2.1 2 5.6-.1-2.2-1.9z"/><path class="st9" d="M-.2 90.5c6.9.7 13.8 1 20.8.9 14.8 0 35.8-1.3 57.4-6.9s43.7-15.7 60.6-33.3l-3.9-3.7c-16 16.7-37.2 26.3-58.1 31.8s-41.5 6.8-56 6.8c-6.2 0-11.2-.2-14.7-.4-1.8-.1-3.1-.2-4-.3l-1-.1H.4l-.6 5.2zM251.6 212.2c.6.7 1.1 1.5 1.5 2.4 4.8 9.3 1.2 20.8-8.1 25.6-.7.3-1.3.6-2 .9l-4.3 1.6c-8.8 3.3-18.3 3.9-27.4 1.8l-12.4-2.9c-7.1.3-17-1.3-13-7.2l4.2-3.4 31.8-17.9 12.5-1.3 17.2.4"/><path class="st2" d="M187.5 226.6s-19 .9-22.3 9-3.7 8.9-3.7 8.9l10.7-2.4 16.3-8-1-7.5"/></g><path class="st18" d="M107 108.4s-2.4-3.4-5.5-.6c0 0-5.8-2.8-8.4-.4l-1 1.9h-3l-3.9 1.9-3.9 3.4-.3 5.8 2.5 3-1.4 2.5-3.1 1s-3 2.8-1.5 6.3l1 6.1L81 142l-4.5-2.2-4-.1-4.5 3-1 5.5-4.3 1.2c-1.2.1-2.2 1.2-2.1 2.5 0 .2.1.4.1.5v3.6l-3.9 4s-1.5 3.4 1 4.5c0 0 1.9 9.2 6.4 2.2L76.7 155l17.8-15.2 12.5-31.4"/><path class="st19" d="M79.1 127.1l-.4.2s-2.9 2.8-1.5 6.2l.3-.6c-1.1-3.2 1.5-5.8 1.6-5.8"/><path class="st20" d="M81.6 126.2l-2.5.8s-2.7 2.6-1.7 5.8c.3-.5.7-1 1.1-1.4l3.1-1 3.5-2.8-3.5-1.4"/><path class="st19" d="M96 106.2c-1.1 0-2.1.3-2.9 1l-1 1.9h-3l-3.9 1.9-3.9 3.4-.3 5.8.3-5.6 3.9-3.4 3.9-1.9h3l1-1.9c.8-.7 1.8-1 2.9-1 1.9.1 3.8.6 5.5 1.4.7-.7 1.6-1.1 2.5-1.1 1.2.1 2.3.7 3 1.7v-.1c-.7-1-1.8-1.6-3-1.7-1 0-1.9.4-2.5 1.1-1.7-.9-3.6-1.4-5.5-1.5"/><path class="st20" d="M96 106.4c-1.1 0-2.1.3-2.9 1l-1 1.9h-3l-3.9 1.9-3.9 3.4-.4 5.6.1.1.1-1.7 3.9-3.4 3.9-1.9 3.7 1.8.3-3.8c1.2-1.6 2.4-2.1 3.4-2.1 2.7 0 4.5 3.6 4.5 3.6 1.3-2.4 2.2-3.2 2.9-3.2.9 0 1.4 1.2 2 1.6l1.2-3c-.7-1-1.8-1.6-3-1.7-1 0-1.9.4-2.5 1.1-1.7-.6-3.5-1.1-5.4-1.2"/><path class="st19" d="M77.6 140.3l.6.3v-.1l-.6-.2m-5.6-.5l-4.5 3-.1 2.6.6-2.8 4.2-2.8H72"/><path class="st20" d="M67.4 146.9l-.3 1.4.2-.1.1-1.3m4.8-7.1l-4.2 2.9-.5 2.8v1.5l4.4-3 4 .1 4.5 2.2-2.4-2.5.1-3.2-.6-.3-1.5-.4-3.8-.1"/><path class="st19" d="M62 149.5c-1.2.2-2 1.4-1.8 2.6 0 .1.1.2.1.4l.4 2.6v-2.7c-.4-1.2.2-2.5 1.3-2.9"/><path class="st20" d="M67.2 148.3l-5 1.1H62c-1.1.4-1.7 1.7-1.3 2.8v2.8l.2 1.2c.5-1 1.1-2.6 1.1-2.6l4.3-1.2.9-4.1"/><path class="st19" d="M60 156.2l-3.7 3.8s-1.1 2.5.2 3.9l.3-.3c-1-1.4 0-3.7 0-3.7l3.3-3.4c0-.1 0-.2-.1-.3"/><path class="st20" d="M60.1 156.5l-3.3 3.4s-1 2.3 0 3.7l3.3-3.4v-3.6-.1"/><path class="st21" d="M122.1 125.7l-.9-10.4-28.9 10.4 2.4 8.7-.9.6c2.2 2 4 4.3 5.5 6.9.4.6.8 1.2 1.2 1.9l.1.2c.2.3.5.5.7.8l.4.3.4.2.1.1h.2c.3 0 .7.1.2 0 .8.1 1.5.3 2.2.6l.9-.4 4.6 1.9c1.2.5 2.5.7 3.8.8 2.8.2 5.4-1.7 6.1-4.4l1.2-4.9c2.7-4.2 2.9-9.2.7-13.3z"/><path class="st22" d="M114.4 117.7l-7.2 8.7s-4.6 3.2-2.6 7L103 138c.3 2.9 3.4 3.8 5.1 6.1l2.2 3-6.7-3.2-5.2-6.9-3.4-2.3-1.8-8.7 21.2-8.3z"/><path class="st21" d="M88.1 142.1c-2.6 3-5.8 5.3-9.3 6.9-2.6.5-5 1.8-6.9 3.7-4.3 4.2-15.3 17.3-18.2 30.5l37.1-3.9 4.6-23.8 5.3-7.9 1.9-1.2 3.7-.4-6.2-6.2-6.4-5.9-5.6 8.2"/><path class="st22" d="M102 143.1s-4.6-4.2-11.2 1.6l-3.6 4.6-7-.6s6.7-4.8 9.2-8.8l4.2-5.9 4.9 1.7 3.5 7.4z"/><path class="st18" d="M94.3 133.2c.2-.1.7-.8.8-.9-.2-.6-.5-2.1-.5-2.1-1-6.9 6.7-2.9 6.7-2.9 2 4 4.3-2.5 4.3-2.5l5.6-6.1-15.5 3.2-5.9 3.4 3.5 8c.3-.7.6.4 1-.1z"/><path class="st18" d="M102.1 140.6l-2.3-5.2c-2.2 0-4.2-1.6-4.8-3.7-.4.8-.9 1.4-1.5 2l.8 1.9 4 1.4 1.9 3.9c.4.9 1 1.6 1.8 2.1 5.9 4 8.2 4 8.2 4-3.1-1.4-5.9-3.6-8.1-6.4z"/><path class="st21" d="M142.2 159.8s-.8 6.1 2.2 7.5l.5-8.4-2.7.9"/><path class="st18" d="M138.8 159.5l-2.1-1.5-2.1 1.5-.4 1.5z"/><path class="st22" d="M132.1 161s4-1 4.7-2.4l2.6 2.2 3.2-.8-1.1-3.2-4.7.1-4.5 2.7-.2 1.4"/><path class="st23" d="M143.2 157s.2 6.2 4.2 6.4l-2.1-7.7-2.1 1.3"/><path class="st22" d="M136.9 162.6l-.4 2.1s-3.2.8-3 3.8l4.4-3 2.3-2-.4-2.5-2.9 1.6"/><path class="st21" d="M139.8 161.3c-.3 1-.5 2-.5 3 0 0-3.4 1.5-3.3 4.3l4.2-2.3s2.5-4.3 1.9-5.4l-2.3.4"/><path class="st24" d="M144.2 180.1c-.2 1-3.1 1.3-6.4.8s-6-1.8-5.8-2.8 3.1-1.3 6.4-.8 6 1.8 5.8 2.8"/><path class="st24" d="M143.9 179.4c.1.2.2.4.2.6-.2 1-3.1 1.3-6.4.8-1.9-.2-3.7-.8-5.3-1.8.6.9 2.9 1.8 5.7 2.2 3.4.5 6.3.2 6.4-.8-.1-.4-.2-.7-.6-1"/><path class="st25" d="M134.4 176.9c-1.2.1-2 .4-2.1.8 1-.5 2.1-.7 3.2-.6h.5c-.5 0-1.1-.1-1.3-.1l-.3-.1"/><path class="st26" d="M135.5 177.1c-1.1-.1-2.2.1-3.2.6v.1c-.1.7 1.6 1.5 4.1 2.1-1.6-.5-2.5-1.1-2.4-1.6s.9-.7 1.4-.8c.1 0 1.2-.2 1.7-.2h.2v-.1h-.1l-1.1-.1h-.6"/><path class="st27" d="M141.4 156.9l-3.8 21.8s.3 1.1 1.4.4l3.9-22-1.5-.2"/><path class="st28" d="M142.2 162.1l-.6.2-3 16.8c-.1.1-.3.1-.4.2.1.1.2.1.3.1.2 0 .5-.1.6-.2l3.1-17.1"/><path class="st29" d="M142.4 161.1l-.2 1.1.2-1.1M140.6 161.8v.2-.2"/><path d="M141.7 161.4c-.4.2-.7.3-1.1.4v.2l-.1.6 1.1-.3.1-.9" fill="#a2c0f0"/><path d="M142.4 161.1l-.6.3-.2.9.6-.2.2-1" fill="#9abbef"/><path class="st21" d="M127.7 173.4c1.9-1.9 3.4-4.2 4.5-6.7l1.4-2.2 6.2-2.9s3.9-.2 4.3-3.2l-5.9 1.2-5.8.9-.3-.6 4.5-2.5s3.3 1.2 5 .3l1-2.2-4.7-1.2c-1.2-.3-2.4-.3-3.6.1l-4.9 1.6c-.6.2-1.2.7-1.6 1.2-2.2 3-4.1 6.3-5.6 9.7l-1.4 4.5-6.3 11.1 7.3-.5 5.9-8.6"/><path class="st21" d="M137 162.9l-3 1.2c-.8.3-1.5.7-2.2 1.2-1.2 1.1-2.2 2.4-3.1 3.7-1.1 1.4-1.2 2.6-2.9 3.2-1.7.5-3.6.6-5.4.2l-6.3 10.2 7.8-.6 5.8-8.4c1.9-1.9 3.4-4.2 4.5-6.7l1.4-2.2 3.4-1.8"/><path class="st16" d="M141.6 132.7l-3 18.4s-1.8 5.8 3.1 8c0 0 4.6 1.4 7.7-9.8l2.9-14.9-10.7-1.7"/><path class="st24" d="M151.7 137.8l.7-3.7-10.8-1.8-.7 4.9 10.8.6"/><path class="st32" d="M152.4 134.2c-.2.5-2.7.5-5.6 0s-5.2-1.4-5-1.9 2.7-.5 5.6 0 5.2 1.3 5 1.9"/><path class="st33" d="M143.5 132.2c-.3 0-.7 0-1 .1-.2 0-.3.1-.4.1l.2.1c.3.2.7.3 1 .4l.6.2c.6-.4 1.3-.5 2-.4.9 0 1.8.1 2.8.3.9.2 1.8.4 2.6.6l-.3-.1c-1.1-.4-2.3-.7-3.5-.9-1.5-.2-2.7-.3-4-.4"/><path class="st34" d="M151.7 137.8c0 .7-2.5 1.1-5.5 1s-5.4-.9-5.3-1.6 2.5-1.1 5.5-1 5.4.9 5.3 1.6"/><path class="st35" d="M142.6 136.3c-.6 0-1.1.2-1.6.6.5-.4 1-.6 1.6-.6m3.7-.1c1 .1 1.8.2 2.7.3-.9-.2-1.7-.3-2.7-.3m-1.3 0c-.5 0-1 0-1.5.1.5-.1 1-.1 1.5-.1"/><path class="st16" d="M143.5 138.4c.3.1.6.1 1 .2-.3 0-.6-.1-1-.2m0 0"/><path class="st36" d="M143.2 137.6l-.1.6.5.1c.3.1.6.1 1 .2-.9-.2-1.4-.5-1.4-.9m-.6-1.3c-.6 0-1.1.2-1.6.6.5-.3 1-.5 1.6-.6m2.4-.2c-.5 0-1 0-1.5.1l-.3 1.3c.2-.5 1.9-.9 4.1-.9h1.4c.5 0 1.2.1 1.7.2-.5-.1-.9-.3-1.4-.4-.9-.2-1.7-.3-2.6-.3H145"/><path class="st37" d="M140.3 140.6l-1.3 7.8c-.5 1.6-.7 3.3-.7 4.9 0-.8.1-1.5.3-2.2l1.7-10.5"/><path d="M140.1 157.9l.2.2-.2-.2" fill="#4b3c19"/><path d="M141.8 159c.2.2.5.4.7.5-.2-.2-.3-.3-.4-.5h-.3m-2.8-2.5c.3.6.6 1 1.1 1.5-.5-.5-.8-1-1.1-1.5" fill="#dc5a1c"/><path class="st40" d="M140.9 136.9l-.6 3.6-1.7 10.5c-.2.7-.3 1.5-.3 2.2 0 1.1.2 2.2.7 3.2.3.5.7 1 1.1 1.5l.2.2c.3.2.5.4.9.5.3.1.5.2.7.4h.3c-1.1-1.4-2.2-4.4-1.3-10.8l2.2-10c-1.2-.3-2.1-.7-2.2-1.1v-.2"/><path class="st41" d="M141 136.9l-.1.1c0-.1.1-.1.1-.1m2.5-.8c-.3 0-.6.1-.9.2.3-.1.6-.1.9-.2"/><path class="st42" d="M143.2 137.5v.1-.1m-2.3-.3c.1.4.9.8 2.2 1.1-1.3-.3-2.1-.7-2.2-1.1m0 0"/><path class="st40" d="M140.9 137v0"/><path class="st43" d="M141 136.9l-.1.1.1-.1m2.5-.7c-.3 0-.6.1-.9.1.3 0 .6-.1.9-.1"/><path class="st40" d="M140.9 137.2"/><path class="st44" d="M143.5 136.2c-.3 0-.6.1-.9.1-.6.1-1.1.3-1.6.6l-.1.1v.1c.1.4.9.8 2.2 1.1l.1-.6v-.1l.3-1.3"/><path class="st45" d="M146.2 141.8c0 .2-.2.4-.4.4s-.4-.2-.4-.4.2-.4.4-.4c.2.1.4.2.4.4zM144.2 149.6c0 .2-.2.3-.4.2-.1 0-.2-.1-.2-.2 0-.2.1-.3.3-.3.2 0 .3.1.3.3zM144.2 140.9c0 .2-.1.3-.3.3-.2 0-.3-.1-.3-.3 0-.2.1-.3.3-.3.2 0 .3.1.3.3z"/><path class="st16" d="M146.7 137.4c0-.3.3-.5.6-.5s.5.3.5.6"/><path class="st46" d="M147.2 127.9c-.2.1-.5 0-.6-.2-.1-.2 0-.5.2-.6.2-.1.5 0 .6.2.1.3 0 .5-.2.6zM146.9 124.1c-.2.1-.5 0-.6-.2-.1-.2 0-.5.2-.6.2-.1.5 0 .6.2.1.3 0 .5-.2.6zM152.4 127.9c-.2.1-.5 0-.6-.2-.1-.2 0-.5.3-.6.2-.1.4 0 .5.2.1.3 0 .5-.2.6z"/><path class="st45" d="M144.6 143c0 .2-.2.4-.4.4s-.3-.2-.3-.4.2-.3.3-.3c.2-.1.4.1.4.3zM146 146.3c0 .2-.1.3-.3.3-.2 0-.3-.1-.3-.3 0-.2.1-.3.3-.3.2 0 .3.1.3.3zM147.8 143.7c0 .2-.1.3-.3.3-.2 0-.3-.1-.3-.3 0-.2.1-.3.3-.3.2 0 .3.1.3.3z"/><path class="st9" d="M146.4 159.8l-1 .5s.6 2.6 1.7 3.5c0 0 .5.3.4-.4l-1.1-3.6zM144.6 163.6l-.8.1c-.2 1.3-.2 2.6 0 3.8 0 0 .4.5.5-.2v-.1l.3-3.6zM140.9 159l.5.9s2.5-.5 3.3-1.6c0 0 .3-.5-.4-.4l-3.4 1.1zM135.8 167l-2.6 1.7-.1-.1c.2-.4.5-.7.9-.9l1.3-.8c.3-.1.5 0 .5.1zM138.9 167l-3.3 1.9-.1-.1c.3-.5.7-.8 1.2-1l1.6-.9c.2-.2.6 0 .6.1z"/><path class="st45" d="M151.4 135.6l-3.9 16s-.6 3.4-3.4 4.3c1.1-1.1 1.9-2.6 2.3-4.1l3.6-16.1 1.4-.1z"/><path class="st25" d="M143.5 131.6c-.4 0-.9 0-1.3.1-.2 0-.3.1-.5.2s-.3.2-.3.4v.1c0 .2.1.3.2.4v-.1l.1-.4h.1v-.1c0-.1.1-.1.2-.2.5-.3 1.1-.4 1.6-.3 2.4.1 4.8.5 7.1 1.2.3.1.6.2.8.3l-.1-.4c-1.3-.5-2.6-.8-3.9-1-1.4-.1-2.7-.2-4-.2"/><path class="st47" d="M141.6 132.7v.1-.1"/><path class="st26" d="M141.6 132.3l-.1.4v.1c.2.2.4.4.7.5 1.4.6 2.9 1 4.4 1.2 1.3.2 2.6.4 3.9.4.4 0 .7 0 1.1-.1v-.3c-.3 0-.7.1-1 .1-1.3 0-2.5-.1-3.8-.4-2.9-.5-5.1-1.3-5.1-1.9h-.1"/><path class="st48" d="M151.1 133.6l.3.1v-.1h-.3m-.5-.5c.3.1.6.2.8.3-.2-.1-.5-.2-.8-.3m-8.7-1c-.1 0-.1.1-.2.2v.1c0 .5 2.2 1.4 5.1 1.9 1.3.2 2.5.4 3.8.4.3 0 .7 0 1-.1l-.1-.3h-1c-1.3 0-2.5-.1-3.7-.4-1-.2-2-.4-3-.7l-.1.1v.1c-1.4-.5-2-1-2-1.2 0 0 0-.1.1-.1"/><path class="st49" d="M143.5 131.8c-.6-.1-1.1 0-1.6.3.5-.2 1.1-.2 1.6-.3"/><path class="st50" d="M143.5 131.9c-.6 0-1.1 0-1.7.2 0 0 0 .1-.1.1-.1.2.5.7 2 1.2v-.1s0-.1.1-.1l-.6-.2c-.3-.1-.7-.3-1-.4l-.2-.1c.1-.1.3-.1.4-.1.3 0 .7-.1 1-.1 1.3 0 2.5.1 3.7.4 1.2.2 2.4.5 3.5.9l.3.1.3.1-.1-.4c-.2-.1-.5-.2-.8-.3-1.9-.8-4.3-1.1-6.8-1.2"/><path class="st25" d="M141.4 132.2"/><path class="st23" d="M138.1 159.8l-.1.8.4-.7.7.9-.4-1.4-.7.3M129.8 156.5c-.4 0-.7.2-1 .4-.3.5-.4 1.1-.4 1.6.1.2.4-1 1.1-1.2s1.4-.4 1.4-.7-1.1-.1-1.1-.1zM143.3 159.4c-1 .8-2.2 1.5-3.5 1.8l-7 2.4-2.3 2.1-.7 3.1c-.7 2.1-2.2 3.8-4.2 4.7 0 0-1.7 3-7.9 4.2l4.5 3.3.9-.5 4.2-6.2s4-2 5.5-8.3l.7-1.5 5.7-2.4s3.3-.3 4.4-2.1l-.3-.6"/><defs><filter id="Adobe_OpacityMaskFilter" filterUnits="userSpaceOnUse" x="39.2" y="152" width="92.7" height="114.4"><feColorMatrix values="1 0 0 0 0 0 1 0 0 0 0 0 1 0 0 0 0 0 1 0"/></filter></defs><mask maskUnits="userSpaceOnUse" x="39.2" y="152" width="92.7" height="114.4" id="SVGID_3_"><path class="st45" d="M160.5 53.1c-15.2 8.8-28.8 9.3-46.3 10.1-7 .3-14.1 0-21.2-.4-8.7-.4-17.4-.9-26.1 0-20.6 2-42.6 11.5-49.3 31.5-11.2 33.1 14.2 46.1 15.2 69.8 1.1 25.2-15 53-.9 73.9 10.7 15.9 37.9 19.5 56.4 14.8 18.6-4.7 36.4-17.8 55.5-19.3 13.7-1.1 27.3 2 40.9 5.2 14.9 3.4 29.7 6.9 44.6 4.7 21.9-3.1 41.4-19.1 48.7-39.9 3.9-11.4 4.1-23.7.6-35.2-3.6-12.4-12.1-20.2-17.4-31.6-4.9-10.4-2.7-19.8-.5-30.5 4.1-20.1-7.5-38.6-22.4-50.4-10-8-22.8-13.4-36-13.3-13.9.2-30.1 3.7-41.8 10.6" filter="url(#Adobe_OpacityMaskFilter)"/></mask><g mask="url(#SVGID_3_)"><path class="st21" d="M100.8 226.7s16.6 1.1 25.5 4.9l2.5 1.1s2 1.1 1.8 6.5l-.1 2.2-35.7 9.1-4.8-5.7 6.3-17.2 4.5-.9"/><path class="st23" d="M96 233.7l25.6 2.4s4.2 2.7 4.9 6.9l5.4-1.1-1.6-6.5c-.5-2.2-2.1-3.3-4.3-3.9-6-1.9-17.9-5.3-23.8-4.8l-7.2 1.6 1 5.4"/><path class="st17" d="M117.8 173.6l-9.1 20L95 155.9c-1.2-2.5-4.3-4.7-6.9-3.6l-1.2.3c-3 .7-5 3-7.3 4.9-10.1 8.6-23 24.9-25.3 24.5h-.5l-3.6 22.1s-3.8 17.1-9.1 28.4c-4.7 9.9-.3 30.9 10.2 33.8 7.6 2 19.6-7.8 36.3-14.4l6.9-2s-.2-21.8 9.4-23.6l-15-.7-1.4-15.1 9.2-5.9 7.8 8.1s3.1 3.8 10.8-4l10.5-30.9-.4-.1c-2.8-.6-5.4-2.1-7.3-4.2l-.3.1"/><path class="st53" d="M108.6 193.2l.1.3-.1-.3"/><path class="st54" d="M75.5 161.3l-.3.2-.2.2.5-.4"/><path class="st53" d="M53.8 182l-4.1 23.2h.3l.2-1.1 3.4-20.9v-.2l.2-1m64-8.4"/><path class="st55" d="M49.2 208.3l-.1.5c0-.2.1-.4.1-.5"/><path class="st56" d="M50 205.1h-.3l-.5 3.1c.3-1.3.6-2.3.8-3.1"/><path class="st54" d="M53.7 183v.2-.2"/><path class="st53" d="M121 192.1l-4.4 13h.3l1.4-3.2 2.7-8.9v-.9"/><path class="st55" d="M115.5 208.3l-.1.2.1-.2"/><path class="st56" d="M116.9 205.1h-.3l-1.1 3.2 1.4-3.2"/><path class="st55" d="M115.4 208.5c-1.4 1.6-3.1 2.9-4.9 3.9 3.2-.6 4.9-3.9 4.9-3.9"/><path d="M45.6 220.9c-.3.8-.6 1.5-.9 2.2h.1c.3-.7.5-1.5.8-2.2" fill="#5b567d"/><path d="M94.3 249.8l-6.7 1.9c-1 .4-1.9.8-2.9 1.2.9-.2 1.9-.4 2.8-.6 2.1-.5 4.1-1.1 6.2-1.9l.6-.6m-49.5-26.7h-.1c-.4 1.1-.9 2.1-1.3 3.1-.7 1.7-1.3 3.4-1.8 5.1 1.2-2.5 2.3-5.3 3.2-8.2" fill="#021a57"/><path class="st54" d="M94.6 249.7l-.3.1.1.1.2-.2m2.4-15.8c-1 2.8-1.6 5.6-2 8.5.5-2.8 1.2-5.7 2-8.5"/><path d="M82.6 154.9l-7.1 6.3-.5.5-14.1 14.9c-3.8 4.8-5.8 5.4-6.7 5.4-.1 0-.3 0-.4-.1l-.2 1v.2L50.3 204l-.3 1.1c-.2.7-.4 1.8-.8 3.1 0 .2-.1.4-.1.5l-.2 1.1c-.8 3.7-1.9 7.4-3.3 11-.2.7-.5 1.5-.8 2.2-1 2.8-2.1 5.7-3.2 8.3-1.3 4.9-1.7 10-1 15l.5.3c8.5 5.2 19.7 7.5 30.4 7.5 4.5 0 9-.4 13.4-1.3.9-.4 1.9-.8 2.9-1.2l6.7-1.9.3-.1-.2-1.5c.1-1.9.3-3.9.6-5.8.3-2.9 1-5.7 1.9-8.4l-7.3 2-18.8-3.4c-3-3-7.6-3.5-10.6-3.5-1 0-1.9.1-2.8.2l9.4-6c6.7-2 10.7-11.4 10.7-11.4l1.3-10.1c4-4 4-14.8 4-14.8l18.8 21.5c2.9 3.2 5.4 4.2 7.5 4.2.4 0 .9 0 1.3-.1 1.8-1.1 3.5-2.4 4.9-3.9l.1-.3 1.1-3.1 4.5-13.2v-3l-3.1-15.4-9.1 20-.1-.3-3.4 2.7-7.9-14.3-3.1-7.9c-1.4-8.4-6-13.8-8.2-16.5-.6-.9-1.4-1.5-2.4-1.8-.6-.4-.9-.5-1.3-.6" fill="#2b294b"/></g><path class="st4" d="M114.4 110.1l-3.1-1.3c-.7-.3-1.4-.4-2.2-.4l-2.2.1s-8.6 8.1-9 17.5l3.4 1.3c.1 0 7.3-15.9 13.1-17.2z"/><path class="st9" d="M112.6 210.4s-6.4 1.2-10.9-2.2l-18.8-21.5-.9 8.6-15.6 12.5 18.8-8.5 4.2-2.7 7 8.8 7.3 7s3.1 2.3 8.9-2z"/><path class="st23" d="M53.6 181.8l5.9-11 7.1-9.2c.5-.6.4-.1.9-.6 3.8-3.7 4-3.1 5.6-4.1 2.9-1.4 6.1-2 9.2-1.8.3.2 10.2-1.9 10.5-1.7l.1.1.1.1.2-.1c-2.8-3.8-7.6-7.4-14.8-4.6-4.4.6-8.8 6-12.3 9.9-.5.6-.9 1.1-1.3 1.8l-6.2 9.5-5 11.7z"/><path class="st60" d="M76.1 160.3l-.9.8-1.2 1.3c.7-.7 1.5-1.4 2.2-2l-.1-.1zM95.7 157c-.2-.3-.3-.7-.6-1.1l-2-2.7c-3.9-4-10 .8-10 .8l-.9.8c.5.1.9.2 1.3.4 1 .3 1.9 1 2.5 1.9 2.2 2.8 6.8 8.1 8.2 16.5l3.1 7.9 7.9 14.3 3.5-2.8-13-36"/><path class="st3" d="M73.6 225.2L88 227l11.7 1.9 4.4-2.9-6-.4-16.8-1.1z"/><path d="M94.8 156.1c.2.4.4.8.6 1.1l-.2-.6-.4-.5" fill="#bc9077"/><path class="st23" d="M119.2 132.2s.6 2 1.2 3.2c.2.4.1 1.4.2 1.7.2.6-.4 1.1-1.1 1-.8-.2-1.7-.3-2.5-.3-.3 0-.9 7-3.7 10.3 2.2.2 4.4-.5 6-2 1.7-1.6 4.3-10.8 4.5-12.8s-1.2-11.4-1.5-12.9-4.4-1.1-4.6-1.2-.3 9.7 0 10.7c.2.7.6 1.4 1 2"/><path class="st62" d="M119.6 130.7c-1.2-.6-2.5-.8-3.7-.6l-.3 1.7c.6-.3 1.2-.5 1.8-.5.7.1 1.4.5 1.9 1M108 128.6s-6.1-1-6.3-1 .2.6.3.8 5.6 1.4 5.6 1.4"/><path class="st62" d="M108 128.1l-3-.5-2.1-.3-.8-.1h-.5l.1.5v-.5c-.3 0-.5.3-.5.6 0 .1 0 .2.1.3.1.1.1.3.2.4.1.1.1.2.2.3 0 .1.1.1.2.1.1.1.3.1.4.2 1.3.4 5.2 1.3 5.2 1.3l.2-1s-1.3-.3-2.7-.6l-1.9-.5-.6-.2-.2-.1-.2.4.3-.3-.1-.1-.2.4.3-.3c-.1-.1-.1-.2-.2-.3l-.1-.2-.2.1h.2v-.1l-.2.1h-.2l.3.2c.1-.1.1-.2.1-.2h-.4l.3.2-.4-.3v.5c.1 0 .3-.1.3-.2l-.4-.3v.5l-.1-.5v.5h.1l-.1-.5v.5-.3.3-.3.3h.3l3.4.5 2.4.4.5-.9z"/><path class="st45" d="M116.2 140.4l-.4-.1c-1.6-.5-7.5-2.4-7.8-2.6.1 1.1.6 2.2 1.4 2.9 1.5 1.2 3.3 2.1 5.2 2.5.1-.5.3-1.1.5-1.6.4-.3.8-.7 1.1-1.1z"/><path class="st18" d="M111.7 110.5s13.8-4.1 14.1 8.2l.1 4.4-10.5-.5-1.1-3-1.4 3H108l-3.6.4c-.1.1-1.3-9.3 7.3-12.5z"/><path class="st17" d="M122 119l.1 3.8 3.8.2-.1-4.4c-.3-10.4-10.4-9-13.3-8.4 4 0 9.3 1.3 9.5 8.8zM114.2 119.8l-3.8 2.8h2.3z"/><path class="st18" d="M109.3 123.9c.8-.8 1.8-1.4 2.8-1.8 1.2-.2 2.3.7 2.1 1.4s-.8.9-1 1c-1.3.1-2.6.1-3.8.1-.3-.1-.1-.7-.1-.7zM124.1 125.3c-.3-.3-.1-.5-1.7-1.5s-2.1-1.4-2.7-1.2-1 1.4-.6 1.9c1.2.7 2.6 1.2 4 1.4.9 0 1-.6 1-.6z"/><path class="st9" d="M114.4 131.3s.7-2-.9-2.7-3.4 0-4.8-.6c-.7-.2-1.2-.6-1.7-1.1 0 .8.6 1.6 1.3 1.9 1.3.6-.8 1.8 1.7 2.6"/><path class="st45" d="M114.4 131.2s.3-1.2-1.3-1.9-3.4-.6-3.8.6.1 1.7 2.7 1.9 2.4-.6 2.4-.6z"/><path class="st9" d="M119.2 131.7s-.1-2 1.5-2.2 2.8.8 4 .6c.6 0 1.2-.2 1.7-.6-.2.7-.8 1.2-1.6 1.4-1.2.2.1 1.8-2 1.9"/><path class="st45" d="M119.3 131.6c.1-.8.7-1.4 1.5-1.4 1.5-.2 2.9.3 2.9 1.4s-.6 1.5-2.7 1.1-1.7-1.1-1.7-1.1z"/><path class="st9" d="M111.4 131.7c-.4-.6-.3-1.4.3-1.8.6-.6 1.6-.5 2.2.1.1.1.2.3.3.5.2.4.2.9.1 1.3-1 .2-2 .2-2.9-.1zM121.2 132.8c-.3-.4-.3-.9-.1-1.3.3-.7 1-1 1.7-.9.9.1 1 1.5.7 2-.8.3-1.6.3-2.3.2z"/><path class="st62" d="M116.5 127.9c-.2-1-3.2-2.1-4.3-2.2s-4.6 0-5 .4c-.4.5-.5 1-.5 1.6l.4.4s-1.1 3.8 2.2 5.9 6.1-.9 6.3-1.6c0-.1 1-3.5.9-4.5zm-1.8 4.3c-.9 1.6-3.5 2.2-5.5.5s-.9-5.9-.9-5.9c1.2-.3 2.4-.4 3.6-.2 1.5.4 3.5 1 3.6 1.5.1 1.5-.1 2.9-.8 4.1z"/><path class="st62" d="M116.5 127.9l.5-.1c-.1-.4-.4-.8-.8-1.1-.6-.4-1.3-.8-2.1-1.1-.6-.2-1.2-.4-1.9-.5-.5-.1-.9-.1-1.4-.1-.8 0-1.6 0-2.3.1-.4 0-.7.1-1 .2-.1 0-.3.1-.4.1-.1 0-.3.1-.4.2-.2.3-.4.6-.5.9-.1.3-.1.6-.2.9v.2c0 .1 0 .2.1.3 0 .1.1.1.2.2s.2.2.4.3l.3-.4-.5-.1c-.1.5-.2 1-.2 1.6 0 .8.2 1.7.5 2.4.4 1 1.2 1.9 2.1 2.4.8.5 1.7.8 2.6.8 1.1 0 2.1-.4 3-1.1.3-.3.6-.5.9-.9.2-.2.4-.5.5-.8l-.5-.1.5.1s.2-.8.5-1.6c.2-.9.4-1.8.5-2.7v-.3l-.4.2-.5.1v.2c-.1.8-.2 1.6-.4 2.4-.1.4-.2.8-.3 1.1s-.1.5-.1.5c-.1.2-.2.3-.3.5-.4.4-.8.7-1.3 1-.6.3-1.2.5-1.9.5s-1.5-.2-2.1-.6c-.8-.5-1.4-1.2-1.8-2-.3-.6-.4-1.3-.4-2 0-.3 0-.7.1-1v-.4l.1-.3-.3-.2-.2-.1-.1-.1-.1.1h.1l-.1.1h.1l-.3.2h.3s0-.1-.1-.1l-.3.2h.3c0-.2 0-.4.1-.6.1-.2.1-.4.3-.5l-.1-.1.1.1-.1-.1.1.1c.1-.1.3-.1.4-.1 1-.2 2-.2 2.9-.2.4 0 .8 0 1.2.1.8.2 1.6.4 2.3.8.4.2.8.4 1.1.6l.3.3.1.1.9-.6zm-1.8 4.3l-.4-.2c-.5.8-1.4 1.3-2.4 1.2-.9 0-1.7-.3-2.4-.9-.4-.3-.7-.8-.8-1.3-.2-.5-.2-1.1-.2-1.7 0-.6.1-1.1.2-1.7 0-.2.1-.4.1-.5v-.1l-.5-.1.1.5c.8-.2 1.5-.3 2.3-.3.3 0 .7 0 1 .1.8.2 1.5.4 2.3.7.3.1.5.2.8.4l.2.1.1-.1h-.1l.1-.1h-.1l.2-.1h-.2v.1l.2-.1h-.2v.6c0 1.1-.3 2.3-.8 3.3l.4.2.4.2c.6-1.2.9-2.4.9-3.8v-.7c0-.2-.1-.3-.2-.5-.2-.2-.4-.4-.7-.5-1-.4-2-.8-3-1-.4-.1-.8-.1-1.3-.1-.9 0-1.8.1-2.6.3l-.3.1-.1.3c-.2.9-.3 1.8-.3 2.7 0 .7.1 1.4.3 2 .2.7.6 1.3 1.1 1.8.8.7 1.9 1.1 3 1.1 1.3 0 2.6-.6 3.3-1.8l-.4-.1zM127.2 130.6c-.2-.4-2.7-1.6-3.6-1.8s-3.4-.4-3.8.3c-.4 1.1-.6 2.3-.7 3.5.2 1.9 2 3.4 3.9 3.2h.2c1.8-.4 3.2-1.8 3.4-3.7.1 0 .3-.1.4-.1.3-.5.3-1 .2-1.4zm-3.5 4.3c-1.5.6-3.2-.2-3.8-1.7-.1-.1-.1-.3-.1-.4-.1-1.1.1-2.3.7-3.3.2-.4 1.9-.2 3.1 0 .9.2 1.8.7 2.6 1.3 0 0-.5 3.5-2.5 4.1z"/><path class="st62" d="M127.2 130.6l.9-.4c-.1-.1-.1-.3-.2-.4l-.4-.4c-.6-.4-1.2-.7-1.8-1-.3-.2-.7-.3-1-.4-.3-.1-.5-.2-.8-.3-.3-.1-.6-.1-.9-.2-.3 0-.7-.1-1.1-.1-.5 0-1 0-1.5.1-.2 0-.5.1-.7.2-.3.1-.5.3-.7.6l-.3.6c-.2.7-.4 1.4-.4 2.1-.1.7-.2 1.2-.2 1.3l1 .1-1-.1v.2c0 .2 0 .4.1.5.2.8.6 1.6 1.2 2.2.4.4.8.8 1.3 1 .6.3 1.2.4 1.8.4.3 0 .6 0 .9-.1.8-.1 1.6-.5 2.3-1 .7-.6 1.3-1.4 1.7-2.3.2-.4.3-.8.3-1.3l-1-.1.2 1 .2-.1.2-.1c.1 0 .2-.1.3-.2l.3-.3c.1-.1.1-.2.2-.3.1-.3.2-.7.2-1.1 0-.3 0-.5-.1-.8l-1 .7-1 .4.2-.1h-.2l.2-.1h-.2v.6l.4.1-.3-.2.4.1-.3-.2.8.4-.5-.7-.3.3.8.4-.5-.7.3.5-.3-.6-.1.1.3.5-.3-.6.1.1-.1-.1.1.1-.1-.1h-.2l-.7.1-.1.7h.4l-.4-.1h.4l-.4-.1c-.1.5-.3.9-.5 1.3-.2.3-.5.7-.8.9-.4.3-.9.5-1.3.6-.2 0-.3.1-.5.1-.4 0-.7-.1-1.1-.3-.4-.3-.8-.6-1-1.1-.1-.2-.2-.4-.2-.6l-.1-.2h-.3.3-.6l.5.1v-.1h-.6l.5.1v-.2c0-.4.1-1 .2-1.6 0-.3.1-.5.2-.8l.1-.2v-.1l-.1-.1.1.1-.1-.1.1.1-.4-.2.3.4.1-.1-.4-.2.3.4-.1-.2.1.2-.1-.2.1.2c.1-.1.3-.1.4-.1.3 0 .6-.1.9-.1h.9c.2 0 .4.1.6.1.1 0 .4.1.8.3.5.2 1.1.5 1.6.8l.6.3.1.1.4-.4-.5.2.1.2.4-.4-.5.2 1.1-.2zm-3.5 4.3l-.3-1c-.2.1-.5.1-.8.1-.5 0-.9-.1-1.3-.4-.3-.2-.5-.5-.6-.9v-.4c0-.5.1-1 .2-1.4.1-.2.1-.4.2-.5s.1-.2.1-.3l-.6-.4.3.6.3-.3-.6-.4.3.6-.2-.3.1.4-.2-.3.1.4v-.1.1-.1.1h.4c.7 0 1.3.1 2 .2.5.1 1 .3 1.4.6l.5.3.1.1.6-.8-1-.1c-.1.6-.3 1.2-.5 1.7-.1.4-.3.7-.6 1-.2.2-.4.4-.7.5l.8 1 .3 1c.7-.2 1.3-.6 1.7-1.2.5-.7.9-1.5 1.2-2.4.1-.4.2-.8.3-1.3l.1-.6-.4-.4-.9-.6c-.6-.4-1.4-.7-2.1-.9-.8-.1-1.5-.2-2.3-.2-.3 0-.6 0-.8.1-.2 0-.3.1-.4.1-.2.1-.4.3-.5.5-.1.1-.2.3-.2.5-.4.9-.6 1.8-.6 2.8v.6c.1.9.6 1.7 1.3 2.2.7.6 1.6.9 2.6.9.5 0 .9-.1 1.3-.2l-.6-.9z"/><path class="st16" d="M158.1 85.6c0 3.5-2.8 6.3-6.3 6.3s-6.3-2.8-6.3-6.3 2.8-6.3 6.3-6.3c3.4 0 6.2 2.8 6.3 6.3z"/><path fill="#ff7b59" d="M148.7 186.2h17V205h-17z"/><circle cx="157.2" cy="196.7" r="8.4" fill="#ffb54d"/><path class="st16" d="M154.6 199c0 2.1 1 4.1 2.7 5.4 3-2.3 3.5-6.5 1.3-9.5-.4-.5-.8-.9-1.3-1.3-1.8 1.3-2.7 3.3-2.7 5.4z"/><path class="st8" d="M99.3 133.3c0 .6-.4 1-1 1s-1-.4-1-1 .4-1 1-1 1 .5 1 1z"/><path class="st45" d="M230.4 81c0 .4-.3.7-.7.7-.4 0-.7-.3-.7-.7 0-.4.3-.7.7-.7.4 0 .7.3.7.7zM189.4 65.3c.6 0 1 .4 1 1s-.4 1-1 1-1-.4-1-1 .4-1 1-1zM180.4 63c0 .4-.3.7-.7.7s-.7-.3-.7-.7.3-.7.7-.7c.4 0 .7.3.7.7zM55.1 116.8c0 .4-.3.7-.7.7s-.7-.3-.7-.7c0-.4.3-.7.7-.7s.7.3.7.7z"/><path class="st2" d="M207.1 175.5l-19.6-1.7c-.5 0-1-.3-1.3-.8l-6.6-10.6c-.5-.8-1.6-.9-2.3-.4-.6.4-.8 1.1-.7 1.8 1.2 4.6 3.1 10.2 2.2 12.1-.1.2-.1.4-.2.6.3.2.6.6.7 1 .7 2.3 2.1 4.2 3 6.4.8 1.8 1.7 3.7 2.5 5.5.1.2.1.5.1.7l.5.9 1.7 3.5c.2.5 2.2 3 2.7 3.1 4.1 1.1 7.7 3 9.1-.5l9.4-19.1c.4-.8.1-1.8-.8-2.2 0-.2-.2-.3-.4-.3M182.2 107.2s-4.7-15.6 16.4-12.4c0 0 23.2-1 11.9 22.7l-3 7.2 1.6 15.2-10 18-3-6.1-2.6-2.3-3.3-9.7-5.6.9-1.6-8.4-4-8.7c0 .1-2.5-7.2 3.2-16.4"/><path class="st2" d="M205.7 127.3c-.2-1.2-.3-2.3-.2-3.5 0-1 .8-1.8 1.8-1.8.5 0 1.1.3 1.4.7.5-.7 1.1-1.5 1.7-2.2.3-.4.9-.7 1.5-.6l2.5-5.7L184 99.9l-2.7 9.5s-5.2 6-1.5 14.7l.6 5.6c.3 3.2 1.3 10.2 4.5 10.4 2 .1 4 0 5.9-.2l7.1-2.8s-1.3-2.9-.7-2.5c.8-.3 1.7-.4 2.6-.3-.6 0-.2-.1.2 0h.2l.1-.1.5-.2.5-.3c.3-.2.6-.5 1-.8l.1-.1c.6-.6 1.1-1.2 1.6-1.9l2.4-2.7c-.3-.2-.5-.5-.7-.9"/><path class="st22" d="M195.9 138.2s5.5-9.2 10.8-.9l2.4 6.1 7.8 1.5s-4.5-9-6-14.1l-3.1-7.2-6.6 1.7-5.3 12.9z"/><path class="st18" d="M210.3 121.5l.2-.4c.1-.1.2-.3.3-.4-.1-.2-.1-.5-.2-.7-.2.5-.4.9-.7 1.4.2.1.3.1.4.1zM205.1 124.8h-.5l-3.7 7.2c-2.8 3.5-6.3 6.2-10.4 8.1 0 0 2.5.4 9.9-4.6 1-.7 1.9-1.7 2.5-2.8l2.5-5c-1.5-.4-1.9-2.3-.3-2.9z"/><path class="st65" d="M183.5 117.1s-1.5 2-2.4 3.3c-.2.4-.5 1.2-.6 1.6-.4.7.4 2.4 1.1 2.4.9-.1 3.3-.8 3.4-.7.3.1 1.4 12.2 3.9 16.3 0 0-4.4.8-6.2-1.4-1.7-2-4.7-18.7-4.6-21.1s3.7-12.4 3.7-14.1c-.1-3.9 2.6-7.4 6.4-8.2.3-.1-2.4 18.4-2.8 19.4-.4.7-.9 1.4-1.5 2l-.4.5"/><path class="st45" d="M185 128.2l.5-.1c1.9-.3 8.7-1.4 9.1-1.6-.3 1.2-1 2.3-2.1 3-1.9 1.1-4 1.8-6.2 1.9l-.3-1.8c-.3-.4-.6-.9-1-1.4z"/><path class="st18" d="M195.3 110.1c-.2-.1-1.5-2-2.9-2.4s-2.6.4-2.6 1.2c.1.5.4 1 .9 1.2 1.4.3 2.8.6 4.2.7.4 0 .4-.7.4-.7zM179.2 108.2c.4-.3.2-.6 2.1-1.4s2.6-1.2 3.2-.9.9 1.8.3 2.2c-1.5.6-3.1.9-4.7.9-1-.2-.9-.8-.9-.8z"/><path class="st45" d="M189 116.2s-.2-1.4 1.7-1.9 3.9-.1 4.1 1.3-.4 1.8-3.3 1.7-2.5-1.1-2.5-1.1zM183.5 115.9c0-.9-.6-1.6-1.5-1.8-1.6-.5-3.2-.2-3.4 1.1s.4 1.8 2.8 1.7 2.1-1 2.1-1z"/><path class="st9" d="M192.3 117.3c.5-.6.5-1.5 0-2.1-.6-.8-1.7-.9-2.5-.3-.2.1-.3.3-.4.5-.2.4-.3.9-.3 1.4 1 .6 2.1.7 3.2.5zM181.2 117c.4-.4.5-.9.3-1.4-.3-.8-.7-1.1-1.7-1.2s-1.4 1.5-1.1 2.1c.8.3 1.6.5 2.5.5z"/><path class="st66" d="M193 147.3l-4.3 8.9 4.2-1.9-.1 22.7 6.4 3.9-1.4 19.2 7.6 15.4 9.8-12.6L217 185l18.8 6.3-7.2 15.2-.9 7.8 14.4 1.1s13.4-2.7 11.6-6.3l-1.8-3.6-3.6-13.4-1.8-16.1 2.7-12.5s-2.7-18.8-10.8-21.5l-6.3-7.1-17-1.8 1.6-2.7-6.9-2-8.3 15-3.8 11.2-4.7-7.3"/><path class="st66" d="M192.8 154.4l-6.3 19.1 15.6 8.9-4.4-13.2-4.9-14.8"/><path class="st66" d="M192.9 159.6l-6.4 13.9 14.1 7.1-2.9-11.4-4.8-9.6"/><path class="st67" d="M181.3 237.8l-.2.1 9.6 2.3.3-.1c-2.1-.5-4.3-1-6.5-1.5l-3.2-.8"/><path d="M185 236l-3.7 1.8 3.3.8 1.2.3c-.8-.8-1.1-1.9-.8-2.9" fill="#234a8a"/><path d="M226.4 215.5l-1.2 1.2L185 236c-.3 1 0 2.1.8 2.8l5.2 1.2 29.2-11h12.1l-11.2-8.1 21.5 3.6-11.6-7.6-4.6-1.4" fill="#2d355c"/><path class="st67" d="M179.5 237.4l-.1.1.3.1.1-.1-.3-.1"/><path d="M180.1 237l-.7.4.2.1.5-.5" fill="#988d86"/><path class="st2" d="M216.5 185.1l-.9 16.6-21.7 17.7-9.4 9.4 3.1 5.3 31.4-14.5 6.2-2.9 3.4-3.4 7.6-23.1-7.4-2.8-12.3-2.3"/><path class="st71" d="M197.7 154.6l6.5-8.9 5.4 6.3-5.8-12.1-2.3 3.6z"/><path class="st72" d="M207.6 132.4s6.9-1 4.6 4.4l-2.8 13s3.1-9.6 6.2-11.5c.2-.1.2 1.5.3 3.1.1 3.2.4 6.4 2.3-3.8.1-.4.3-.4.7-.4h.4c4.4-.3 9.8 2.1 12.4 3.9l6.2 14.6c.5.8.2 1.9-.7 2.4-.6.3-1.3.3-1.8-.1l-7.9-5.4 6.3 16.1-4.3 15.7 6.7 6.1-7.1 21.7-1.5 2.6 14.2 1c1.5 0 3-.2 4.4-.7 3.5-1.1 8.8-3.3 7.4-6.2l-1.3-4.2-4.2-14-1-15.8 2.2-11-2.9-12.1c-1.1-4.8-4.7-8.7-9.4-10.2l-4.8-6.2-15.2-1.8-.2-2.7-6.9-2-2.3 3.5"/><path class="st71" d="M216.3 147.2s-6.7 6.6-4.5 17.8l2.2 7.6s-3.1 4-.4 7.2l1.1.7-1.2 1.2.8 4.1 12 1.2-7.9-4.7-1-2.2-2.1-1.5s-.1-4.5 2.4-5.6l-2.5-2 3.7-2.3-3.6-5.7c-.1 0-.5-10.3 1-15.8z"/><path class="st73" d="M186 231.4l-5.9 5.6c.6-.3 1.2-.6 1.7-1 1.6-1.2 3.1-2.5 4.7-3.7l-.5-.9"/><path d="M179.6 237.5l-.1.1 1.4.4.2-.1-1.5-.4" fill="#5d5a40"/><path class="st75" d="M236.2 190.2l-6.5 19.6.4-1.2 6.1-18.4m-7.2-2.7l7.2 2.7-1.8-1.6-5.4-1.1"/><path d="M179.7 237.4l1.4.5.2-.1-1.6-.4" fill="#5b583f"/><path d="M185.1 235.8l-4 1.9h.2l3.7-1.8.1-.1" fill="#474834"/><path d="M225.2 216.7l-6.2 2.9-30.5 14.2.1.4-3.4 1.7-.2.1 40.2-19.3" fill="#484630"/><path d="M186.5 232.3c-1.6 1.2-3.1 2.5-4.7 3.7-.5.4-1.1.7-1.7 1l-.4.4 1.4.3 4-1.9 3.4-1.7-.1-.4-.8.4-1.1-1.8" fill="#534f34"/><path class="st73" d="M228.9 187.5l-5.3 21.5-37.3 22.1-.3.3.5.9 1.1 1.8.8-.4 30.6-14.1 6.2-2.9 2.1-2.1-.1-.1 1.8-2.8.7-1.9 6.5-19.6-7.2-2.7h-.1"/><path class="st80" d="M234.4 188.7l1.8 1.5-6 18.4 7.1-19.3-2.9-.6"/><path class="st5" d="M247 174.6l1 14.6.2 1.5 4.1 13.7.2.7-4.4-14.9-1.1-15.6m2-12.8l-.1.1v.1l.1-.2"/><path class="st81" d="M253.8 209.6v.6c0-.1.1-.2.1-.2l-.1-.4"/><path d="M227.70000000000002 214.2l-.3.3 12.1 1.3c.9-.1 1.7-.2 2.5-.3l-4.9-.4-9.4-.7.1-.1-.1-.1m23.4-1.5" fill="#0a0a22"/><path d="M237 215.2l4.9.4h.3-.5l-4.7-.4m-9.1-1.2l-.2.2v.2l.2-.4m1.3-2.4l-.1.3.1-.3m24.6-1.9c-.1.6-.3 1.1-.7 1.5.3-.3.5-.6.7-.9v-.6m-5.9-20.5l.1 1.2.1.3-.2-1.5m1-27.2l-.1.1.1.2V162" fill="#7e4e5e"/><path d="M248.8 162.1l-7.6 14.9v4.2c.3 3.4.3 6.1-.8 7.2-.7.6-1.6.9-2.5.9h-.7l-8.1 22.4-.1.2-.5 1.4-.7.7-.2.3-.1.1 9.4.7 4.8.3h.5c2.1-.3 4.2-.8 6.2-1.6.9-.4 1.7-.8 2.6-1.2.7-.4 1.4-.9 2-1.6.4-.4.6-1 .7-1.5l-1.3-4.6-.2-.7-4.1-13.7-.1-.3-.1-1.2-1-14.6 1.9-12.2v-.1" fill="#752639"/><path fill="#322d21" d="M230.2 208.6l-.5 1.2-.7 2.3.1-.2.1-.2 1-3.1"/><path fill="#2e2b1f" d="M229.7 209.8l-.7 1.9-1.8 2.8.1.1.6-.6 1.1-1.9.7-2.3"/><path d="M229.1 212l-.1.2-1.1 1.8.7-.7.5-1.3m8.2-22.8l-7.1 19.3-1 3 8.1-22.3" fill="#31291e"/><path class="st72" d="M196.2 160.8l-2 11.9-4.5-.9 5.7 3.3-7.3-.7 10.3 6.1.9-3.3-2-5.4-1.1-11"/><path class="st71" d="M193 147.3l-4.3 8.7 4-1.6 3.7 14 2.4 15.9-1.1 15.7 3.2-8.1s2.7-6.9 6.3.6l5.1 1.8-8.6-13.1-3.9 3.8s0-17.3-1.5-21.2c-.1 0 .2-10.2-5.3-16.5z"/><path class="st72" d="M199.3 202.3c2.6 4 7.7 5.5 12.1 3.6l-7.6 7.8-4.5-11.4zM233.8 168.5s-.6 8.2-11.1 8.4l7.2 1-7.1 2.8 6.7 3.5 8.1-6-3.8-9.7z"/><path class="st65" d="M186.5 226.7l15.3-11.2 14.8-11.7 2.2-2.2 3.2-14.9-5.8-.6-.8 14.6-20.8 17.8z"/><path class="st22" d="M211 121.8l.2-.1c1-1.2 5.7-7.9 1.1-20.7 0 0-5.8-8.6-19-6.3 0 0-8.9.5-9.5 3.3 0 0 3.8.8 5.6 1.1 4.1.6 7.5 2 7.6 6.2.1 2.2.5 4.4 2 5 0 0 2.8 3.6 2.2 6.6 0 0-1.9 4.6-.5 7.3 0 0 1.9 4.4 0 6.5l3.2-2.6s.3.4.8 1.1c.8-3.2 3.9-5.6 6.3-7.4z"/><path class="st18" d="M194.3 91.9l-3.7-.6 1.3 1.3-5.2-1.2-.1 1.5-3.6.5 3.1 2.5 5.3.5s.3.2 1.8-.2 1.6-.6 2.3-.4c1.5.3 2.9.6 4.4 1.1l1.9 1.1 1 .7-1.6 4.4.3 6.2.2 5.5 1.3.2 1.1-2.2 2.8-.7s1.8.6 2.1 1.7-.5 4-.5 4l-.5 6.2 2.9-2.2c.9-.2 1.6-2.8 2.2-3.5 1.5-1.7 2.4-3.9 2.5-6.2-.2-.7.3-7.7-.3-9.5s-1-2.7-2-4.9-3.9-8-6.6-8c-2.8 0-5.6.1-8.4.4-.4.2-4 1.8-4 1.8z"/><path class="st73" d="M187 173.8l5.9 8.7-1.7-2.3 2.7 4-1.8-7.4-3.4-2.1-1.7-.9"/><path class="st75" d="M187 173.7v.1l1.7.9-.6-.3-1.1-.7"/><path class="st80" d="M188.1 174.4l.6.3 3.4 2.1v-.2l-4-2.2"/><path class="st22" d="M165.5 156.3l-7 2.9s-.9 2.7 2.2 1.5l9.9-1.8-3.3-2.5-1.8-.1"/><path class="st2" d="M160 153.3c-.4 2.1-1.2 4-2.4 5.8-.3.3-.8.4-1.1.1-.2-.2-.3-.4-.3-.6l.2-6.4 3.6 1.1"/><path class="st18" d="M162.8 152.9l2.2-1.5 2.2 1.6.4 1.6z"/><path class="st22" d="M169.8 154.6s-4.2-1.1-4.8-2.6l-2.8 2.3-3.3-.9 1.3-3.3 4.9.3 4.6 2.9.1 1.3"/><path class="st65" d="M160.3 151.8s-3.5 3.6-7 3.4c-.7 0-1.2-.9-.8-1.4l4.7-5.3 3.1 3.3"/><path class="st24" d="M157 172.1c.1 1 3 1.4 6.4 1s6-1.6 5.9-2.6-3-1.4-6.4-1-6 1.6-5.9 2.6"/><path class="st24" d="M157.4 171.4c-.1.1-.2.3-.2.5.1 1 3 1.4 6.4 1 1.9-.2 3.7-.7 5.3-1.7-.6.8-2.9 1.7-5.7 2.1-3.4.4-6.3 0-6.4-1 0-.2.2-.5.6-.9"/><path class="st25" d="M166.9 169.2h-.2c-.2 0-.8 0-1.3.1h.1c1.2-.1 2.4.1 3.5.7-.2-.4-.9-.7-2.1-.8"/><path class="st26" d="M165.5 169.3l-1.2.1h-.1v.1h.1c.4 0 1.6.2 1.7.2.5.1 1.3.3 1.4.8s-.9 1.1-2.5 1.6c2.5-.5 4.2-1.3 4.1-2v-.1c-1-.6-2.2-.8-3.5-.7"/><path class="st27" d="M160.5 149l3.2 21.9s-.4 1.1-1.5.4l-3.3-22.1 1.6-.2"/><path class="st28" d="M159.1 151.1l.1 1.1.6-.1-.1-.9c-.2 0-.4-.1-.6-.1"/><path d="M162.2 171.3" fill="#91b6ef"/><path class="st28" d="M160.3 155.2h-.6l2.4 16.1c.1.1.3.2.5.2h.2c.1 0 .2 0 .3-.1-.1 0-.3-.1-.4-.2l-2.4-16"/><path class="st2" d="M174.1 167.9c-2-2.1-3.5-4.5-4.5-7.2l-1.4-2.4-6.4-3.2s-3.7.7-5.1-1c-.3-.5-.1-1.1.3-1.4.1-.1.2-.1.4-.1l5.1-.9 6.9 2.5.1-.2-4.4-3.2s-3.5 1.2-5.3.2l-.9-2.4 4.9-1.6c1.3-.3 2.6-.2 3.8.2l5.1 2.3c.9.3 1.8.8 2.6 1.4 1.4 1.9 1.7 2.3 3.2 6l1.4 4.8 6.3 13.8-6.2 1.6-5.8-9"/><path class="st2" d="M164.6 156.5c1.1.4 2.1.8 3.1 1.3.8.3 1.6.8 2.3 1.3 1.2 1.2 2.2 2.6 3.1 4 1.1 1.5 1.2 2.8 2.9 3.4 1.8.6 3.8.7 5.6.3l4.7 10.4-5.5 3.7-6.1-12s-4.7-2.7-6.1-6.8l-.4-3.9-3.6-1.7"/><path class="st16" d="M161 124.8l2.5 18.4s1.6 5.8-3.4 7.9c0 0-4.6 1.2-7.4-10l-2.5-15 10.8-1.3"/><path class="st24" d="M150.8 129.6l-.7-3.7 10.8-1.5.7 4.9-10.8.3"/><path class="st32" d="M150.2 126c.1.5 2.6.6 5.6.2s5.2-1.2 5.1-1.8-2.7-.6-5.6-.2-5.3 1.3-5.1 1.8"/><path class="st33" d="M158.7 124.3c-1.1 0-2.3.1-3.4.3-1.3.2-2.6.5-3.9.9.9-.2 1.7-.4 2.6-.5.8-.1 1.6-.2 2.5-.2.8-.1 1.6.1 2.2.5.4-.1.9-.3 1.3-.5.2-.1.3-.2.4-.3-.1 0-.2-.1-.3-.1-.4-.1-.9-.1-1.4-.1"/><path class="st34" d="M150.7 129.6c0 .7 2.5 1.2 5.5 1.1s5.4-.8 5.4-1.5-2.5-1.2-5.5-1.1-5.4.8-5.4 1.5"/><path class="st35" d="M159.9 128.4c.6.1 1.1.3 1.6.6-.5-.3-1-.6-1.6-.6m-3.8-.2c-1.4 0-2.7.2-4 .6 1.3-.4 2.7-.6 4-.6m.8 0c.7 0 1.4 0 2.1.1-.7-.1-1.4-.1-2.1-.1"/><path class="st16" d="M158.4 130.5l-.5.1.5-.1m0 0"/><path class="st36" d="M159.2 129.7c0 .3-.5.6-1.4.9l.5-.1c.3 0 .7-.1 1-.2l-.1-.6m.7-1.3c.5.2 1.1.4 1.6.6-.5-.3-1-.6-1.6-.6m-3-.3h-.7c-1.4 0-2.7.2-4 .6.5-.1 1.1-.1 1.7-.1h.7c2.5 0 4.5.4 4.7 1l-.3-1.4c-.6 0-1.3-.1-2.1-.1"/><path class="st37" d="M162.1 132.8l1.4 10.4c.2.7.3 1.4.2 2.1 0-1.6-.2-3.3-.6-4.8l-1-7.7"/><path d="M160.3 151" fill="#f1c890"/><path d="M163.3 147.9c-.5 1.4-1.6 2.6-3 3.1.1 0 .2-.1.3-.1 1.3-.5 2.3-1.6 2.7-3" fill="#976a3e"/><path class="st40" d="M161.6 129.1v.2h-.1c-.6.5-1.4.9-2.2.9l1.9 10c.8 7.2-.3 9.6-1.6 10.8h.2c.1 0 .2 0 .3-.1h.1c1.4-.6 2.5-1.7 3-3.1.3-.8.4-1.7.4-2.6 0-.7-.1-1.4-.2-2.1l-1.4-10.4-.5-3.8"/><path class="st41" d="M161.5 129l.1.1v-.1h-.1m-2.5-.8c.3 0 .6.1.9.1-.3 0-.6-.1-.9-.1"/><path class="st42" d="M159.2 129.6v0m2.3-.1c-.6.5-1.4.9-2.2.9.9-.1 1.6-.4 2.2-.9m0 0"/><path class="st40" d="M161.6 129.1v0"/><path class="st43" d="M161.5 129l.1.1c-.1 0-.1-.1-.1-.1m-2.5-.8c.3 0 .6.1.9.1-.3.1-.6 0-.9-.1"/><path class="st40" d="M161.5 129.4"/><path class="st44" d="M159 128.2l.3 1.4v.1l.1.7c.8-.1 1.6-.4 2.2-.9h.1v-.1c0-.1-.1-.1-.1-.1-.5-.3-1-.5-1.6-.6-.3 0-.6-.1-.9-.1"/><path class="st45" d="M156.1 133.8c0 .2.2.4.4.4s.4-.2.4-.4-.2-.4-.4-.4-.3.2-.4.4c.1 0 0 0 0 0zM157.9 141.6c0 .2.1.3.3.3.2 0 .3-.2.2-.4 0-.1-.1-.2-.2-.2s-.3.2-.3.3zM158.1 132.9c0 .2.1.3.3.3.2 0 .3-.1.3-.3 0-.2-.1-.3-.3-.3-.1 0-.3.2-.3.3z"/><path class="st16" d="M155.7 129.4c0-.3-.3-.6-.6-.5-.3 0-.6.3-.5.6"/><path class="st46" d="M154.7 120.9c.2.1.5.1.6-.2.1-.2.1-.5-.2-.6-.2-.1-.5-.1-.6.2-.1.2 0 .4.2.6zM152.6 121.6c.3.2.7.1.8-.2.2-.3.1-.7-.2-.8-.3-.2-.7-.1-.8.2-.2.3-.1.6.2.8zM152.5 113.9c.2.1.5 0 .6-.2.1-.2 0-.5-.2-.6-.2-.1-.5 0-.6.2-.1.3 0 .5.2.6zM150.1 118.1c.2.1.5 0 .6-.2.1-.2 0-.5-.2-.6s-.5 0-.6.2c0 .2 0 .5.2.6z"/><path class="st45" d="M157.7 135c0 .2.2.4.4.4s.4-.2.4-.4-.2-.4-.4-.4-.4.2-.4.4zM156.2 138.3c0 .2.2.3.3.2.1 0 .2-.1.2-.2 0-.2-.1-.3-.3-.3-.1 0-.2.1-.2.3zM154.4 135.6c0 .2.1.3.3.3s.3-.1.3-.3-.1-.3-.3-.3c-.1 0-.3.1-.3.3z"/><path class="st45" d="M151.1 127.5l3.4 16.1s.5 3.4 3.3 4.4c-1.1-1.2-1.8-2.6-2.2-4.2l-3.1-16.2-1.4-.1z"/><path class="st25" d="M158.7 123.60000000000001c-1.2 0-2.3.1-3.5.3-1.2.2-2.5.4-3.7.8-.4.1-.8.3-1.1.5-.1.1-.3.2-.4.3-.1.1-.2.3-.2.4v.1c.1.2.2.3.4.4l-.1-.6c.1-.1.2-.3.4-.3.5-.3 1-.5 1.5-.6 2.2-.6 4.5-1 6.7-1 .7-.1 1.4 0 1.9.3.1 0 .1.1.2.2h.1l.1.4v.1c.1-.1.2-.3.2-.4v-.1c-.1-.2-.2-.3-.4-.4-.3-.1-.6-.2-.9-.2-.3-.2-.7-.2-1.2-.2"/><path class="st47" d="M161 124.8v.1-.1"/><path class="st26" d="M161 124.4c-.1.5-2.3 1.3-5.2 1.7-1.1.2-2.3.3-3.4.3-1.3 0-2.1-.2-2.2-.5v-.1h-.1l.1.6c.3.1.6.2.9.2.4.1.8.1 1.3.1 1.2 0 2.3-.1 3.5-.3 1.2-.2 2.5-.4 3.7-.8.4-.1.8-.3 1.1-.5l.3-.3v-.4"/><path class="st48" d="M152 124.9c-.5.1-1.1.4-1.5.6.4-.2 1-.4 1.5-.6m8.7-.7c0 .1 0 .1 0 0 .1.3-.5.8-1.9 1.3v-.1c0-.1 0-.1-.1-.1-1 .3-2 .5-3 .6-1.1.2-2.2.3-3.4.3-.5 0-1 0-1.5-.1-.1 0-.2 0-.3-.1.1-.1.3-.2.4-.3l.4-.2c-.5.1-.9.3-1.2.4v.1h.2-.2c.1.3.9.5 2.2.5 1.1 0 2.3-.1 3.4-.3 2.9-.4 5.1-1.2 5.1-1.7 0-.1-.1-.2-.1-.3"/><path class="st49" d="M150.5 125.6c-.2.1-.3.2-.4.3h.1c.1-.1.2-.3.3-.3m8.3-1.7c-2.3 0-4.5.4-6.7 1 1.1-.3 2.1-.5 3.2-.7 1.1-.2 2.3-.3 3.5-.3.6 0 1.3.1 1.9.3-.6-.3-1.3-.4-1.9-.3"/><path class="st26" d="M150.1 125.9"/><path class="st50" d="M158.7 123.9c-1.1 0-2.3.1-3.4.3-1.1.2-2.2.4-3.2.7-.5.1-1.1.4-1.5.6l-.3.3c.4-.1.8-.3 1.2-.4 1.3-.4 2.6-.7 3.9-.9 1.1-.2 2.2-.3 3.4-.3.5 0 1 0 1.4.1.1 0 .2.1.3.1-.1.1-.3.2-.4.3-.4.2-.9.3-1.3.5l.1.1v.1c1.5-.4 2.1-.9 2-1.2 0 0 0-.1-.1-.1-.7-.1-1.4-.2-2.1-.2"/><path class="st65" d="M163 152.3v.9l-.4-.7-.9 1 .6-1.6.8.3"/><path class="st22" d="M172.3 150c.4 0 .7.2 1 .4.3.5.4 1.1.4 1.7-.1.2-.4-1-1.1-1.2s-1.4-.5-1.4-.7 1.1-.2 1.1-.2z"/><path class="st65" d="M156.8 154s3.6 1.2 5.2 0l6.3 3.6 1 .1s1.6 7.5 6.6 10.5l5.3 12 6.6 15.1-13-26.2s-6.3-4.2-7.6-8.5l-.1-1.6-.3-1-4.7-2.9c0-.2-4 1.3-5.3-1.1z"/><path d="M175.3 150.8c1.4 1.9 1.7 2.3 3.2 6l1.4 4.8 1.8 4 4.7 7.5.3.3v-.2l-1-1.5-3.6-6.5-2.5-4.9c-.6-3.5-2.1-6.8-4.3-9.5" fill="#444c3d"/><path class="st73" d="M181.6 165.5l2.6 5.7 6.9 9-4.7-6.8.1-.2-.3-.3-4.6-7.4"/><path class="st75" d="M186.5 173.5l.5.3-.5-.3m.1-.3v.2l-.1.2.1-.4"/><path class="st75" d="M186.6 173.2l-.1.3.5.2-.4-.5"/><path fill="#4c482c" d="M186.5 173.5l4.7 6.7 1.7 2.3-5.9-8.7-.5-.3"/><path fill="#4c492c" d="M186.5 173.5l.5.3v-.1l-.5-.2"/><path class="st73" d="M175.3 150.8s2.6 6.7 2.6 10.6c.8 2 1.8 3.9 3.1 5.6l.6-.1 1 2.3 1.6 2.1-2.6-5.7-1.8-4-1.4-4.8c-1.5-3.7-1.8-4.1-3.1-6"/><path class="st73" d="M181.6 166.9l-.6.1c.2.3.4.5.6.8l1.1 1.4-1.1-2.3"/><path class="st18" d="M201.5 119.8s-1.1 3.5-1.8 4.1c-1.2.7-2.7 1-4.1.9-.8-.3-1.9-.5-3.1-1.1-.7-.3-1.5-.5-2.3-.5h-2.8c-.7.2-1.5.4-2.3.5-.3.1-.6.2-.8.5-.2.5-.6.8-1.1.9-.1.1-.2.2-.4.2-.2.1-.5.1-.7.1-.9.3-1.5.3-2.2.5-.6.2-.9.8-.7 1.3.2.8.6 1.6.7 1.9.5 2.3.7 5.7 1.4 7.1.6 1.2 1 2.5 1.2 3.8 0 .6 1.3 1.9 2 2.7s3 .8 4 .8 2-1.1 3-1.9 3.8-3.8 4.3-4.1 3-1.7 3.2-2.8 4.5-3.7 5-4.2c.8-1.6 1.4-3.3 1.7-5.1 0-.3-2.3-.8-2.9-1.2-.6-.3-1-.9-1.1-1.6l-.2-2.8m-8.1 13c-.9 0-4.2-.9-4.9-.9s-2.5.9-3.4.9-1.4-3.2-1.4-4.1-.3-1 .6-1.3l2.7-1.2c.2-.2.4-.3.6-.3.9 0 1.8.1 2.7.3.7.1 1.4 0 2.1-.2.9-.2 1.8-.3 1.9-.2.6 1.2 1 2.4 1.1 3.7.1.9-1.1 3.3-2 3.3"/><path class="st94" d="M187.2 133.8c-.1.7-.3 1.3-.7 1.9-.4.4-.8.6-1.3.8h.5c.7.1 1.4-.2 1.8-.9.3-.6.2-1.4-.3-1.8M182.7 126.5s-1.8.7-1.8 1.8c0 .7.5 1.3 1.1 1.4-.2-.6-.3-1.3-.1-1.9.1-.5.4-.9.8-1.3M184 136.9s-1.2 2.1 0 3.4c.5.5 1.2.8 1.9.8.3 0 .6 0 .8-.1-.9-.5-1.6-1.2-2.2-2-.3-.7-.5-1.4-.5-2.1"/><path class="st18" d="M208.1 121.6s-.9 2.2-2.2 2.9l2.1-.3 1-1-.9-1.6z"/><path class="st81" d="M166 208.3h-17.7l-14.4 6.4h44.4l-12.3-6.4"/><path fill="#38394b" d="M178.3 214.7h-44.4l-.2.1h44.7l-.1-.1"/><path fill="#554843" d="M165.7 208.1h-17l-.4.2H166l-.3-.2"/></svg>